<svg width="900" height="900" xmlns="http://www.w3.org/2000/svg">
    <circle
        cx="450"
        cy="450"
        r="400"
        fill="#000000"
        stroke="none"
    />
    <path
        d="M 309.375 112.5 A 28.125 28.125 0 0 0 281.25 84.375 M 393.75 84.375 A 28.125 28.125 0 0 0 365.625 112.5 L 365.625 140.625 L 365.625 196.875 L 365.625 225 A 28.125 28.125 0 0 1 337.5 253.125 L 309.375 253.125 L 253.125 253.125 L 225 253.125 A 28.125 28.125 0 0 1 196.875 225 A 28.125 28.125 0 0 1 225 196.875 A 28.125 28.125 0 0 0 253.125 168.75 A 28.125 28.125 0 0 0 225 140.625 A 28.125 28.125 0 0 0 253.125 112.5 M 450 84.375 A 28.125 28.125 0 0 0 478.125 56.25 M 618.75 84.375 A 28.125 28.125 0 0 0 590.625 112.5 L 590.625 140.625 L 590.625 168.75 A 28.125 28.125 0 0 0 618.75 196.875 A 28.125 28.125 0 0 1 646.875 225 L 646.875 253.125 L 646.875 309.375 L 646.875 337.5 A 28.125 28.125 0 0 1 618.75 365.625 A 28.125 28.125 0 0 1 590.625 337.5 L 590.625 309.375 L 590.625 253.125 M 450 140.625 A 28.125 28.125 0 0 0 421.875 168.75 L 421.875 196.875 L 421.875 225 A 28.125 28.125 0 0 0 450 253.125 A 28.125 28.125 0 0 0 478.125 225 L 478.125 196.875 M 534.375 168.75 A 28.125 28.125 0 0 0 506.25 140.625 A 28.125 28.125 0 0 0 534.375 112.5 L 534.375 84.375 M 703.125 168.75 A 28.125 28.125 0 0 0 675 140.625 A 28.125 28.125 0 0 0 703.125 112.5 M 140.625 225 A 28.125 28.125 0 0 0 112.5 196.875 M 703.125 168.75 A 28.125 28.125 0 0 0 731.25 196.875 L 759.375 196.875 M 225 253.125 A 28.125 28.125 0 0 0 196.875 281.25 A 28.125 28.125 0 0 0 225 309.375 L 253.125 309.375 L 309.375 309.375 L 337.5 309.375 A 28.125 28.125 0 0 1 365.625 337.5 A 28.125 28.125 0 0 0 393.75 365.625 A 28.125 28.125 0 0 0 421.875 337.5 A 28.125 28.125 0 0 1 450 309.375 A 28.125 28.125 0 0 1 478.125 337.5 A 28.125 28.125 0 0 0 506.25 365.625 A 28.125 28.125 0 0 0 478.125 393.75 A 28.125 28.125 0 0 1 450 421.875 A 28.125 28.125 0 0 0 421.875 450 L 421.875 478.125 L 421.875 534.375 L 421.875 562.5 A 28.125 28.125 0 0 0 450 590.625 L 478.125 590.625 L 506.25 590.625 A 28.125 28.125 0 0 1 534.375 618.75 L 534.375 646.875 M 731.25 253.125 A 28.125 28.125 0 0 0 703.125 281.25 L 703.125 309.375 L 703.125 365.625 L 703.125 393.75 A 28.125 28.125 0 0 1 675 421.875 A 28.125 28.125 0 0 1 646.875 393.75 A 28.125 28.125 0 0 0 618.75 365.625 L 618.75 365.625 M 84.375 337.5 A 28.125 28.125 0 0 0 56.25 309.375 A 28.125 28.125 0 0 0 84.375 281.25 M 337.5 365.625 A 28.125 28.125 0 0 0 365.625 337.5 L 365.625 337.5 M 506.25 365.625 A 28.125 28.125 0 0 0 534.375 337.5 L 534.375 309.375 L 534.375 253.125 L 534.375 196.875 L 534.375 168.75 M 787.5 365.625 A 28.125 28.125 0 0 0 759.375 393.75 L 759.375 421.875 L 759.375 450 A 28.125 28.125 0 0 1 731.25 478.125 L 703.125 478.125 L 675 478.125 A 28.125 28.125 0 0 0 646.875 506.25 A 28.125 28.125 0 0 1 618.75 534.375 A 28.125 28.125 0 0 1 590.625 506.25 L 590.625 478.125 L 590.625 450 A 28.125 28.125 0 0 0 562.5 421.875 A 28.125 28.125 0 0 0 534.375 450 L 534.375 478.125 L 534.375 506.25 A 28.125 28.125 0 0 1 506.25 534.375 A 28.125 28.125 0 0 1 478.125 506.25 L 478.125 478.125 M 140.625 393.75 A 28.125 28.125 0 0 0 168.75 421.875 A 28.125 28.125 0 0 1 196.875 450 A 28.125 28.125 0 0 1 168.75 478.125 A 28.125 28.125 0 0 0 140.625 506.25 A 28.125 28.125 0 0 0 168.75 534.375 L 196.875 534.375 L 253.125 534.375 L 281.25 534.375 A 28.125 28.125 0 0 0 309.375 506.25 A 28.125 28.125 0 0 0 281.25 478.125 A 28.125 28.125 0 0 1 253.125 450 A 28.125 28.125 0 0 1 281.25 421.875 L 309.375 421.875 L 337.5 421.875 A 28.125 28.125 0 0 1 365.625 450 L 365.625 478.125 L 365.625 534.375 L 365.625 562.5 A 28.125 28.125 0 0 1 337.5 590.625 L 309.375 590.625 L 281.25 590.625 A 28.125 28.125 0 0 0 253.125 618.75 A 28.125 28.125 0 0 0 281.25 646.875 L 309.375 646.875 L 365.625 646.875 L 421.875 646.875 L 450 646.875 A 28.125 28.125 0 0 1 478.125 675 A 28.125 28.125 0 0 0 506.25 703.125 L 534.375 703.125 L 562.5 703.125 A 28.125 28.125 0 0 0 590.625 675 L 590.625 646.875 L 590.625 618.75 A 28.125 28.125 0 0 1 618.75 590.625 A 28.125 28.125 0 0 1 646.875 618.75 A 28.125 28.125 0 0 0 675 646.875 A 28.125 28.125 0 0 0 703.125 618.75 L 703.125 590.625 L 703.125 562.5 A 28.125 28.125 0 0 1 731.25 534.375 L 759.375 534.375 L 787.5 534.375 A 28.125 28.125 0 0 0 815.625 506.25 A 28.125 28.125 0 0 1 843.75 478.125 A 28.125 28.125 0 0 1 815.625 450 L 815.625 421.875 M 56.25 478.125 A 28.125 28.125 0 0 0 84.375 450 L 84.375 421.875 L 84.375 365.625 L 84.375 337.5 M 84.375 562.5 A 28.125 28.125 0 0 0 112.5 590.625 L 140.625 590.625 L 168.75 590.625 A 28.125 28.125 0 0 1 196.875 618.75 A 28.125 28.125 0 0 1 168.75 646.875 A 28.125 28.125 0 0 0 140.625 675 A 28.125 28.125 0 0 0 168.75 703.125 L 196.875 703.125 L 253.125 703.125 L 281.25 703.125 A 28.125 28.125 0 0 1 309.375 731.25 L 309.375 759.375 L 309.375 787.5 A 28.125 28.125 0 0 0 337.5 815.625 A 28.125 28.125 0 0 0 365.625 787.5 A 28.125 28.125 0 0 1 393.75 759.375 A 28.125 28.125 0 0 0 421.875 731.25 A 28.125 28.125 0 0 0 393.75 703.125 L 365.625 703.125 M 56.25 590.625 A 28.125 28.125 0 0 0 84.375 562.5 L 84.375 534.375 M 787.5 590.625 A 28.125 28.125 0 0 0 759.375 618.75 L 759.375 646.875 L 759.375 675 A 28.125 28.125 0 0 1 731.25 703.125 A 28.125 28.125 0 0 1 759.375 731.25 M 815.625 618.75 A 28.125 28.125 0 0 0 787.5 590.625 L 787.5 590.625 M 225 759.375 A 28.125 28.125 0 0 0 196.875 787.5 M 253.125 787.5 A 28.125 28.125 0 0 0 225 759.375 L 225 759.375 M 421.875 731.25 A 28.125 28.125 0 0 0 450 759.375 A 28.125 28.125 0 0 1 478.125 787.5 L 478.125 815.625 M 618.75 759.375 A 28.125 28.125 0 0 0 590.625 787.5 A 28.125 28.125 0 0 1 562.5 815.625 A 28.125 28.125 0 0 1 534.375 787.5 L 534.375 759.375 M 675 759.375 A 28.125 28.125 0 0 0 646.875 787.5 A 28.125 28.125 0 0 0 618.75 759.375 L 618.75 759.375 M 309.375 112.5 L 309.375 140.625 L 309.375 196.875 M 393.75 84.375 L 421.875 84.375 L 450 84.375 M 196.875 140.625 L 225 140.625 M 253.125 168.75 L 253.125 168.75 M 450 140.625 L 478.125 140.625 L 506.25 140.625 M 646.875 140.625 L 675 140.625 M 703.125 168.75 L 703.125 168.75 M 140.625 225 L 140.625 253.125 L 140.625 309.375 L 140.625 365.625 L 140.625 393.75 M 225 196.875 L 225 196.875 M 196.875 225 L 196.875 225 M 618.75 196.875 L 618.75 196.875 M 196.875 281.25 L 196.875 281.25 M 450 253.125 L 450 253.125 M 731.25 253.125 L 759.375 253.125 M 450 309.375 L 450 309.375 M 421.875 337.5 L 421.875 337.5 M 478.125 337.5 L 478.125 337.5 M 759.375 309.375 L 815.625 309.375 M 196.875 365.625 L 253.125 365.625 L 309.375 365.625 L 337.5 365.625 M 393.75 365.625 L 393.75 365.625 M 506.25 365.625 L 506.25 365.625 M 478.125 393.75 L 478.125 393.75 M 646.875 393.75 L 646.875 393.75 M 787.5 365.625 L 815.625 365.625 M 168.75 421.875 L 168.75 421.875 M 196.875 450 L 196.875 450 M 253.125 450 L 253.125 450 M 450 421.875 L 450 421.875 M 562.5 421.875 L 562.5 421.875 M 675 421.875 L 675 421.875 M 168.75 478.125 L 168.75 478.125 M 140.625 506.25 L 140.625 506.25 M 281.25 478.125 L 281.25 478.125 M 309.375 506.25 L 309.375 506.25 M 646.875 506.25 L 646.875 506.25 M 815.625 506.25 L 815.625 506.25 M 506.25 534.375 L 506.25 534.375 M 618.75 534.375 L 618.75 534.375 M 196.875 618.75 L 196.875 618.75 M 253.125 618.75 L 253.125 618.75 M 618.75 590.625 L 618.75 590.625 M 646.875 618.75 L 646.875 618.75 M 168.75 646.875 L 168.75 646.875 M 140.625 675 L 140.625 675 M 478.125 675 L 478.125 675 M 675 646.875 L 675 646.875 M 421.875 731.25 L 421.875 731.25 M 646.875 703.125 L 703.125 703.125 L 731.25 703.125 M 393.75 759.375 L 393.75 759.375 M 365.625 787.5 L 365.625 787.5 M 450 759.375 L 450 759.375 M 590.625 787.5 L 590.625 787.5 M 675 759.375 L 703.125 759.375 M 337.5 815.625 L 337.5 815.625 M 562.5 815.625 L 562.5 815.625"
        fill="none"
        stroke="#ccff33"
        stroke-width="10"
        stroke-linecap="round"
        stroke-linejoin="round"
    />
</svg>