<?xml version="1.0" encoding="utf-8"?>
<svg width="900" height="900" xmlns="http://www.w3.org/2000/svg">
  <circle cx="450" cy="450" r="400" fill="#000000" stroke="none"/>
  <path d="M 365.625 70.313 C 357.858 70.313 351.563 76.608 351.563 84.375 L 351.563 98.438 L 351.563 112.5 C 351.563 120.267 345.267 126.563 337.5 126.563 C 329.733 126.563 323.438 132.858 323.438 140.625 C 323.438 148.392 317.142 154.688 309.375 154.688 C 301.608 154.688 295.313 148.392 295.313 140.625 L 295.313 126.563 M 365.625 70.313 C 373.392 70.313 379.688 64.017 379.688 56.25 M 450 70.313 C 442.233 70.313 435.938 76.608 435.938 84.375 C 435.938 92.142 442.233 98.438 450 98.438 L 464.063 98.438 M 520.313 84.375 C 520.313 76.608 514.017 70.313 506.25 70.313 L 492.188 70.313 L 464.063 70.313 L 450 70.313 M 309.375 98.438 C 317.142 98.438 323.438 92.142 323.438 84.375 M 393.75 98.438 C 385.983 98.438 379.688 104.733 379.688 112.5 C 379.688 120.267 385.983 126.563 393.75 126.563 L 407.813 126.563 M 407.813 84.375 C 407.813 92.142 414.108 98.438 421.875 98.438 C 429.642 98.438 435.938 92.142 435.938 84.375 M 393.75 98.438 C 401.517 98.438 407.813 92.142 407.813 84.375 L 407.813 70.313 M 506.25 98.438 C 498.483 98.438 492.188 104.733 492.188 112.5 L 492.188 126.563 L 492.188 154.688 L 492.188 182.813 L 492.188 196.875 C 492.188 204.642 485.892 210.938 478.125 210.938 C 470.358 210.938 464.063 217.233 464.063 225 C 464.063 232.767 457.767 239.063 450 239.063 C 442.233 239.063 435.938 232.767 435.938 225 C 435.938 217.233 429.642 210.938 421.875 210.938 C 414.108 210.938 407.813 204.642 407.813 196.875 C 407.813 189.108 414.108 182.813 421.875 182.813 L 435.938 182.813 L 450 182.813 C 457.767 182.813 464.063 176.517 464.063 168.75 L 464.063 154.688 L 464.063 140.625 C 464.063 132.858 457.767 126.563 450 126.563 C 442.233 126.563 435.938 132.858 435.938 140.625 C 435.938 148.392 429.642 154.688 421.875 154.688 L 407.813 154.688 L 393.75 154.688 C 385.983 154.688 379.688 160.983 379.688 168.75 C 379.688 160.983 373.392 154.688 365.625 154.688 C 357.858 154.688 351.563 160.983 351.563 168.75 L 351.563 182.813 M 506.25 98.438 C 514.017 98.438 520.313 92.142 520.313 84.375 M 562.5 98.438 C 554.733 98.438 548.438 104.733 548.438 112.5 C 548.438 120.267 554.733 126.563 562.5 126.563 L 576.563 126.563 L 590.625 126.563 C 598.392 126.563 604.688 120.267 604.688 112.5 L 604.688 98.438 M 562.5 98.438 C 570.267 98.438 576.563 92.142 576.563 84.375 M 267.188 140.625 C 267.188 132.858 260.892 126.563 253.125 126.563 L 239.063 126.563 M 534.375 126.563 C 542.142 126.563 548.438 120.267 548.438 112.5 M 646.875 126.563 C 639.108 126.563 632.813 132.858 632.813 140.625 C 632.813 148.392 626.517 154.688 618.75 154.688 L 604.688 154.688 L 576.563 154.688 L 548.438 154.688 L 534.375 154.688 C 526.608 154.688 520.313 160.983 520.313 168.75 C 520.313 176.517 526.608 182.813 534.375 182.813 L 548.438 182.813 L 576.563 182.813 L 590.625 182.813 C 598.392 182.813 604.688 189.108 604.688 196.875 C 604.688 204.642 598.392 210.938 590.625 210.938 C 582.858 210.938 576.563 217.233 576.563 225 C 576.563 232.767 570.267 239.063 562.5 239.063 C 554.733 239.063 548.438 245.358 548.438 253.125 C 548.438 260.892 542.142 267.188 534.375 267.188 C 526.608 267.188 520.313 273.483 520.313 281.25 L 520.313 295.313 L 520.313 309.375 C 520.313 317.142 526.608 323.438 534.375 323.438 L 548.438 323.438 L 562.5 323.438 C 570.267 323.438 576.563 317.142 576.563 309.375 L 576.563 295.313 L 576.563 281.25 C 576.563 273.483 582.858 267.188 590.625 267.188 C 598.392 267.188 604.688 273.483 604.688 281.25 L 604.688 295.313 L 604.688 323.438 L 604.688 337.5 C 604.688 345.267 598.392 351.563 590.625 351.563 C 582.858 351.563 576.563 357.858 576.563 365.625 C 576.563 373.392 582.858 379.688 590.625 379.688 C 582.858 379.688 576.563 385.983 576.563 393.75 L 576.563 407.813 M 660.938 140.625 C 660.938 132.858 654.642 126.563 646.875 126.563 M 182.813 168.75 C 182.813 160.983 176.517 154.688 168.75 154.688 M 239.063 168.75 C 239.063 160.983 232.767 154.688 225 154.688 L 210.938 154.688 M 323.438 168.75 C 323.438 160.983 317.142 154.688 309.375 154.688 M 660.938 140.625 C 660.938 148.392 667.233 154.688 675 154.688 L 689.063 154.688 L 717.188 154.688 M 168.75 182.813 C 160.983 182.813 154.688 189.108 154.688 196.875 L 154.688 210.938 M 182.813 168.75 C 182.813 176.517 189.108 182.813 196.875 182.813 L 210.938 182.813 L 225 182.813 C 232.767 182.813 239.063 176.517 239.063 168.75 M 168.75 182.813 C 176.517 182.813 182.813 176.517 182.813 168.75 M 267.188 168.75 C 267.188 176.517 273.483 182.813 281.25 182.813 C 289.017 182.813 295.313 189.108 295.313 196.875 C 295.313 204.642 289.017 210.938 281.25 210.938 L 267.188 210.938 L 253.125 210.938 C 245.358 210.938 239.063 217.233 239.063 225 C 239.063 232.767 232.767 239.063 225 239.063 C 217.233 239.063 210.938 232.767 210.938 225 C 210.938 217.233 204.642 210.938 196.875 210.938 C 189.108 210.938 182.813 217.233 182.813 225 C 182.813 232.767 176.517 239.063 168.75 239.063 L 154.688 239.063 L 126.563 239.063 M 731.25 182.813 C 723.483 182.813 717.188 189.108 717.188 196.875 C 717.188 189.108 710.892 182.813 703.125 182.813 L 689.063 182.813 L 660.938 182.813 L 632.813 182.813 M 323.438 196.875 C 323.438 204.642 329.733 210.938 337.5 210.938 L 351.563 210.938 L 365.625 210.938 C 373.392 210.938 379.688 204.642 379.688 196.875 L 379.688 182.813 L 379.688 168.75 M 492.188 225 C 492.188 217.233 485.892 210.938 478.125 210.938 M 534.375 210.938 C 526.608 210.938 520.313 217.233 520.313 225 C 520.313 232.767 514.017 239.063 506.25 239.063 C 498.483 239.063 492.188 232.767 492.188 225 M 646.875 210.938 C 639.108 210.938 632.813 217.233 632.813 225 C 632.813 232.767 626.517 239.063 618.75 239.063 C 626.517 239.063 632.813 245.358 632.813 253.125 L 632.813 267.188 L 632.813 295.313 L 632.813 323.438 L 632.813 351.563 L 632.813 379.688 L 632.813 393.75 C 632.813 401.517 639.108 407.813 646.875 407.813 C 639.108 407.813 632.813 414.108 632.813 421.875 C 632.813 429.642 639.108 435.938 646.875 435.938 L 660.938 435.938 M 689.063 225 C 689.063 217.233 682.767 210.938 675 210.938 L 660.938 210.938 L 646.875 210.938 M 717.188 196.875 C 717.188 204.642 723.483 210.938 731.25 210.938 C 739.017 210.938 745.313 217.233 745.313 225 C 745.313 232.767 751.608 239.063 759.375 239.063 C 767.142 239.063 773.438 245.358 773.438 253.125 C 773.438 260.892 767.142 267.188 759.375 267.188 L 745.313 267.188 L 731.25 267.188 C 723.483 267.188 717.188 273.483 717.188 281.25 C 717.188 289.017 723.483 295.313 731.25 295.313 C 739.017 295.313 745.313 301.608 745.313 309.375 C 745.313 301.608 751.608 295.313 759.375 295.313 L 773.438 295.313 L 787.5 295.313 C 795.267 295.313 801.563 289.017 801.563 281.25 C 801.563 273.483 807.858 267.188 815.625 267.188 M 239.063 253.125 C 239.063 245.358 232.767 239.063 225 239.063 M 281.25 239.063 C 273.483 239.063 267.188 245.358 267.188 253.125 L 267.188 267.188 L 267.188 281.25 C 267.188 289.017 273.483 295.313 281.25 295.313 C 289.017 295.313 295.313 301.608 295.313 309.375 C 295.313 317.142 289.017 323.438 281.25 323.438 C 273.483 323.438 267.188 329.733 267.188 337.5 L 267.188 351.563 L 267.188 379.688 L 267.188 407.813 L 267.188 435.938 L 267.188 450 C 267.188 457.767 260.892 464.063 253.125 464.063 C 245.358 464.063 239.063 470.358 239.063 478.125 C 239.063 485.892 232.767 492.188 225 492.188 C 217.233 492.188 210.938 498.483 210.938 506.25 C 210.938 514.017 217.233 520.313 225 520.313 L 239.063 520.313 L 253.125 520.313 C 260.892 520.313 267.188 514.017 267.188 506.25 C 267.188 498.483 273.483 492.188 281.25 492.188 C 289.017 492.188 295.313 498.483 295.313 506.25 C 295.313 514.017 301.608 520.313 309.375 520.313 L 323.438 520.313 L 337.5 520.313 C 345.267 520.313 351.563 526.608 351.563 534.375 C 351.563 542.142 345.267 548.438 337.5 548.438 L 323.438 548.438 L 295.313 548.438 L 281.25 548.438 C 273.483 548.438 267.188 554.733 267.188 562.5 C 267.188 570.267 260.892 576.563 253.125 576.563 C 245.358 576.563 239.063 582.858 239.063 590.625 C 239.063 598.392 245.358 604.688 253.125 604.688 C 260.892 604.688 267.188 610.983 267.188 618.75 C 267.188 626.517 273.483 632.813 281.25 632.813 C 289.017 632.813 295.313 626.517 295.313 618.75 L 295.313 604.688 L 295.313 590.625 C 295.313 582.858 301.608 576.563 309.375 576.563 L 323.438 576.563 L 337.5 576.563 C 345.267 576.563 351.563 582.858 351.563 590.625 C 351.563 598.392 345.267 604.688 337.5 604.688 C 329.733 604.688 323.438 610.983 323.438 618.75 L 323.438 632.813 L 323.438 646.875 C 323.438 654.642 329.733 660.938 337.5 660.938 C 345.267 660.938 351.563 654.642 351.563 646.875 C 351.563 639.108 357.858 632.813 365.625 632.813 C 373.392 632.813 379.688 626.517 379.688 618.75 L 379.688 604.688 L 379.688 576.563 L 379.688 548.438 L 379.688 534.375 C 379.688 526.608 385.983 520.313 393.75 520.313 L 407.813 520.313 L 421.875 520.313 C 429.642 520.313 435.938 514.017 435.938 506.25 C 435.938 498.483 442.233 492.188 450 492.188 C 457.767 492.188 464.063 485.892 464.063 478.125 L 464.063 464.063 M 295.313 253.125 C 295.313 245.358 289.017 239.063 281.25 239.063 M 337.5 239.063 C 329.733 239.063 323.438 245.358 323.438 253.125 C 323.438 260.892 317.142 267.188 309.375 267.188 C 301.608 267.188 295.313 260.892 295.313 253.125 M 351.563 253.125 C 351.563 245.358 345.267 239.063 337.5 239.063 M 393.75 239.063 C 385.983 239.063 379.688 245.358 379.688 253.125 C 379.688 260.892 373.392 267.188 365.625 267.188 C 357.858 267.188 351.563 260.892 351.563 253.125 M 407.813 253.125 C 407.813 245.358 401.517 239.063 393.75 239.063 M 689.063 225 C 689.063 232.767 695.358 239.063 703.125 239.063 L 717.188 239.063 L 731.25 239.063 C 739.017 239.063 745.313 232.767 745.313 225 M 140.625 267.188 C 132.858 267.188 126.563 273.483 126.563 281.25 L 126.563 295.313 L 126.563 309.375 C 126.563 317.142 132.858 323.438 140.625 323.438 C 148.392 323.438 154.688 317.142 154.688 309.375 C 154.688 301.608 160.983 295.313 168.75 295.313 L 182.813 295.313 L 196.875 295.313 C 204.642 295.313 210.938 289.017 210.938 281.25 C 210.938 273.483 217.233 267.188 225 267.188 C 232.767 267.188 239.063 260.892 239.063 253.125 M 407.813 253.125 C 407.813 260.892 414.108 267.188 421.875 267.188 L 435.938 267.188 L 464.063 267.188 L 478.125 267.188 C 485.892 267.188 492.188 273.483 492.188 281.25 L 492.188 295.313 L 492.188 309.375 C 492.188 317.142 485.892 323.438 478.125 323.438 C 470.358 323.438 464.063 317.142 464.063 309.375 C 464.063 301.608 457.767 295.313 450 295.313 C 442.233 295.313 435.938 301.608 435.938 309.375 L 435.938 323.438 L 435.938 351.563 L 435.938 379.688 L 435.938 393.75 C 435.938 401.517 429.642 407.813 421.875 407.813 C 414.108 407.813 407.813 401.517 407.813 393.75 C 407.813 385.983 401.517 379.688 393.75 379.688 C 385.983 379.688 379.688 373.392 379.688 365.625 C 379.688 357.858 385.983 351.563 393.75 351.563 C 401.517 351.563 407.813 345.267 407.813 337.5 L 407.813 323.438 L 407.813 309.375 C 407.813 301.608 401.517 295.313 393.75 295.313 L 379.688 295.313 L 365.625 295.313 C 357.858 295.313 351.563 301.608 351.563 309.375 C 351.563 317.142 357.858 323.438 365.625 323.438 L 379.688 323.438 M 548.438 281.25 C 548.438 273.483 542.142 267.188 534.375 267.188 M 660.938 253.125 C 660.938 260.892 667.233 267.188 675 267.188 C 667.233 267.188 660.938 273.483 660.938 281.25 L 660.938 295.313 L 660.938 309.375 C 660.938 317.142 667.233 323.438 675 323.438 L 689.063 323.438 L 703.125 323.438 C 710.892 323.438 717.188 329.733 717.188 337.5 C 717.188 329.733 723.483 323.438 731.25 323.438 C 739.017 323.438 745.313 317.142 745.313 309.375 M 689.063 281.25 C 689.063 273.483 682.767 267.188 675 267.188 M 154.688 309.375 C 154.688 317.142 160.983 323.438 168.75 323.438 C 176.517 323.438 182.813 329.733 182.813 337.5 C 182.813 345.267 189.108 351.563 196.875 351.563 C 204.642 351.563 210.938 345.267 210.938 337.5 C 210.938 329.733 217.233 323.438 225 323.438 C 232.767 323.438 239.063 329.733 239.063 337.5 L 239.063 351.563 L 239.063 379.688 L 239.063 393.75 C 239.063 401.517 232.767 407.813 225 407.813 C 217.233 407.813 210.938 401.517 210.938 393.75 L 210.938 379.688 M 225 323.438 C 232.767 323.438 239.063 317.142 239.063 309.375 L 239.063 295.313 M 323.438 309.375 C 323.438 317.142 329.733 323.438 337.5 323.438 C 329.733 323.438 323.438 329.733 323.438 337.5 C 323.438 345.267 317.142 351.563 309.375 351.563 C 301.608 351.563 295.313 357.858 295.313 365.625 C 295.313 373.392 301.608 379.688 309.375 379.688 L 323.438 379.688 L 337.5 379.688 C 345.267 379.688 351.563 385.983 351.563 393.75 C 351.563 401.517 345.267 407.813 337.5 407.813 L 323.438 407.813 L 309.375 407.813 C 301.608 407.813 295.313 414.108 295.313 421.875 L 295.313 435.938 L 295.313 450 C 295.313 457.767 301.608 464.063 309.375 464.063 L 323.438 464.063 L 337.5 464.063 C 345.267 464.063 351.563 457.767 351.563 450 C 351.563 442.233 357.858 435.938 365.625 435.938 C 373.392 435.938 379.688 429.642 379.688 421.875 C 379.688 429.642 385.983 435.938 393.75 435.938 L 407.813 435.938 L 421.875 435.938 C 429.642 435.938 435.938 442.233 435.938 450 C 435.938 442.233 442.233 435.938 450 435.938 C 457.767 435.938 464.063 429.642 464.063 421.875 L 464.063 407.813 L 464.063 379.688 L 464.063 365.625 C 464.063 357.858 470.358 351.563 478.125 351.563 L 492.188 351.563 L 520.313 351.563 L 534.375 351.563 C 542.142 351.563 548.438 357.858 548.438 365.625 L 548.438 379.688 L 548.438 407.813 L 548.438 435.938 L 548.438 450 C 548.438 457.767 542.142 464.063 534.375 464.063 L 520.313 464.063 L 506.25 464.063 C 498.483 464.063 492.188 457.767 492.188 450 L 492.188 435.938 L 492.188 421.875 C 492.188 414.108 498.483 407.813 506.25 407.813 C 514.017 407.813 520.313 414.108 520.313 421.875 L 520.313 435.938 M 337.5 323.438 C 345.267 323.438 351.563 317.142 351.563 309.375 M 787.5 323.438 C 779.733 323.438 773.438 329.733 773.438 337.5 L 773.438 351.563 L 773.438 365.625 C 773.438 373.392 779.733 379.688 787.5 379.688 C 795.267 379.688 801.563 385.983 801.563 393.75 C 801.563 401.517 795.267 407.813 787.5 407.813 C 779.733 407.813 773.438 414.108 773.438 421.875 C 773.438 429.642 767.142 435.938 759.375 435.938 L 745.313 435.938 L 717.188 435.938 L 703.125 435.938 C 695.358 435.938 689.063 429.642 689.063 421.875 C 689.063 414.108 695.358 407.813 703.125 407.813 L 717.188 407.813 L 731.25 407.813 C 739.017 407.813 745.313 401.517 745.313 393.75 C 745.313 385.983 739.017 379.688 731.25 379.688 L 717.188 379.688 L 703.125 379.688 C 695.358 379.688 689.063 373.392 689.063 365.625 C 689.063 357.858 682.767 351.563 675 351.563 C 667.233 351.563 660.938 357.858 660.938 365.625 L 660.938 379.688 L 660.938 393.75 C 660.938 401.517 654.642 407.813 646.875 407.813 M 70.313 365.625 C 70.313 357.858 64.017 351.563 56.25 351.563 M 98.438 337.5 C 98.438 345.267 104.733 351.563 112.5 351.563 L 126.563 351.563 L 140.625 351.563 C 148.392 351.563 154.688 357.858 154.688 365.625 C 154.688 373.392 160.983 379.688 168.75 379.688 C 176.517 379.688 182.813 385.983 182.813 393.75 C 182.813 401.517 176.517 407.813 168.75 407.813 L 154.688 407.813 L 140.625 407.813 C 132.858 407.813 126.563 401.517 126.563 393.75 C 126.563 385.983 120.267 379.688 112.5 379.688 C 104.733 379.688 98.438 385.983 98.438 393.75 C 98.438 401.517 92.142 407.813 84.375 407.813 C 76.608 407.813 70.313 401.517 70.313 393.75 L 70.313 379.688 L 70.313 365.625 M 717.188 337.5 C 717.188 345.267 723.483 351.563 731.25 351.563 L 745.313 351.563 M 815.625 351.563 C 807.858 351.563 801.563 357.858 801.563 365.625 C 801.563 373.392 795.267 379.688 787.5 379.688 M 829.688 365.625 C 829.688 357.858 823.392 351.563 815.625 351.563 M 337.5 379.688 C 345.267 379.688 351.563 373.392 351.563 365.625 L 351.563 351.563 M 520.313 393.75 C 520.313 385.983 514.017 379.688 506.25 379.688 L 492.188 379.688 M 604.688 393.75 C 604.688 385.983 598.392 379.688 590.625 379.688 M 239.063 421.875 C 239.063 414.108 232.767 407.813 225 407.813 M 506.25 407.813 C 514.017 407.813 520.313 401.517 520.313 393.75 M 843.75 407.813 C 835.983 407.813 829.688 414.108 829.688 421.875 C 829.688 429.642 823.392 435.938 815.625 435.938 C 807.858 435.938 801.563 442.233 801.563 450 C 801.563 457.767 807.858 464.063 815.625 464.063 C 807.858 464.063 801.563 470.358 801.563 478.125 L 801.563 492.188 M 140.625 435.938 C 132.858 435.938 126.563 442.233 126.563 450 C 126.563 442.233 120.267 435.938 112.5 435.938 L 98.438 435.938 L 70.313 435.938 M 210.938 450 C 210.938 442.233 204.642 435.938 196.875 435.938 L 182.813 435.938 L 154.688 435.938 L 140.625 435.938 M 351.563 450 C 351.563 442.233 345.267 435.938 337.5 435.938 L 323.438 435.938 M 590.625 435.938 C 582.858 435.938 576.563 442.233 576.563 450 C 576.563 457.767 582.858 464.063 590.625 464.063 C 598.392 464.063 604.688 470.358 604.688 478.125 C 604.688 470.358 610.983 464.063 618.75 464.063 C 626.517 464.063 632.813 470.358 632.813 478.125 C 632.813 485.892 639.108 492.188 646.875 492.188 C 654.642 492.188 660.938 485.892 660.938 478.125 C 660.938 470.358 667.233 464.063 675 464.063 L 689.063 464.063 L 703.125 464.063 C 710.892 464.063 717.188 470.358 717.188 478.125 C 717.188 485.892 723.483 492.188 731.25 492.188 C 739.017 492.188 745.313 485.892 745.313 478.125 C 745.313 470.358 751.608 464.063 759.375 464.063 C 767.142 464.063 773.438 470.358 773.438 478.125 L 773.438 492.188 L 773.438 506.25 C 773.438 514.017 767.142 520.313 759.375 520.313 L 745.313 520.313 L 717.188 520.313 L 703.125 520.313 C 695.358 520.313 689.063 526.608 689.063 534.375 C 689.063 542.142 682.767 548.438 675 548.438 C 667.233 548.438 660.938 542.142 660.938 534.375 C 660.938 526.608 654.642 520.313 646.875 520.313 L 632.813 520.313 L 618.75 520.313 C 610.983 520.313 604.688 526.608 604.688 534.375 C 604.688 542.142 598.392 548.438 590.625 548.438 C 582.858 548.438 576.563 542.142 576.563 534.375 L 576.563 520.313 L 576.563 506.25 C 576.563 498.483 570.267 492.188 562.5 492.188 C 554.733 492.188 548.438 498.483 548.438 506.25 C 548.438 498.483 542.142 492.188 534.375 492.188 C 526.608 492.188 520.313 498.483 520.313 506.25 L 520.313 520.313 M 590.625 435.938 C 598.392 435.938 604.688 429.642 604.688 421.875 L 604.688 407.813 L 604.688 393.75 M 98.438 478.125 C 98.438 470.358 92.142 464.063 84.375 464.063 L 70.313 464.063 M 168.75 464.063 C 160.983 464.063 154.688 470.358 154.688 478.125 C 154.688 485.892 148.392 492.188 140.625 492.188 L 126.563 492.188 L 112.5 492.188 C 104.733 492.188 98.438 485.892 98.438 478.125 C 98.438 485.892 92.142 492.188 84.375 492.188 L 70.313 492.188 M 196.875 464.063 C 189.108 464.063 182.813 470.358 182.813 478.125 C 182.813 470.358 176.517 464.063 168.75 464.063 M 196.875 464.063 C 204.642 464.063 210.938 457.767 210.938 450 M 421.875 464.063 C 414.108 464.063 407.813 470.358 407.813 478.125 C 407.813 485.892 401.517 492.188 393.75 492.188 C 385.983 492.188 379.688 485.892 379.688 478.125 C 379.688 485.892 373.392 492.188 365.625 492.188 L 351.563 492.188 L 323.438 492.188 M 421.875 464.063 C 429.642 464.063 435.938 457.767 435.938 450 M 506.25 464.063 C 498.483 464.063 492.188 470.358 492.188 478.125 L 492.188 492.188 L 492.188 506.25 C 492.188 514.017 485.892 520.313 478.125 520.313 C 470.358 520.313 464.063 526.608 464.063 534.375 C 464.063 542.142 470.358 548.438 478.125 548.438 L 492.188 548.438 L 520.313 548.438 L 534.375 548.438 C 542.142 548.438 548.438 542.142 548.438 534.375 L 548.438 520.313 L 548.438 506.25 M 829.688 478.125 C 829.688 470.358 823.392 464.063 815.625 464.063 M 660.938 478.125 C 660.938 485.892 667.233 492.188 675 492.188 L 689.063 492.188 M 70.313 534.375 C 70.313 526.608 64.017 520.313 56.25 520.313 M 140.625 520.313 C 132.858 520.313 126.563 526.608 126.563 534.375 C 126.563 542.142 132.858 548.438 140.625 548.438 C 148.392 548.438 154.688 554.733 154.688 562.5 L 154.688 576.563 L 154.688 604.688 L 154.688 618.75 C 154.688 626.517 160.983 632.813 168.75 632.813 L 182.813 632.813 L 196.875 632.813 C 204.642 632.813 210.938 639.108 210.938 646.875 C 210.938 654.642 217.233 660.938 225 660.938 C 232.767 660.938 239.063 654.642 239.063 646.875 C 239.063 654.642 245.358 660.938 253.125 660.938 L 267.188 660.938 L 281.25 660.938 C 289.017 660.938 295.313 667.233 295.313 675 C 295.313 682.767 289.017 689.063 281.25 689.063 L 267.188 689.063 L 239.063 689.063 L 225 689.063 C 217.233 689.063 210.938 695.358 210.938 703.125 C 210.938 695.358 204.642 689.063 196.875 689.063 L 182.813 689.063 L 154.688 689.063 M 168.75 520.313 C 176.517 520.313 182.813 514.017 182.813 506.25 L 182.813 492.188 L 182.813 478.125 M 815.625 520.313 C 807.858 520.313 801.563 526.608 801.563 534.375 C 801.563 542.142 807.858 548.438 815.625 548.438 L 829.688 548.438 M 815.625 520.313 C 823.392 520.313 829.688 514.017 829.688 506.25 L 829.688 492.188 L 829.688 478.125 M 98.438 534.375 C 98.438 542.142 104.733 548.438 112.5 548.438 C 120.267 548.438 126.563 542.142 126.563 534.375 M 196.875 548.438 C 189.108 548.438 182.813 554.733 182.813 562.5 L 182.813 576.563 L 182.813 590.625 C 182.813 598.392 189.108 604.688 196.875 604.688 C 204.642 604.688 210.938 610.983 210.938 618.75 C 210.938 626.517 204.642 632.813 196.875 632.813 M 225 548.438 C 217.233 548.438 210.938 554.733 210.938 562.5 C 210.938 554.733 204.642 548.438 196.875 548.438 M 421.875 548.438 C 414.108 548.438 407.813 554.733 407.813 562.5 L 407.813 576.563 L 407.813 590.625 C 407.813 598.392 414.108 604.688 421.875 604.688 C 414.108 604.688 407.813 610.983 407.813 618.75 L 407.813 632.813 L 407.813 646.875 C 407.813 654.642 414.108 660.938 421.875 660.938 C 429.642 660.938 435.938 667.233 435.938 675 C 435.938 682.767 442.233 689.063 450 689.063 C 442.233 689.063 435.938 695.358 435.938 703.125 L 435.938 717.188 L 435.938 731.25 C 435.938 739.017 429.642 745.313 421.875 745.313 L 407.813 745.313 L 379.688 745.313 L 365.625 745.313 C 357.858 745.313 351.563 751.608 351.563 759.375 C 351.563 767.142 357.858 773.438 365.625 773.438 L 379.688 773.438 L 407.813 773.438 L 421.875 773.438 C 429.642 773.438 435.938 779.733 435.938 787.5 C 435.938 795.267 442.233 801.563 450 801.563 C 442.233 801.563 435.938 807.858 435.938 815.625 C 435.938 823.392 429.642 829.688 421.875 829.688 L 407.813 829.688 L 393.75 829.688 C 385.983 829.688 379.688 835.983 379.688 843.75 M 435.938 562.5 C 435.938 554.733 429.642 548.438 421.875 548.438 M 759.375 548.438 C 751.608 548.438 745.313 554.733 745.313 562.5 C 745.313 570.267 751.608 576.563 759.375 576.563 C 767.142 576.563 773.438 582.858 773.438 590.625 C 773.438 598.392 767.142 604.688 759.375 604.688 C 751.608 604.688 745.313 610.983 745.313 618.75 C 745.313 626.517 739.017 632.813 731.25 632.813 C 723.483 632.813 717.188 639.108 717.188 646.875 C 717.188 654.642 723.483 660.938 731.25 660.938 C 739.017 660.938 745.313 667.233 745.313 675 C 745.313 682.767 751.608 689.063 759.375 689.063 M 787.5 548.438 C 795.267 548.438 801.563 542.142 801.563 534.375 M 98.438 590.625 C 98.438 582.858 92.142 576.563 84.375 576.563 M 435.938 562.5 C 435.938 570.267 442.233 576.563 450 576.563 L 464.063 576.563 L 492.188 576.563 L 520.313 576.563 L 548.438 576.563 L 576.563 576.563 L 604.688 576.563 L 618.75 576.563 C 626.517 576.563 632.813 570.267 632.813 562.5 C 632.813 570.267 639.108 576.563 646.875 576.563 L 660.938 576.563 L 689.063 576.563 L 703.125 576.563 C 710.892 576.563 717.188 582.858 717.188 590.625 C 717.188 598.392 710.892 604.688 703.125 604.688 C 695.358 604.688 689.063 610.983 689.063 618.75 C 689.063 626.517 682.767 632.813 675 632.813 C 667.233 632.813 660.938 626.517 660.938 618.75 C 660.938 610.983 654.642 604.688 646.875 604.688 L 632.813 604.688 M 703.125 576.563 C 710.892 576.563 717.188 570.267 717.188 562.5 L 717.188 548.438 M 815.625 576.563 C 807.858 576.563 801.563 582.858 801.563 590.625 L 801.563 604.688 L 801.563 618.75 C 801.563 626.517 795.267 632.813 787.5 632.813 C 779.733 632.813 773.438 639.108 773.438 646.875 L 773.438 660.938 M 435.938 618.75 C 435.938 610.983 429.642 604.688 421.875 604.688 M 478.125 604.688 C 470.358 604.688 464.063 610.983 464.063 618.75 C 464.063 626.517 457.767 632.813 450 632.813 C 442.233 632.813 435.938 626.517 435.938 618.75 M 604.688 618.75 C 604.688 610.983 598.392 604.688 590.625 604.688 L 576.563 604.688 L 548.438 604.688 L 520.313 604.688 L 492.188 604.688 L 478.125 604.688 M 84.375 632.813 C 92.142 632.813 98.438 626.517 98.438 618.75 L 98.438 604.688 L 98.438 590.625 M 506.25 632.813 C 498.483 632.813 492.188 639.108 492.188 646.875 C 492.188 654.642 485.892 660.938 478.125 660.938 C 470.358 660.938 464.063 667.233 464.063 675 C 464.063 682.767 457.767 689.063 450 689.063 M 548.438 646.875 C 548.438 639.108 542.142 632.813 534.375 632.813 L 520.313 632.813 L 506.25 632.813 M 604.688 618.75 C 604.688 626.517 610.983 632.813 618.75 632.813 C 626.517 632.813 632.813 639.108 632.813 646.875 C 632.813 654.642 626.517 660.938 618.75 660.938 C 610.983 660.938 604.688 667.233 604.688 675 L 604.688 689.063 L 604.688 703.125 C 604.688 710.892 598.392 717.188 590.625 717.188 C 582.858 717.188 576.563 710.892 576.563 703.125 C 576.563 695.358 570.267 689.063 562.5 689.063 C 554.733 689.063 548.438 695.358 548.438 703.125 C 548.438 710.892 542.142 717.188 534.375 717.188 C 526.608 717.188 520.313 723.483 520.313 731.25 C 520.313 739.017 514.017 745.313 506.25 745.313 C 498.483 745.313 492.188 739.017 492.188 731.25 C 492.188 723.483 485.892 717.188 478.125 717.188 C 470.358 717.188 464.063 723.483 464.063 731.25 L 464.063 745.313 L 464.063 759.375 C 464.063 767.142 470.358 773.438 478.125 773.438 C 485.892 773.438 492.188 779.733 492.188 787.5 L 492.188 801.563 L 492.188 815.625 C 492.188 823.392 485.892 829.688 478.125 829.688 C 470.358 829.688 464.063 835.983 464.063 843.75 M 675 632.813 C 667.233 632.813 660.938 639.108 660.938 646.875 C 660.938 654.642 667.233 660.938 675 660.938 C 667.233 660.938 660.938 667.233 660.938 675 C 660.938 682.767 654.642 689.063 646.875 689.063 C 639.108 689.063 632.813 695.358 632.813 703.125 C 632.813 710.892 639.108 717.188 646.875 717.188 L 660.938 717.188 M 801.563 646.875 C 801.563 639.108 795.267 632.813 787.5 632.813 M 126.563 646.875 C 126.563 654.642 132.858 660.938 140.625 660.938 C 132.858 660.938 126.563 667.233 126.563 675 M 534.375 660.938 C 526.608 660.938 520.313 667.233 520.313 675 C 520.313 682.767 514.017 689.063 506.25 689.063 L 492.188 689.063 M 548.438 646.875 C 548.438 654.642 554.733 660.938 562.5 660.938 C 570.267 660.938 576.563 654.642 576.563 646.875 L 576.563 632.813 M 534.375 660.938 C 542.142 660.938 548.438 654.642 548.438 646.875 M 337.5 689.063 C 329.733 689.063 323.438 695.358 323.438 703.125 C 323.438 710.892 317.142 717.188 309.375 717.188 C 301.608 717.188 295.313 723.483 295.313 731.25 C 295.313 723.483 289.017 717.188 281.25 717.188 L 267.188 717.188 L 239.063 717.188 M 379.688 703.125 C 379.688 695.358 373.392 689.063 365.625 689.063 C 373.392 689.063 379.688 682.767 379.688 675 L 379.688 660.938 M 703.125 689.063 C 695.358 689.063 689.063 695.358 689.063 703.125 L 689.063 717.188 L 689.063 731.25 C 689.063 739.017 695.358 745.313 703.125 745.313 L 717.188 745.313 M 717.188 703.125 C 717.188 695.358 710.892 689.063 703.125 689.063 M 168.75 717.188 C 160.983 717.188 154.688 723.483 154.688 731.25 M 182.813 731.25 C 182.813 723.483 176.517 717.188 168.75 717.188 M 379.688 703.125 C 379.688 710.892 385.983 717.188 393.75 717.188 C 401.517 717.188 407.813 710.892 407.813 703.125 L 407.813 689.063 M 365.625 717.188 C 373.392 717.188 379.688 710.892 379.688 703.125 M 604.688 731.25 C 604.688 723.483 598.392 717.188 590.625 717.188 M 717.188 703.125 C 717.188 710.892 723.483 717.188 731.25 717.188 L 745.313 717.188 M 210.938 731.25 C 210.938 739.017 217.233 745.313 225 745.313 L 239.063 745.313 L 253.125 745.313 C 260.892 745.313 267.188 751.608 267.188 759.375 C 267.188 767.142 273.483 773.438 281.25 773.438 C 273.483 773.438 267.188 779.733 267.188 787.5 C 267.188 779.733 260.892 773.438 253.125 773.438 C 260.892 773.438 267.188 767.142 267.188 759.375 M 295.313 731.25 C 295.313 739.017 301.608 745.313 309.375 745.313 C 317.142 745.313 323.438 751.608 323.438 759.375 C 323.438 767.142 317.142 773.438 309.375 773.438 L 295.313 773.438 L 281.25 773.438 M 520.313 759.375 C 520.313 751.608 514.017 745.313 506.25 745.313 M 590.625 745.313 C 598.392 745.313 604.688 739.017 604.688 731.25 M 646.875 745.313 C 639.108 745.313 632.813 751.608 632.813 759.375 C 632.813 767.142 626.517 773.438 618.75 773.438 C 610.983 773.438 604.688 779.733 604.688 787.5 C 604.688 795.267 610.983 801.563 618.75 801.563 C 626.517 801.563 632.813 807.858 632.813 815.625 M 675 745.313 C 682.767 745.313 689.063 739.017 689.063 731.25 M 562.5 773.438 C 554.733 773.438 548.438 779.733 548.438 787.5 C 548.438 795.267 542.142 801.563 534.375 801.563 C 526.608 801.563 520.313 807.858 520.313 815.625 C 520.313 823.392 526.608 829.688 534.375 829.688 C 542.142 829.688 548.438 835.983 548.438 843.75 M 576.563 787.5 C 576.563 779.733 570.267 773.438 562.5 773.438 M 675 773.438 C 667.233 773.438 660.938 779.733 660.938 787.5 M 309.375 801.563 C 301.608 801.563 295.313 807.858 295.313 815.625 M 365.625 801.563 C 357.858 801.563 351.563 807.858 351.563 815.625 C 351.563 807.858 345.267 801.563 337.5 801.563 L 323.438 801.563 L 309.375 801.563 M 337.5 829.688 C 345.267 829.688 351.563 823.392 351.563 815.625 M 267.188 98.438 L 295.313 98.438 L 309.375 98.438 M 267.188 140.625 L 267.188 154.688 L 267.188 168.75 M 520.313 126.563 L 534.375 126.563 M 323.438 168.75 L 323.438 182.813 L 323.438 196.875 M 731.25 182.813 L 745.313 182.813 M 534.375 210.938 L 548.438 210.938 M 604.688 239.063 L 618.75 239.063 M 660.938 239.063 L 660.938 253.125 M 98.438 267.188 L 98.438 295.313 L 98.438 323.438 L 98.438 337.5 M 140.625 267.188 L 154.688 267.188 L 182.813 267.188 M 548.438 281.25 L 548.438 295.313 M 689.063 281.25 L 689.063 295.313 M 323.438 295.313 L 323.438 309.375 M 787.5 323.438 L 801.563 323.438 M 829.688 365.625 L 829.688 379.688 M 239.063 421.875 L 239.063 435.938 M 379.688 407.813 L 379.688 421.875 M 126.563 450 L 126.563 464.063 M 379.688 464.063 L 379.688 478.125 M 604.688 478.125 L 604.688 492.188 M 70.313 534.375 L 70.313 548.438 M 98.438 520.313 L 98.438 534.375 M 140.625 520.313 L 154.688 520.313 L 168.75 520.313 M 225 548.438 L 239.063 548.438 M 210.938 562.5 L 210.938 576.563 M 632.813 548.438 L 632.813 562.5 M 759.375 548.438 L 773.438 548.438 L 787.5 548.438 M 126.563 576.563 L 126.563 604.688 L 126.563 632.813 L 126.563 646.875 M 239.063 632.813 L 239.063 646.875 M 140.625 660.938 L 154.688 660.938 L 182.813 660.938 M 675 660.938 L 689.063 660.938 M 210.938 703.125 L 210.938 717.188 L 210.938 731.25 M 337.5 689.063 L 351.563 689.063 L 365.625 689.063 M 182.813 731.25 L 182.813 745.313 M 351.563 717.188 L 365.625 717.188 M 520.313 759.375 L 520.313 773.438 M 548.438 745.313 L 576.563 745.313 L 590.625 745.313 M 646.875 745.313 L 660.938 745.313 L 675 745.313 M 239.063 773.438 L 253.125 773.438 M 267.188 787.5 L 267.188 801.563 M 576.563 787.5 L 576.563 801.563 M 365.625 801.563 L 379.688 801.563 L 407.813 801.563 M 450 801.563 L 464.063 801.563 M 534.375 829.688" fill="none" stroke="#ccff00" stroke-width="4.5" stroke-linecap="round" stroke-linejoin="round"/>
</svg>