<svg xmlns="http://www.w3.org/2000/svg" width="500" height="500"><circle cx="250" cy="250" r="200"/><path fill="none" stroke="#fff" stroke-linecap="round" stroke-linejoin="round" stroke-width="2" d="M218.75 54.69a7.8 7.8 0 0 0-7.81 7.81 7.8 7.8 0 0 0-7.82-7.81m46.88 0a7.8 7.8 0 0 0-7.81 7.81m15.62 0a7.8 7.8 0 0 0-7.81-7.81m31.25 0a7.8 7.8 0 0 0-7.81 7.81m15.62 0a7.8 7.8 0 0 0-7.81-7.81 7.8 7.8 0 0 0 7.81-7.81m-54.69 23.43a7.8 7.8 0 0 0-7.8 7.82m7.8-7.82a7.8 7.8 0 0 0 7.82-7.81m15.62 0a7.8 7.8 0 0 0 7.81 7.81 7.8 7.8 0 0 0 7.82-7.81m39.06 7.81a7.8 7.8 0 0 0-7.81 7.82m-132.81 7.8a7.8 7.8 0 0 0-7.82 7.82m7.81-7.81a7.8 7.8 0 0 0 7.82-7.81m15.62 0a7.8 7.8 0 0 0 7.81 7.8 7.8 7.8 0 0 0-7.8 7.82m15.62 0a7.8 7.8 0 0 0-7.82-7.81m23.44-7.81a7.8 7.8 0 0 0 7.81 7.8m62.5 0a7.8 7.8 0 0 0 7.82-7.8m23.43 7.8a7.8 7.8 0 0 0-7.8 7.82m15.62 0a7.8 7.8 0 0 0-7.82-7.81m31.25 0a7.8 7.8 0 0 0-7.8 7.81m-226.57 7.81a7.8 7.8 0 0 0-7.81 7.82 7.8 7.8 0 0 0-7.81-7.82m31.25 0a7.8 7.8 0 0 0 7.8-7.81m46.88 15.63a7.8 7.8 0 0 0-7.81-7.82 7.8 7.8 0 0 0 7.81-7.81m15.63 0a7.8 7.8 0 0 0 7.81 7.81m23.44 7.82a7.8 7.8 0 0 0-7.82-7.82m31.25 0a7.8 7.8 0 0 0-7.8 7.82m23.43-7.82a7.8 7.8 0 0 0-7.81 7.82 7.8 7.8 0 0 0-7.82-7.82m117.2-7.81a7.8 7.8 0 0 0 7.8 7.81m-15.62 0a7.8 7.8 0 0 0 7.81-7.81m-273.43 23.44a7.8 7.8 0 0 0 7.8-7.81m23.44 7.8a7.8 7.8 0 0 0-7.8 7.82m15.62 0a7.8 7.8 0 0 0-7.82-7.81m23.44-7.81a7.8 7.8 0 0 0 7.81 7.8m7.82 7.82a7.8 7.8 0 0 0-7.82-7.81m23.44-7.81a7.8 7.8 0 0 0 7.81 7.8m23.44 7.82a7.8 7.8 0 0 0-7.81-7.81m23.44-7.81a7.8 7.8 0 0 0 7.81 7.8 7.8 7.8 0 0 0 7.81-7.8m15.63 0a7.8 7.8 0 0 0 7.81 7.8m7.81 7.82a7.8 7.8 0 0 0-7.81-7.81m31.25 0a7.8 7.8 0 0 0-7.81 7.81m7.81-7.81a7.8 7.8 0 0 0 7.81-7.81m31.25 0a7.8 7.8 0 0 0 7.81 7.8m7.82 7.82a7.8 7.8 0 0 0-7.82-7.81m31.25 0a7.8 7.8 0 0 0-7.8 7.81m15.62 0a7.8 7.8 0 0 0-7.82-7.81m-289.06 23.44a7.8 7.8 0 0 0-7.81-7.82m31.25 0a7.8 7.8 0 0 0-7.81 7.81m7.81-7.8a7.8 7.8 0 0 0 7.81-7.82m15.63 0a7.8 7.8 0 0 0 7.81 7.81m15.63 0a7.8 7.8 0 0 0 7.8-7.81m31.26 15.62a7.8 7.8 0 0 0-7.82-7.8m46.88 0a7.8 7.8 0 0 0-7.81 7.8m31.25 0a7.8 7.8 0 0 0-7.82-7.8m23.44-7.82a7.8 7.8 0 0 0 7.81 7.81 7.8 7.8 0 0 0 7.82-7.81m23.43 7.81a7.8 7.8 0 0 0-7.8 7.81m15.62-15.62a7.8 7.8 0 0 0 7.81 7.81m-15.62 0a7.8 7.8 0 0 0 7.8-7.81m15.63 15.62a7.8 7.8 0 0 0-7.81-7.8m-257.81 23.43a7.8 7.8 0 0 0-7.82-7.81m39.07-7.82a7.8 7.8 0 0 0 7.81 7.82m7.81 7.81a7.8 7.8 0 0 0-7.81-7.81m31.25 0a7.8 7.8 0 0 0-7.81 7.81m46.87 0a7.8 7.8 0 0 0-7.81-7.81m23.44-7.82a7.8 7.8 0 0 0 7.81 7.82m7.81-7.82a7.8 7.8 0 0 0 7.81 7.82m-15.62 0a7.8 7.8 0 0 0 7.81-7.82m7.81 7.82a7.8 7.8 0 0 0 7.82-7.82m23.43 7.82a7.8 7.8 0 0 0 7.82-7.82m23.43 7.82a7.8 7.8 0 0 0-7.8 7.81m23.43-7.81a7.8 7.8 0 0 0 7.81-7.82m23.44 7.82a7.8 7.8 0 0 0-7.81 7.81m7.81-7.81a7.8 7.8 0 0 0 7.81-7.82m15.63 0a7.8 7.8 0 0 0 7.81 7.82 7.8 7.8 0 0 0 7.81-7.82m15.63 0a7.8 7.8 0 0 0 7.81 7.82m-335.94 23.44a7.8 7.8 0 0 0-7.81-7.82m39.06-7.81a7.8 7.8 0 0 0 7.81 7.81m15.63 0a7.8 7.8 0 0 0 7.81-7.81m15.63 0a7.8 7.8 0 0 0 7.81 7.81m7.81 7.81a7.8 7.8 0 0 0-7.81-7.8m31.25 0a7.8 7.8 0 0 0-7.81 7.8m7.81-7.8a7.8 7.8 0 0 0 7.81-7.82m23.44 7.81a7.8 7.8 0 0 0-7.81 7.81m70.31-7.8a7.8 7.8 0 0 0 7.81-7.82m23.44 7.81a7.8 7.8 0 0 0-7.81 7.81m15.62 0a7.8 7.8 0 0 0-7.81-7.8m46.88 0a7.8 7.8 0 0 0-7.82 7.8m62.5 0a7.8 7.8 0 0 0-7.81-7.8m23.44-7.82a7.8 7.8 0 0 0 7.81 7.81m-367.19 7.81a7.8 7.8 0 0 0 7.81 7.82 7.8 7.8 0 0 0 7.82-7.82m39.06 7.82a7.8 7.8 0 0 0-7.81 7.81 7.8 7.8 0 0 0-7.81-7.81m46.87 0a7.8 7.8 0 0 0 7.81-7.82m15.63 0a7.8 7.8 0 0 0 7.81 7.82m7.81 7.81a7.8 7.8 0 0 0-7.81-7.81m23.44-7.82a7.8 7.8 0 0 0 7.81 7.82m31.25 0a7.8 7.8 0 0 0-7.81 7.81 7.8 7.8 0 0 0-7.82-7.81m54.7 7.81a7.8 7.8 0 0 0-7.82-7.81m54.69-7.82a7.8 7.8 0 0 0 7.81 7.82 7.8 7.8 0 0 0 7.81-7.82m23.44 7.82a7.8 7.8 0 0 0-7.81 7.81m23.43-7.81a7.8 7.8 0 0 0-7.8 7.81 7.8 7.8 0 0 0-7.82-7.81m39.06-7.82a7.8 7.8 0 0 0 7.81 7.82m7.82 7.81a7.8 7.8 0 0 0-7.82-7.81m-320.3 23.43a7.8 7.8 0 0 0-7.82-7.8m101.56-7.82a7.8 7.8 0 0 0 7.81 7.81m-15.62 0a7.8 7.8 0 0 0 7.81-7.81m31.25 15.63a7.8 7.8 0 0 0-7.81-7.82m46.88 0a7.8 7.8 0 0 0-7.82 7.81m23.44-7.8a7.8 7.8 0 0 0 7.81-7.82m31.25 0a7.8 7.8 0 0 0 7.81 7.81m31.25 0a7.8 7.8 0 0 0 7.82-7.81m15.62 0a7.8 7.8 0 0 0 7.81 7.81m23.44 7.81a7.8 7.8 0 0 0-7.81-7.8m-351.56 23.43a7.8 7.8 0 0 0-7.82-7.81m31.25 0a7.8 7.8 0 0 0-7.8 7.81m15.62 0a7.8 7.8 0 0 0-7.82-7.81m39.07-7.82a7.8 7.8 0 0 0 7.81 7.82m46.87 0a7.8 7.8 0 0 0-7.8 7.81 7.8 7.8 0 0 0-7.82-7.81m54.69 7.81a7.8 7.8 0 0 0-7.82-7.81m93.76 0a7.8 7.8 0 0 0-7.82 7.81m7.81-7.81a7.8 7.8 0 0 0 7.82-7.82m46.87 15.63a7.8 7.8 0 0 0-7.81-7.81m31.25 0a7.8 7.8 0 0 0-7.81 7.81m31.25 0a7.8 7.8 0 0 0-7.82-7.81m23.44-7.82a7.8 7.8 0 0 0 7.81 7.82 7.8 7.8 0 0 0 7.82-7.82m-343.75 15.63a7.8 7.8 0 0 0 7.81 7.81 7.8 7.8 0 0 0 7.81-7.81m23.44 7.81a7.8 7.8 0 0 0-7.81 7.81m31.25 0a7.8 7.8 0 0 0-7.82-7.8m46.88 0a7.8 7.8 0 0 0-7.81 7.8m15.62 0a7.8 7.8 0 0 0-7.81-7.8m39.06-7.82a7.8 7.8 0 0 0 7.81 7.81m7.82 7.81a7.8 7.8 0 0 0-7.82-7.8m54.7-7.82a7.8 7.8 0 0 0 7.8 7.81m39.07 7.81a7.8 7.8 0 0 0-7.82-7.8m70.32-7.82a7.8 7.8 0 0 0 7.81 7.81m-15.62 0a7.8 7.8 0 0 0 7.8-7.81m39.07 7.81a7.8 7.8 0 0 0 7.81-7.81m-390.62 15.63a7.8 7.8 0 0 0 7.81 7.8 7.8 7.8 0 0 0 7.81-7.8m39.06 7.8a7.8 7.8 0 0 0-7.8 7.82 7.8 7.8 0 0 0-7.82-7.81m15.62 0a7.8 7.8 0 0 0 7.82-7.82m46.87 0a7.8 7.8 0 0 0 7.81 7.82 7.8 7.8 0 0 0 7.82-7.82m62.5 0a7.8 7.8 0 0 0 7.81 7.82 7.8 7.8 0 0 0-7.81 7.81m7.81-7.81a7.8 7.8 0 0 0 7.81-7.82m15.63 0a7.8 7.8 0 0 0 7.81 7.82m31.25 0a7.8 7.8 0 0 0-7.81 7.81 7.8 7.8 0 0 0-7.82-7.81m39.07-7.82a7.8 7.8 0 0 0 7.81 7.82m-15.62 0a7.8 7.8 0 0 0 7.8-7.82m7.82 7.82a7.8 7.8 0 0 0 7.81-7.82m39.06 7.82a7.8 7.8 0 0 0-7.8 7.81m31.24 0a7.8 7.8 0 0 0-7.81-7.81m31.25 0a7.8 7.8 0 0 0-7.81 7.81m15.62 0a7.8 7.8 0 0 0-7.81-7.81m-375 15.62a7.8 7.8 0 0 0-7.81 7.81m23.44-7.8a7.8 7.8 0 0 0-7.82 7.8 7.8 7.8 0 0 0-7.81-7.8m31.25 0a7.8 7.8 0 0 0 7.81-7.82m31.25 0a7.8 7.8 0 0 0 7.81 7.81m-15.62 0a7.8 7.8 0 0 0 7.81-7.81m15.63 0a7.8 7.8 0 0 0 7.81 7.81m-15.62 0a7.8 7.8 0 0 0 7.8-7.81m62.5 15.63a7.8 7.8 0 0 0-7.8-7.82 7.8 7.8 0 0 0 7.8-7.81m15.63 0a7.8 7.8 0 0 0 7.81 7.81 7.8 7.8 0 0 0 7.82-7.81m39.06 7.81a7.8 7.8 0 0 0-7.81 7.81m15.62 0a7.8 7.8 0 0 0-7.81-7.8m23.44-7.82a7.8 7.8 0 0 0 7.81 7.81m31.25 0a7.8 7.8 0 0 0-7.81 7.81m15.62 0a7.8 7.8 0 0 0-7.81-7.8m39.06-7.82a7.8 7.8 0 0 0 7.81 7.81m7.82 7.81a7.8 7.8 0 0 0-7.82-7.8m-320.3 7.8a7.8 7.8 0 0 0 7.8 7.82m15.63 0a7.8 7.8 0 0 0-7.81 7.81 7.8 7.8 0 0 0-7.82-7.81m62.5 0a7.8 7.8 0 0 0-7.8 7.81 7.8 7.8 0 0 0-7.82-7.81m23.44 7.81a7.8 7.8 0 0 0-7.82-7.81m31.25 0a7.8 7.8 0 0 0-7.8 7.81m15.62 0a7.8 7.8 0 0 0-7.82-7.81m31.25 0a7.8 7.8 0 0 0 7.82-7.82m23.43 7.82a7.8 7.8 0 0 0-7.8 7.81m15.62 0a7.8 7.8 0 0 0-7.82-7.81m23.44-7.82a7.8 7.8 0 0 0 7.81 7.82 7.8 7.8 0 0 0 7.82-7.82m15.62 0a7.8 7.8 0 0 0 7.81 7.82m31.25 0a7.8 7.8 0 0 0 7.82-7.82m31.25 0a7.8 7.8 0 0 0 7.81 7.82m15.63 0a7.8 7.8 0 0 0-7.82 7.81 7.8 7.8 0 0 0-7.81-7.81m15.63 0a7.8 7.8 0 0 0 7.8-7.82m-335.93 23.44a7.8 7.8 0 0 0-7.81 7.81 7.8 7.8 0 0 0-7.81-7.8m23.43 7.8a7.8 7.8 0 0 0-7.81-7.8m46.88 0a7.8 7.8 0 0 0-7.82 7.8m15.63 0a7.8 7.8 0 0 0-7.81-7.8m93.75 0a7.8 7.8 0 0 0-7.82 7.8m23.44-7.8a7.8 7.8 0 0 0 7.81-7.82m15.63 0a7.8 7.8 0 0 0 7.81 7.81m7.81 7.81a7.8 7.8 0 0 0-7.81-7.8m31.25 0a7.8 7.8 0 0 0-7.81 7.8m39.06-7.8a7.8 7.8 0 0 0-7.81 7.8 7.8 7.8 0 0 0-7.82-7.8m54.7-7.82a7.8 7.8 0 0 0 7.8 7.81m7.82 7.81a7.8 7.8 0 0 0-7.82-7.8m46.88 0a7.8 7.8 0 0 0-7.81 7.8m7.81-7.8a7.8 7.8 0 0 0 7.81-7.82m23.44 7.81a7.8 7.8 0 0 0-7.81 7.81m7.81-7.8a7.8 7.8 0 0 0 7.81-7.82m-265.62 15.63a7.8 7.8 0 0 0 7.81 7.8 7.8 7.8 0 0 0 7.81-7.8m23.44 7.8a7.8 7.8 0 0 0-7.81 7.82m23.43-7.81a7.8 7.8 0 0 0-7.8 7.81 7.8 7.8 0 0 0-7.82-7.81m39.06-7.82a7.8 7.8 0 0 0 7.81 7.82 7.8 7.8 0 0 0 7.82-7.82m31.25 0a7.8 7.8 0 0 0 7.81 7.82m46.88 0a7.8 7.8 0 0 0 7.8-7.82m31.26 0a7.8 7.8 0 0 0 7.81 7.82m7.81 7.81a7.8 7.8 0 0 0-7.81-7.81m-335.94 7.81a7.8 7.8 0 0 0 7.81 7.81m7.82 7.81a7.8 7.8 0 0 0-7.82-7.8m62.5 0a7.8 7.8 0 0 0-7.8 7.8m15.62 0a7.8 7.8 0 0 0-7.82-7.8 7.8 7.8 0 0 0 7.82-7.82m15.62 0a7.8 7.8 0 0 0 7.81 7.81m7.82 7.81a7.8 7.8 0 0 0-7.82-7.8m31.25 0a7.8 7.8 0 0 0-7.8 7.8m7.8-7.8a7.8 7.8 0 0 0 7.82-7.82m39.06 7.81a7.8 7.8 0 0 0-7.81 7.81m39.06-7.8a7.8 7.8 0 0 0-7.81 7.8 7.8 7.8 0 0 0-7.82-7.8m23.44 7.8a7.8 7.8 0 0 0-7.81-7.8 7.8 7.8 0 0 0 7.81-7.82m23.44 7.81a7.8 7.8 0 0 0-7.81 7.81m54.68-7.8a7.8 7.8 0 0 0-7.8 7.8 7.8 7.8 0 0 0-7.82-7.8m62.5 0a7.8 7.8 0 0 0 7.81-7.82m15.63 0a7.8 7.8 0 0 0 7.81 7.81 7.8 7.8 0 0 0-7.81 7.81m-359.38 15.63a7.8 7.8 0 0 0-7.81-7.81m23.44-7.82a7.8 7.8 0 0 0 7.81 7.82 7.8 7.8 0 0 0 7.81-7.82m46.88 0a7.8 7.8 0 0 0 7.81 7.82m62.5 0a7.8 7.8 0 0 0-7.81 7.81m31.25-15.62a7.8 7.8 0 0 0 7.81 7.8m-15.62 0a7.8 7.8 0 0 0 7.8-7.8m62.5 0a7.8 7.8 0 0 0 7.82 7.8m23.44 7.82a7.8 7.8 0 0 0-7.82-7.81m46.88 0a7.8 7.8 0 0 0-7.81 7.81m15.62 0a7.8 7.8 0 0 0-7.81-7.81m31.25 0a7.8 7.8 0 0 0-7.81 7.81m-289.06 7.81a7.8 7.8 0 0 0-7.82 7.81m15.63-15.62a7.8 7.8 0 0 0 7.81 7.81m-15.62 0a7.8 7.8 0 0 0 7.8-7.81m7.82 7.81a7.8 7.8 0 0 0 7.81-7.81m23.44 7.81a7.8 7.8 0 0 0-7.81 7.81m23.43-7.8a7.8 7.8 0 0 0 7.82-7.82m15.62 0a7.8 7.8 0 0 0 7.81 7.81 7.8 7.8 0 0 0-7.8 7.81m7.8-7.8a7.8 7.8 0 0 0 7.82-7.82m39.06 7.81a7.8 7.8 0 0 0-7.81 7.81m15.62 0a7.8 7.8 0 0 0-7.81-7.8m39.06-7.82a7.8 7.8 0 0 0 7.81 7.81m23.44 7.81a7.8 7.8 0 0 0-7.81-7.8m23.44-7.82a7.8 7.8 0 0 0 7.81 7.81 7.8 7.8 0 0 0-7.81 7.81m23.43-7.8a7.8 7.8 0 0 0 7.82-7.82m31.25 0a7.8 7.8 0 0 0 7.81 7.81 7.8 7.8 0 0 0-7.81 7.81m-273.44 7.82a7.8 7.8 0 0 0-7.81 7.81m23.44-7.81a7.8 7.8 0 0 0 7.8-7.82m23.44 7.82a7.8 7.8 0 0 0-7.8 7.81m23.43-7.81a7.8 7.8 0 0 0 7.81-7.82m23.44 7.82a7.8 7.8 0 0 0-7.81 7.81m7.81-7.81a7.8 7.8 0 0 0 7.81-7.82m31.25 0a7.8 7.8 0 0 0 7.81 7.82 7.8 7.8 0 0 0 7.82-7.82m39.06 7.82a7.8 7.8 0 0 0-7.81 7.81m7.81-7.81a7.8 7.8 0 0 0 7.81-7.82m15.63 0a7.8 7.8 0 0 0 7.81 7.82m7.81 7.81a7.8 7.8 0 0 0-7.81-7.81m54.69-7.82a7.8 7.8 0 0 0 7.81 7.82m-289.06 7.81a7.8 7.8 0 0 0 7.81 7.81m23.44 7.81a7.8 7.8 0 0 0-7.82-7.8m23.44-7.82a7.8 7.8 0 0 0 7.81 7.81m39.07 7.81a7.8 7.8 0 0 0-7.82-7.8 7.8 7.8 0 0 0 7.82-7.82m23.43 7.81a7.8 7.8 0 0 0-7.8 7.81m7.8-7.8a7.8 7.8 0 0 0 7.82-7.82m23.43 7.81a7.8 7.8 0 0 0-7.8 7.81m23.43-7.8a7.8 7.8 0 0 0 7.81-7.82m39.06 7.81a7.8 7.8 0 0 0-7.8 7.81m31.24-15.62a7.8 7.8 0 0 0 7.81 7.81m-15.62 0a7.8 7.8 0 0 0 7.81-7.81m7.81 7.81a7.8 7.8 0 0 0 7.82-7.81m-234.38 31.25a7.8 7.8 0 0 0-7.81-7.81m23.44-7.82a7.8 7.8 0 0 0 7.81 7.82m39.06 7.81a7.8 7.8 0 0 0-7.81-7.81m39.06-7.82a7.8 7.8 0 0 0 7.81 7.82m7.82 7.81a7.8 7.8 0 0 0-7.82-7.81m23.44-7.82a7.8 7.8 0 0 0 7.81 7.82 7.8 7.8 0 0 0-7.8 7.81m31.24 0a7.8 7.8 0 0 0-7.81-7.81m39.06-7.82a7.8 7.8 0 0 0 7.81 7.82m31.25 0a7.8 7.8 0 0 0-7.8 7.81m15.62 0a7.8 7.8 0 0 0-7.82-7.81m-203.12 15.62a7.8 7.8 0 0 0-7.81 7.81m31.25 0a7.8 7.8 0 0 0-7.82-7.8m23.44-7.82a7.8 7.8 0 0 0 7.81 7.81m23.44 7.81a7.8 7.8 0 0 0-7.81-7.8m39.06-7.82a7.8 7.8 0 0 0 7.81 7.81m23.44-7.81a7.8 7.8 0 0 0 7.81 7.81m7.82-7.81a7.8 7.8 0 0 0 7.81 7.81m-15.62 0a7.8 7.8 0 0 0 7.8-7.81m15.63 15.63a7.8 7.8 0 0 0-7.81-7.82m31.25 0a7.8 7.8 0 0 0-7.81 7.81m7.81-7.8a7.8 7.8 0 0 0 7.81-7.82m-187.5 31.25a7.8 7.8 0 0 0-7.81-7.81m23.44-7.82a7.8 7.8 0 0 0 7.81 7.82 7.8 7.8 0 0 0-7.81 7.81m85.93-7.81a7.8 7.8 0 0 0-7.8 7.81m31.24 0a7.8 7.8 0 0 0-7.81-7.81m39.06-7.82a7.8 7.8 0 0 0 7.81 7.82 7.8 7.8 0 0 0 7.82-7.82m-125 31.25a7.8 7.8 0 0 0-7.82-7.8m39.07-7.82a7.8 7.8 0 0 0 7.81 7.81m7.81-7.81a7.8 7.8 0 0 0 7.81 7.81m-15.62 0a7.8 7.8 0 0 0 7.81-7.81m15.63 15.63a7.8 7.8 0 0 0-7.82-7.82m-46.87-390.62h7.81m-15.62 7.81v7.81m78.12-7.81v7.81m-109.37 0v7.82m15.62-7.82v7.82m117.19-7.82h7.81m0 0h15.63m-187.5 15.63v7.81m15.62 0v7.81m70.31-15.62h62.5m23.44 7.81v7.81m15.63-7.81v7.81m15.62-7.81v7.81m-226.56 0h7.81m0 0h7.81m23.44 0v7.82m15.63-7.82h7.81m31.25 0h15.62m46.88 0h7.81m0 0h15.63m15.62 0v7.82m15.63-7.82v15.63m15.62-15.63v7.82m15.63-7.82h7.81m-273.44 15.63h7.81m93.75 0h15.63m7.81 7.81v7.81m109.38-15.62v7.81m31.25 0v7.81m15.62-7.81v7.81m15.63-7.81v7.81m-296.88 7.81v7.82m54.69-15.63h15.63m23.43 0h7.81m23.44 0v7.81m23.44-7.8h7.81m0 0h7.81m101.57 0v7.8m15.62-7.8v7.8m15.63-7.8v7.8m-312.5 15.63v7.81m15.62-15.62v7.81m54.69-7.81h7.81m0 0h23.44m70.31 0h7.81m31.25 0h7.82m0 0h7.81m23.44 7.81v7.81m70.31-15.62h7.81m-328.12 15.62v7.81m23.44-7.8h15.62m93.75 0h7.81m0 0h54.69m23.44 7.8v7.82m15.62-7.82v7.82m15.63-15.63v7.81m23.43-7.8h7.82m0 0h39.06m-304.69 15.62h7.81m15.63 0h7.81m-15.62 7.81v7.81m15.62-15.62h23.44m62.5 0h15.62m15.63 0h7.81m-15.62 7.81v7.81m15.62-15.62h23.44m23.44 0v15.62m15.62-15.62v7.81m70.31-7.81h7.82m31.25 7.81v7.81m-359.38 0h23.44m7.81 7.81v7.82m15.63-15.63v7.81m15.62-7.8h54.69m15.63 0h15.62m7.81 7.8v7.82m15.63-15.63v15.63m23.43-15.63h7.82m-15.63 7.81v7.82m15.63-15.63h7.81m23.44 0v7.81m23.43-7.8h31.25m31.25 0h15.63m23.44 0v7.8m-375 15.63v7.81m15.62-7.81v7.81m31.25-15.62v7.81m23.44-7.81h31.25m15.63 0h7.8m-15.62 7.81v7.81m15.63-15.62h23.43m7.82 7.81v7.81m15.62-15.62v7.81m31.25-7.81v15.62m15.63-15.62v15.62m46.87-15.62h23.44m7.81 7.81v7.81m23.44-15.62h7.81m-15.62 7.81v7.81m15.62-15.62h7.81m54.7 0v7.81m-390.63 7.81v7.81m15.62-7.8v7.8m54.69-7.8h7.81m0 0h7.81m7.82 7.8v7.82m15.62-15.63v7.81m31.25 0v7.82m15.63-15.63v15.63m46.87-15.63v7.81m15.63-7.8v7.8m23.43-7.8h31.25m23.44 0v7.8m15.63-7.8v15.62m15.62-15.63h7.81m15.63 0h31.25m-351.56 15.63h7.81m39.06 0v7.81m15.63-7.81v7.81m62.5-7.81v7.81m15.62-7.81v7.81m54.69-7.81h15.63m15.62 0h7.81m0 0h7.81m39.07 0v15.62m23.43-15.62h7.82m0 0h7.81m7.81 7.81v7.81m15.63-7.81v7.81m15.62-7.81v7.81m-390.62 7.81v7.82m23.43-15.63h7.82m0 0h7.81m23.44 0h7.81m31.25 0h46.88m54.68 0v7.81m54.69-7.8h7.81m31.25 7.8v7.82m15.63-15.63v7.81m46.87-7.8v15.62m15.63-15.63v15.63m15.62-15.63v15.63m-351.56 0h7.81m-15.62 7.81v7.81m15.62-15.62h23.44m7.81 7.81v7.81m15.63-7.81v7.81m15.62-7.81v7.81m15.63-7.81v7.81m15.62-15.62h7.81m93.76 0h31.25m23.43 0v7.81m31.25 0v7.81m31.25-15.62v7.81m31.25-7.81v7.81m-375 15.63v7.8m15.63-15.62v15.63m15.62-7.82v7.82m15.63-7.82v7.82m15.62-15.63v15.63m15.63-15.63v15.63m15.62-15.63v15.63m15.63-15.63v7.81m23.43-7.8h7.82m0 0h7.81m62.5 0h7.81m0 0h7.81m15.63 0h7.81m0 0h15.63m46.87 0v15.62m46.88-7.82v7.82m-359.38 0v7.81m31.25-7.81v15.62m15.63-15.62v15.62m31.25-15.62v7.81m15.62-7.81v7.81m70.31-7.81h7.82m-15.63 7.81v7.81m62.5-15.62v7.81m23.44-7.81h46.88m70.3 0v7.81m-328.12 7.81v7.81m15.63-7.8v15.62m15.62-7.82v7.82m46.88-7.82v7.82m15.62-7.82v7.82m54.69-15.63h7.81m0 0h7.81m7.82 7.81v7.82m15.62-7.82v7.82m23.44-15.63h7.81m0 0h23.44m15.63 0h7.8m-15.62 7.81v7.82m15.63-15.63h39.06m23.44 7.81v7.82m-312.5 0v7.81m15.62-7.81v7.81m23.44-7.81h7.81m15.63 0v7.81m15.62-7.81v7.81m23.44-7.81h7.81m0 0h7.81m15.63 0h7.81m15.63 0v15.62m15.62-15.62v7.81m23.44-7.81h15.63m54.68 7.81v7.81m23.44-15.62h7.81m-312.5 23.43v7.82m54.69-15.63h7.81m0 0h7.81m54.7 0v7.81m15.62 0v7.82m31.25-15.63v7.81m23.43-7.8h15.63m31.25 0h7.81m0 0h7.81m23.44 0v15.62m23.44-15.63h7.81m-312.5 15.63v15.62m23.44-15.62h7.81m0 0h7.81m31.25 0h7.82m0 0h7.81m54.69 0v7.81m46.87-7.81v7.81m15.63 0v7.81m62.5-15.62v7.81m15.62-7.81v15.62m-257.81 0h15.63m31.25 0h31.25m7.8 7.81v7.82m54.7-15.63h7.8m0 0h7.82m23.44 0v15.63m23.43-15.63h7.82m0 0h7.81m39.06 0v15.63m-265.62 0h7.81m31.25 0h31.25m54.69 7.81v7.81m23.43-15.62h7.82m0 0h7.81m23.44 0v7.81m23.43-7.81h7.82m-179.69 15.62h15.63m31.25 0h15.62m7.81 7.81v7.82m15.63-15.63v15.63m23.43-15.63h7.82m-85.94 15.63h23.44m15.62 0v15.62m15.63-15.62v7.81m23.43-7.81h7.82m0 0h7.81m7.81 7.81v7.81m-23.44 0"/></svg>