<svg width="500" height="500" xmlns="http://www.w3.org/2000/svg">
    <circle
        cx="250"
        cy="250"
        r="200"
        fill="#000000"
        stroke="none"
    />
    <path
        d="M 218.75 54.6875 A 7.8125 7.8125 0 0 0 210.9375 62.5 A 7.8125 7.8125 0 0 0 203.125 54.6875 M 250 54.6875 A 7.8125 7.8125 0 0 0 242.1875 62.5 M 257.8125 62.5 A 7.8125 7.8125 0 0 0 250 54.6875 M 281.25 54.6875 A 7.8125 7.8125 0 0 0 273.4375 62.5 M 289.0625 62.5 A 7.8125 7.8125 0 0 0 281.25 54.6875 A 7.8125 7.8125 0 0 0 289.0625 46.875 M 234.375 70.3125 A 7.8125 7.8125 0 0 0 226.5625 78.125 M 234.375 70.3125 A 7.8125 7.8125 0 0 0 242.1875 62.5 M 257.8125 62.5 A 7.8125 7.8125 0 0 0 265.625 70.3125 A 7.8125 7.8125 0 0 0 273.4375 62.5 M 312.5 70.3125 A 7.8125 7.8125 0 0 0 304.6875 78.125 M 171.875 85.9375 A 7.8125 7.8125 0 0 0 164.0625 93.75 M 171.875 85.9375 A 7.8125 7.8125 0 0 0 179.6875 78.125 M 195.3125 78.125 A 7.8125 7.8125 0 0 0 203.125 85.9375 A 7.8125 7.8125 0 0 0 195.3125 93.75 M 210.9375 93.75 A 7.8125 7.8125 0 0 0 203.125 85.9375 M 226.5625 78.125 A 7.8125 7.8125 0 0 0 234.375 85.9375 M 296.875 85.9375 A 7.8125 7.8125 0 0 0 304.6875 78.125 M 328.125 85.9375 A 7.8125 7.8125 0 0 0 320.3125 93.75 M 335.9375 93.75 A 7.8125 7.8125 0 0 0 328.125 85.9375 M 359.375 85.9375 A 7.8125 7.8125 0 0 0 351.5625 93.75 M 125 101.5625 A 7.8125 7.8125 0 0 0 117.1875 109.375 A 7.8125 7.8125 0 0 0 109.375 101.5625 M 140.625 101.5625 A 7.8125 7.8125 0 0 0 148.4375 93.75 M 195.3125 109.375 A 7.8125 7.8125 0 0 0 187.5 101.5625 A 7.8125 7.8125 0 0 0 195.3125 93.75 M 210.9375 93.75 A 7.8125 7.8125 0 0 0 218.75 101.5625 M 242.1875 109.375 A 7.8125 7.8125 0 0 0 234.375 101.5625 M 265.625 101.5625 A 7.8125 7.8125 0 0 0 257.8125 109.375 M 281.25 101.5625 A 7.8125 7.8125 0 0 0 273.4375 109.375 A 7.8125 7.8125 0 0 0 265.625 101.5625 M 382.8125 93.75 A 7.8125 7.8125 0 0 0 390.625 101.5625 M 375 101.5625 A 7.8125 7.8125 0 0 0 382.8125 93.75 M 109.375 117.1875 A 7.8125 7.8125 0 0 0 117.1875 109.375 M 140.625 117.1875 A 7.8125 7.8125 0 0 0 132.8125 125 M 148.4375 125 A 7.8125 7.8125 0 0 0 140.625 117.1875 M 164.0625 109.375 A 7.8125 7.8125 0 0 0 171.875 117.1875 M 179.6875 125 A 7.8125 7.8125 0 0 0 171.875 117.1875 M 195.3125 109.375 A 7.8125 7.8125 0 0 0 203.125 117.1875 M 226.5625 125 A 7.8125 7.8125 0 0 0 218.75 117.1875 M 242.1875 109.375 A 7.8125 7.8125 0 0 0 250 117.1875 A 7.8125 7.8125 0 0 0 257.8125 109.375 M 273.4375 109.375 A 7.8125 7.8125 0 0 0 281.25 117.1875 M 289.0625 125 A 7.8125 7.8125 0 0 0 281.25 117.1875 M 312.5 117.1875 A 7.8125 7.8125 0 0 0 304.6875 125 M 312.5 117.1875 A 7.8125 7.8125 0 0 0 320.3125 109.375 M 351.5625 109.375 A 7.8125 7.8125 0 0 0 359.375 117.1875 M 367.1875 125 A 7.8125 7.8125 0 0 0 359.375 117.1875 M 390.625 117.1875 A 7.8125 7.8125 0 0 0 382.8125 125 M 398.4375 125 A 7.8125 7.8125 0 0 0 390.625 117.1875 M 101.5625 140.625 A 7.8125 7.8125 0 0 0 93.75 132.8125 M 125 132.8125 A 7.8125 7.8125 0 0 0 117.1875 140.625 M 125 132.8125 A 7.8125 7.8125 0 0 0 132.8125 125 M 148.4375 125 A 7.8125 7.8125 0 0 0 156.25 132.8125 M 171.875 132.8125 A 7.8125 7.8125 0 0 0 179.6875 125 M 210.9375 140.625 A 7.8125 7.8125 0 0 0 203.125 132.8125 M 250 132.8125 A 7.8125 7.8125 0 0 0 242.1875 140.625 M 273.4375 140.625 A 7.8125 7.8125 0 0 0 265.625 132.8125 M 289.0625 125 A 7.8125 7.8125 0 0 0 296.875 132.8125 A 7.8125 7.8125 0 0 0 304.6875 125 M 328.125 132.8125 A 7.8125 7.8125 0 0 0 320.3125 140.625 M 335.9375 125 A 7.8125 7.8125 0 0 0 343.75 132.8125 M 328.125 132.8125 A 7.8125 7.8125 0 0 0 335.9375 125 M 351.5625 140.625 A 7.8125 7.8125 0 0 0 343.75 132.8125 M 85.9375 156.25 A 7.8125 7.8125 0 0 0 78.125 148.4375 M 117.1875 140.625 A 7.8125 7.8125 0 0 0 125 148.4375 M 132.8125 156.25 A 7.8125 7.8125 0 0 0 125 148.4375 M 156.25 148.4375 A 7.8125 7.8125 0 0 0 148.4375 156.25 M 195.3125 156.25 A 7.8125 7.8125 0 0 0 187.5 148.4375 M 210.9375 140.625 A 7.8125 7.8125 0 0 0 218.75 148.4375 M 226.5625 140.625 A 7.8125 7.8125 0 0 0 234.375 148.4375 M 218.75 148.4375 A 7.8125 7.8125 0 0 0 226.5625 140.625 M 234.375 148.4375 A 7.8125 7.8125 0 0 0 242.1875 140.625 M 265.625 148.4375 A 7.8125 7.8125 0 0 0 273.4375 140.625 M 296.875 148.4375 A 7.8125 7.8125 0 0 0 289.0625 156.25 M 312.5 148.4375 A 7.8125 7.8125 0 0 0 320.3125 140.625 M 343.75 148.4375 A 7.8125 7.8125 0 0 0 335.9375 156.25 M 343.75 148.4375 A 7.8125 7.8125 0 0 0 351.5625 140.625 M 367.1875 140.625 A 7.8125 7.8125 0 0 0 375 148.4375 A 7.8125 7.8125 0 0 0 382.8125 140.625 M 398.4375 140.625 A 7.8125 7.8125 0 0 0 406.25 148.4375 M 70.3125 171.875 A 7.8125 7.8125 0 0 0 62.5 164.0625 M 101.5625 156.25 A 7.8125 7.8125 0 0 0 109.375 164.0625 M 125 164.0625 A 7.8125 7.8125 0 0 0 132.8125 156.25 M 148.4375 156.25 A 7.8125 7.8125 0 0 0 156.25 164.0625 M 164.0625 171.875 A 7.8125 7.8125 0 0 0 156.25 164.0625 M 187.5 164.0625 A 7.8125 7.8125 0 0 0 179.6875 171.875 M 187.5 164.0625 A 7.8125 7.8125 0 0 0 195.3125 156.25 M 218.75 164.0625 A 7.8125 7.8125 0 0 0 210.9375 171.875 M 281.25 164.0625 A 7.8125 7.8125 0 0 0 289.0625 156.25 M 312.5 164.0625 A 7.8125 7.8125 0 0 0 304.6875 171.875 M 320.3125 171.875 A 7.8125 7.8125 0 0 0 312.5 164.0625 M 359.375 164.0625 A 7.8125 7.8125 0 0 0 351.5625 171.875 M 414.0625 171.875 A 7.8125 7.8125 0 0 0 406.25 164.0625 M 429.6875 156.25 A 7.8125 7.8125 0 0 0 437.5 164.0625 M 70.3125 171.875 A 7.8125 7.8125 0 0 0 78.125 179.6875 A 7.8125 7.8125 0 0 0 85.9375 171.875 M 125 179.6875 A 7.8125 7.8125 0 0 0 117.1875 187.5 A 7.8125 7.8125 0 0 0 109.375 179.6875 M 156.25 179.6875 A 7.8125 7.8125 0 0 0 164.0625 171.875 M 179.6875 171.875 A 7.8125 7.8125 0 0 0 187.5 179.6875 M 195.3125 187.5 A 7.8125 7.8125 0 0 0 187.5 179.6875 M 210.9375 171.875 A 7.8125 7.8125 0 0 0 218.75 179.6875 M 250 179.6875 A 7.8125 7.8125 0 0 0 242.1875 187.5 A 7.8125 7.8125 0 0 0 234.375 179.6875 M 289.0625 187.5 A 7.8125 7.8125 0 0 0 281.25 179.6875 M 335.9375 171.875 A 7.8125 7.8125 0 0 0 343.75 179.6875 A 7.8125 7.8125 0 0 0 351.5625 171.875 M 375 179.6875 A 7.8125 7.8125 0 0 0 367.1875 187.5 M 390.625 179.6875 A 7.8125 7.8125 0 0 0 382.8125 187.5 A 7.8125 7.8125 0 0 0 375 179.6875 M 414.0625 171.875 A 7.8125 7.8125 0 0 0 421.875 179.6875 M 429.6875 187.5 A 7.8125 7.8125 0 0 0 421.875 179.6875 M 101.5625 203.125 A 7.8125 7.8125 0 0 0 93.75 195.3125 M 195.3125 187.5 A 7.8125 7.8125 0 0 0 203.125 195.3125 M 187.5 195.3125 A 7.8125 7.8125 0 0 0 195.3125 187.5 M 226.5625 203.125 A 7.8125 7.8125 0 0 0 218.75 195.3125 M 265.625 195.3125 A 7.8125 7.8125 0 0 0 257.8125 203.125 M 281.25 195.3125 A 7.8125 7.8125 0 0 0 289.0625 187.5 M 320.3125 187.5 A 7.8125 7.8125 0 0 0 328.125 195.3125 M 359.375 195.3125 A 7.8125 7.8125 0 0 0 367.1875 187.5 M 382.8125 187.5 A 7.8125 7.8125 0 0 0 390.625 195.3125 M 414.0625 203.125 A 7.8125 7.8125 0 0 0 406.25 195.3125 M 54.6875 218.75 A 7.8125 7.8125 0 0 0 46.875 210.9375 M 78.125 210.9375 A 7.8125 7.8125 0 0 0 70.3125 218.75 M 85.9375 218.75 A 7.8125 7.8125 0 0 0 78.125 210.9375 M 117.1875 203.125 A 7.8125 7.8125 0 0 0 125 210.9375 M 171.875 210.9375 A 7.8125 7.8125 0 0 0 164.0625 218.75 A 7.8125 7.8125 0 0 0 156.25 210.9375 M 210.9375 218.75 A 7.8125 7.8125 0 0 0 203.125 210.9375 M 296.875 210.9375 A 7.8125 7.8125 0 0 0 289.0625 218.75 M 296.875 210.9375 A 7.8125 7.8125 0 0 0 304.6875 203.125 M 351.5625 218.75 A 7.8125 7.8125 0 0 0 343.75 210.9375 M 375 210.9375 A 7.8125 7.8125 0 0 0 367.1875 218.75 M 398.4375 218.75 A 7.8125 7.8125 0 0 0 390.625 210.9375 M 414.0625 203.125 A 7.8125 7.8125 0 0 0 421.875 210.9375 A 7.8125 7.8125 0 0 0 429.6875 203.125 M 85.9375 218.75 A 7.8125 7.8125 0 0 0 93.75 226.5625 A 7.8125 7.8125 0 0 0 101.5625 218.75 M 125 226.5625 A 7.8125 7.8125 0 0 0 117.1875 234.375 M 148.4375 234.375 A 7.8125 7.8125 0 0 0 140.625 226.5625 M 187.5 226.5625 A 7.8125 7.8125 0 0 0 179.6875 234.375 M 195.3125 234.375 A 7.8125 7.8125 0 0 0 187.5 226.5625 M 226.5625 218.75 A 7.8125 7.8125 0 0 0 234.375 226.5625 M 242.1875 234.375 A 7.8125 7.8125 0 0 0 234.375 226.5625 M 289.0625 218.75 A 7.8125 7.8125 0 0 0 296.875 226.5625 M 335.9375 234.375 A 7.8125 7.8125 0 0 0 328.125 226.5625 M 398.4375 218.75 A 7.8125 7.8125 0 0 0 406.25 226.5625 M 390.625 226.5625 A 7.8125 7.8125 0 0 0 398.4375 218.75 M 437.5 226.5625 A 7.8125 7.8125 0 0 0 445.3125 218.75 M 54.6875 234.375 A 7.8125 7.8125 0 0 0 62.5 242.1875 A 7.8125 7.8125 0 0 0 70.3125 234.375 M 109.375 242.1875 A 7.8125 7.8125 0 0 0 101.5625 250 A 7.8125 7.8125 0 0 0 93.75 242.1875 M 109.375 242.1875 A 7.8125 7.8125 0 0 0 117.1875 234.375 M 164.0625 234.375 A 7.8125 7.8125 0 0 0 171.875 242.1875 A 7.8125 7.8125 0 0 0 179.6875 234.375 M 242.1875 234.375 A 7.8125 7.8125 0 0 0 250 242.1875 A 7.8125 7.8125 0 0 0 242.1875 250 M 250 242.1875 A 7.8125 7.8125 0 0 0 257.8125 234.375 M 273.4375 234.375 A 7.8125 7.8125 0 0 0 281.25 242.1875 M 312.5 242.1875 A 7.8125 7.8125 0 0 0 304.6875 250 A 7.8125 7.8125 0 0 0 296.875 242.1875 M 335.9375 234.375 A 7.8125 7.8125 0 0 0 343.75 242.1875 M 328.125 242.1875 A 7.8125 7.8125 0 0 0 335.9375 234.375 M 343.75 242.1875 A 7.8125 7.8125 0 0 0 351.5625 234.375 M 390.625 242.1875 A 7.8125 7.8125 0 0 0 382.8125 250 M 414.0625 250 A 7.8125 7.8125 0 0 0 406.25 242.1875 M 437.5 242.1875 A 7.8125 7.8125 0 0 0 429.6875 250 M 445.3125 250 A 7.8125 7.8125 0 0 0 437.5 242.1875 M 62.5 257.8125 A 7.8125 7.8125 0 0 0 54.6875 265.625 M 78.125 257.8125 A 7.8125 7.8125 0 0 0 70.3125 265.625 A 7.8125 7.8125 0 0 0 62.5 257.8125 M 93.75 257.8125 A 7.8125 7.8125 0 0 0 101.5625 250 M 132.8125 250 A 7.8125 7.8125 0 0 0 140.625 257.8125 M 125 257.8125 A 7.8125 7.8125 0 0 0 132.8125 250 M 148.4375 250 A 7.8125 7.8125 0 0 0 156.25 257.8125 M 140.625 257.8125 A 7.8125 7.8125 0 0 0 148.4375 250 M 210.9375 265.625 A 7.8125 7.8125 0 0 0 203.125 257.8125 A 7.8125 7.8125 0 0 0 210.9375 250 M 226.5625 250 A 7.8125 7.8125 0 0 0 234.375 257.8125 A 7.8125 7.8125 0 0 0 242.1875 250 M 281.25 257.8125 A 7.8125 7.8125 0 0 0 273.4375 265.625 M 289.0625 265.625 A 7.8125 7.8125 0 0 0 281.25 257.8125 M 304.6875 250 A 7.8125 7.8125 0 0 0 312.5 257.8125 M 343.75 257.8125 A 7.8125 7.8125 0 0 0 335.9375 265.625 M 351.5625 265.625 A 7.8125 7.8125 0 0 0 343.75 257.8125 M 382.8125 250 A 7.8125 7.8125 0 0 0 390.625 257.8125 M 398.4375 265.625 A 7.8125 7.8125 0 0 0 390.625 257.8125 M 70.3125 265.625 A 7.8125 7.8125 0 0 0 78.125 273.4375 M 93.75 273.4375 A 7.8125 7.8125 0 0 0 85.9375 281.25 A 7.8125 7.8125 0 0 0 78.125 273.4375 M 140.625 273.4375 A 7.8125 7.8125 0 0 0 132.8125 281.25 A 7.8125 7.8125 0 0 0 125 273.4375 M 148.4375 281.25 A 7.8125 7.8125 0 0 0 140.625 273.4375 M 171.875 273.4375 A 7.8125 7.8125 0 0 0 164.0625 281.25 M 179.6875 281.25 A 7.8125 7.8125 0 0 0 171.875 273.4375 M 203.125 273.4375 A 7.8125 7.8125 0 0 0 210.9375 265.625 M 234.375 273.4375 A 7.8125 7.8125 0 0 0 226.5625 281.25 M 242.1875 281.25 A 7.8125 7.8125 0 0 0 234.375 273.4375 M 257.8125 265.625 A 7.8125 7.8125 0 0 0 265.625 273.4375 A 7.8125 7.8125 0 0 0 273.4375 265.625 M 289.0625 265.625 A 7.8125 7.8125 0 0 0 296.875 273.4375 M 328.125 273.4375 A 7.8125 7.8125 0 0 0 335.9375 265.625 M 367.1875 265.625 A 7.8125 7.8125 0 0 0 375 273.4375 M 390.625 273.4375 A 7.8125 7.8125 0 0 0 382.8125 281.25 A 7.8125 7.8125 0 0 0 375 273.4375 M 390.625 273.4375 A 7.8125 7.8125 0 0 0 398.4375 265.625 M 62.5 289.0625 A 7.8125 7.8125 0 0 0 54.6875 296.875 A 7.8125 7.8125 0 0 0 46.875 289.0625 M 70.3125 296.875 A 7.8125 7.8125 0 0 0 62.5 289.0625 M 109.375 289.0625 A 7.8125 7.8125 0 0 0 101.5625 296.875 M 117.1875 296.875 A 7.8125 7.8125 0 0 0 109.375 289.0625 M 203.125 289.0625 A 7.8125 7.8125 0 0 0 195.3125 296.875 M 218.75 289.0625 A 7.8125 7.8125 0 0 0 226.5625 281.25 M 242.1875 281.25 A 7.8125 7.8125 0 0 0 250 289.0625 M 257.8125 296.875 A 7.8125 7.8125 0 0 0 250 289.0625 M 281.25 289.0625 A 7.8125 7.8125 0 0 0 273.4375 296.875 M 312.5 289.0625 A 7.8125 7.8125 0 0 0 304.6875 296.875 A 7.8125 7.8125 0 0 0 296.875 289.0625 M 351.5625 281.25 A 7.8125 7.8125 0 0 0 359.375 289.0625 M 367.1875 296.875 A 7.8125 7.8125 0 0 0 359.375 289.0625 M 406.25 289.0625 A 7.8125 7.8125 0 0 0 398.4375 296.875 M 406.25 289.0625 A 7.8125 7.8125 0 0 0 414.0625 281.25 M 437.5 289.0625 A 7.8125 7.8125 0 0 0 429.6875 296.875 M 437.5 289.0625 A 7.8125 7.8125 0 0 0 445.3125 281.25 M 179.6875 296.875 A 7.8125 7.8125 0 0 0 187.5 304.6875 A 7.8125 7.8125 0 0 0 195.3125 296.875 M 218.75 304.6875 A 7.8125 7.8125 0 0 0 210.9375 312.5 M 234.375 304.6875 A 7.8125 7.8125 0 0 0 226.5625 312.5 A 7.8125 7.8125 0 0 0 218.75 304.6875 M 257.8125 296.875 A 7.8125 7.8125 0 0 0 265.625 304.6875 A 7.8125 7.8125 0 0 0 273.4375 296.875 M 304.6875 296.875 A 7.8125 7.8125 0 0 0 312.5 304.6875 M 359.375 304.6875 A 7.8125 7.8125 0 0 0 367.1875 296.875 M 398.4375 296.875 A 7.8125 7.8125 0 0 0 406.25 304.6875 M 414.0625 312.5 A 7.8125 7.8125 0 0 0 406.25 304.6875 M 70.3125 312.5 A 7.8125 7.8125 0 0 0 78.125 320.3125 M 85.9375 328.125 A 7.8125 7.8125 0 0 0 78.125 320.3125 M 140.625 320.3125 A 7.8125 7.8125 0 0 0 132.8125 328.125 M 148.4375 328.125 A 7.8125 7.8125 0 0 0 140.625 320.3125 A 7.8125 7.8125 0 0 0 148.4375 312.5 M 164.0625 312.5 A 7.8125 7.8125 0 0 0 171.875 320.3125 M 179.6875 328.125 A 7.8125 7.8125 0 0 0 171.875 320.3125 M 203.125 320.3125 A 7.8125 7.8125 0 0 0 195.3125 328.125 M 203.125 320.3125 A 7.8125 7.8125 0 0 0 210.9375 312.5 M 250 320.3125 A 7.8125 7.8125 0 0 0 242.1875 328.125 M 281.25 320.3125 A 7.8125 7.8125 0 0 0 273.4375 328.125 A 7.8125 7.8125 0 0 0 265.625 320.3125 M 289.0625 328.125 A 7.8125 7.8125 0 0 0 281.25 320.3125 A 7.8125 7.8125 0 0 0 289.0625 312.5 M 312.5 320.3125 A 7.8125 7.8125 0 0 0 304.6875 328.125 M 359.375 320.3125 A 7.8125 7.8125 0 0 0 351.5625 328.125 A 7.8125 7.8125 0 0 0 343.75 320.3125 M 406.25 320.3125 A 7.8125 7.8125 0 0 0 414.0625 312.5 M 429.6875 312.5 A 7.8125 7.8125 0 0 0 437.5 320.3125 A 7.8125 7.8125 0 0 0 429.6875 328.125 M 70.3125 343.75 A 7.8125 7.8125 0 0 0 62.5 335.9375 M 85.9375 328.125 A 7.8125 7.8125 0 0 0 93.75 335.9375 A 7.8125 7.8125 0 0 0 101.5625 328.125 M 148.4375 328.125 A 7.8125 7.8125 0 0 0 156.25 335.9375 M 218.75 335.9375 A 7.8125 7.8125 0 0 0 210.9375 343.75 M 242.1875 328.125 A 7.8125 7.8125 0 0 0 250 335.9375 M 234.375 335.9375 A 7.8125 7.8125 0 0 0 242.1875 328.125 M 304.6875 328.125 A 7.8125 7.8125 0 0 0 312.5 335.9375 M 335.9375 343.75 A 7.8125 7.8125 0 0 0 328.125 335.9375 M 375 335.9375 A 7.8125 7.8125 0 0 0 367.1875 343.75 M 382.8125 343.75 A 7.8125 7.8125 0 0 0 375 335.9375 M 406.25 335.9375 A 7.8125 7.8125 0 0 0 398.4375 343.75 M 109.375 351.5625 A 7.8125 7.8125 0 0 0 101.5625 359.375 M 117.1875 343.75 A 7.8125 7.8125 0 0 0 125 351.5625 M 109.375 351.5625 A 7.8125 7.8125 0 0 0 117.1875 343.75 M 125 351.5625 A 7.8125 7.8125 0 0 0 132.8125 343.75 M 156.25 351.5625 A 7.8125 7.8125 0 0 0 148.4375 359.375 M 171.875 351.5625 A 7.8125 7.8125 0 0 0 179.6875 343.75 M 195.3125 343.75 A 7.8125 7.8125 0 0 0 203.125 351.5625 A 7.8125 7.8125 0 0 0 195.3125 359.375 M 203.125 351.5625 A 7.8125 7.8125 0 0 0 210.9375 343.75 M 250 351.5625 A 7.8125 7.8125 0 0 0 242.1875 359.375 M 257.8125 359.375 A 7.8125 7.8125 0 0 0 250 351.5625 M 289.0625 343.75 A 7.8125 7.8125 0 0 0 296.875 351.5625 M 320.3125 359.375 A 7.8125 7.8125 0 0 0 312.5 351.5625 M 335.9375 343.75 A 7.8125 7.8125 0 0 0 343.75 351.5625 A 7.8125 7.8125 0 0 0 335.9375 359.375 M 359.375 351.5625 A 7.8125 7.8125 0 0 0 367.1875 343.75 M 398.4375 343.75 A 7.8125 7.8125 0 0 0 406.25 351.5625 A 7.8125 7.8125 0 0 0 398.4375 359.375 M 125 367.1875 A 7.8125 7.8125 0 0 0 117.1875 375 M 140.625 367.1875 A 7.8125 7.8125 0 0 0 148.4375 359.375 M 171.875 367.1875 A 7.8125 7.8125 0 0 0 164.0625 375 M 187.5 367.1875 A 7.8125 7.8125 0 0 0 195.3125 359.375 M 218.75 367.1875 A 7.8125 7.8125 0 0 0 210.9375 375 M 218.75 367.1875 A 7.8125 7.8125 0 0 0 226.5625 359.375 M 257.8125 359.375 A 7.8125 7.8125 0 0 0 265.625 367.1875 A 7.8125 7.8125 0 0 0 273.4375 359.375 M 312.5 367.1875 A 7.8125 7.8125 0 0 0 304.6875 375 M 312.5 367.1875 A 7.8125 7.8125 0 0 0 320.3125 359.375 M 335.9375 359.375 A 7.8125 7.8125 0 0 0 343.75 367.1875 M 351.5625 375 A 7.8125 7.8125 0 0 0 343.75 367.1875 M 398.4375 359.375 A 7.8125 7.8125 0 0 0 406.25 367.1875 M 117.1875 375 A 7.8125 7.8125 0 0 0 125 382.8125 M 148.4375 390.625 A 7.8125 7.8125 0 0 0 140.625 382.8125 M 164.0625 375 A 7.8125 7.8125 0 0 0 171.875 382.8125 M 210.9375 390.625 A 7.8125 7.8125 0 0 0 203.125 382.8125 A 7.8125 7.8125 0 0 0 210.9375 375 M 234.375 382.8125 A 7.8125 7.8125 0 0 0 226.5625 390.625 M 234.375 382.8125 A 7.8125 7.8125 0 0 0 242.1875 375 M 265.625 382.8125 A 7.8125 7.8125 0 0 0 257.8125 390.625 M 281.25 382.8125 A 7.8125 7.8125 0 0 0 289.0625 375 M 328.125 382.8125 A 7.8125 7.8125 0 0 0 320.3125 390.625 M 351.5625 375 A 7.8125 7.8125 0 0 0 359.375 382.8125 M 343.75 382.8125 A 7.8125 7.8125 0 0 0 351.5625 375 M 359.375 382.8125 A 7.8125 7.8125 0 0 0 367.1875 375 M 132.8125 406.25 A 7.8125 7.8125 0 0 0 125 398.4375 M 148.4375 390.625 A 7.8125 7.8125 0 0 0 156.25 398.4375 M 195.3125 406.25 A 7.8125 7.8125 0 0 0 187.5 398.4375 M 226.5625 390.625 A 7.8125 7.8125 0 0 0 234.375 398.4375 M 242.1875 406.25 A 7.8125 7.8125 0 0 0 234.375 398.4375 M 257.8125 390.625 A 7.8125 7.8125 0 0 0 265.625 398.4375 A 7.8125 7.8125 0 0 0 257.8125 406.25 M 289.0625 406.25 A 7.8125 7.8125 0 0 0 281.25 398.4375 M 320.3125 390.625 A 7.8125 7.8125 0 0 0 328.125 398.4375 M 359.375 398.4375 A 7.8125 7.8125 0 0 0 351.5625 406.25 M 367.1875 406.25 A 7.8125 7.8125 0 0 0 359.375 398.4375 M 156.25 414.0625 A 7.8125 7.8125 0 0 0 148.4375 421.875 M 179.6875 421.875 A 7.8125 7.8125 0 0 0 171.875 414.0625 M 195.3125 406.25 A 7.8125 7.8125 0 0 0 203.125 414.0625 M 226.5625 421.875 A 7.8125 7.8125 0 0 0 218.75 414.0625 M 257.8125 406.25 A 7.8125 7.8125 0 0 0 265.625 414.0625 M 289.0625 406.25 A 7.8125 7.8125 0 0 0 296.875 414.0625 M 304.6875 406.25 A 7.8125 7.8125 0 0 0 312.5 414.0625 M 296.875 414.0625 A 7.8125 7.8125 0 0 0 304.6875 406.25 M 320.3125 421.875 A 7.8125 7.8125 0 0 0 312.5 414.0625 M 343.75 414.0625 A 7.8125 7.8125 0 0 0 335.9375 421.875 M 343.75 414.0625 A 7.8125 7.8125 0 0 0 351.5625 406.25 M 164.0625 437.5 A 7.8125 7.8125 0 0 0 156.25 429.6875 M 179.6875 421.875 A 7.8125 7.8125 0 0 0 187.5 429.6875 A 7.8125 7.8125 0 0 0 179.6875 437.5 M 265.625 429.6875 A 7.8125 7.8125 0 0 0 257.8125 437.5 M 289.0625 437.5 A 7.8125 7.8125 0 0 0 281.25 429.6875 M 320.3125 421.875 A 7.8125 7.8125 0 0 0 328.125 429.6875 A 7.8125 7.8125 0 0 0 335.9375 421.875 M 210.9375 453.125 A 7.8125 7.8125 0 0 0 203.125 445.3125 M 242.1875 437.5 A 7.8125 7.8125 0 0 0 250 445.3125 M 257.8125 437.5 A 7.8125 7.8125 0 0 0 265.625 445.3125 M 250 445.3125 A 7.8125 7.8125 0 0 0 257.8125 437.5 M 273.4375 453.125 A 7.8125 7.8125 0 0 0 265.625 445.3125 M 218.75 54.6875 L 226.5625 54.6875 M 210.9375 62.5 L 210.9375 70.3125 M 250 54.6875 L 250 54.6875 M 242.1875 62.5 L 242.1875 62.5 M 257.8125 62.5 L 257.8125 62.5 M 281.25 54.6875 L 281.25 54.6875 M 273.4375 62.5 L 273.4375 62.5 M 289.0625 62.5 L 289.0625 70.3125 M 179.6875 70.3125 L 179.6875 78.125 M 195.3125 70.3125 L 195.3125 78.125 M 234.375 70.3125 L 234.375 70.3125 M 226.5625 78.125 L 226.5625 78.125 M 265.625 70.3125 L 265.625 70.3125 M 312.5 70.3125 L 320.3125 70.3125 M 304.6875 78.125 L 304.6875 78.125 M 320.3125 70.3125 L 335.9375 70.3125 M 148.4375 85.9375 L 148.4375 93.75 M 171.875 85.9375 L 171.875 85.9375 M 164.0625 93.75 L 164.0625 101.5625 M 203.125 85.9375 L 203.125 85.9375 M 195.3125 93.75 L 195.3125 93.75 M 210.9375 93.75 L 210.9375 93.75 M 234.375 85.9375 L 242.1875 85.9375 L 257.8125 85.9375 L 273.4375 85.9375 L 289.0625 85.9375 L 296.875 85.9375 M 328.125 85.9375 L 328.125 85.9375 M 320.3125 93.75 L 320.3125 101.5625 M 335.9375 93.75 L 335.9375 101.5625 M 351.5625 93.75 L 351.5625 101.5625 M 125 101.5625 L 132.8125 101.5625 M 117.1875 109.375 L 117.1875 109.375 M 132.8125 101.5625 L 140.625 101.5625 M 164.0625 101.5625 L 164.0625 109.375 M 179.6875 101.5625 L 187.5 101.5625 M 195.3125 109.375 L 195.3125 109.375 M 218.75 101.5625 L 226.5625 101.5625 L 234.375 101.5625 M 242.1875 109.375 L 242.1875 109.375 M 265.625 101.5625 L 265.625 101.5625 M 257.8125 109.375 L 257.8125 109.375 M 281.25 101.5625 L 289.0625 101.5625 M 273.4375 109.375 L 273.4375 109.375 M 289.0625 101.5625 L 304.6875 101.5625 M 320.3125 101.5625 L 320.3125 109.375 M 335.9375 101.5625 L 335.9375 117.1875 M 351.5625 101.5625 L 351.5625 109.375 M 367.1875 101.5625 L 375 101.5625 M 101.5625 117.1875 L 109.375 117.1875 M 140.625 117.1875 L 140.625 117.1875 M 132.8125 125 L 132.8125 125 M 148.4375 125 L 148.4375 125 M 171.875 117.1875 L 171.875 117.1875 M 179.6875 125 L 179.6875 125 M 203.125 117.1875 L 210.9375 117.1875 L 218.75 117.1875 M 226.5625 125 L 226.5625 132.8125 M 250 117.1875 L 250 117.1875 M 281.25 117.1875 L 281.25 117.1875 M 289.0625 125 L 289.0625 125 M 312.5 117.1875 L 312.5 117.1875 M 304.6875 125 L 304.6875 125 M 335.9375 117.1875 L 335.9375 125 M 359.375 117.1875 L 359.375 117.1875 M 367.1875 125 L 367.1875 132.8125 M 390.625 117.1875 L 390.625 117.1875 M 382.8125 125 L 382.8125 132.8125 M 398.4375 125 L 398.4375 132.8125 M 101.5625 140.625 L 101.5625 148.4375 M 125 132.8125 L 125 132.8125 M 117.1875 140.625 L 117.1875 140.625 M 156.25 132.8125 L 164.0625 132.8125 L 171.875 132.8125 M 195.3125 132.8125 L 203.125 132.8125 M 210.9375 140.625 L 210.9375 140.625 M 226.5625 132.8125 L 226.5625 140.625 M 250 132.8125 L 257.8125 132.8125 M 242.1875 140.625 L 242.1875 140.625 M 257.8125 132.8125 L 265.625 132.8125 M 273.4375 140.625 L 273.4375 140.625 M 296.875 132.8125 L 296.875 132.8125 M 328.125 132.8125 L 328.125 132.8125 M 320.3125 140.625 L 320.3125 140.625 M 343.75 132.8125 L 343.75 132.8125 M 351.5625 140.625 L 351.5625 140.625 M 367.1875 132.8125 L 367.1875 140.625 M 382.8125 132.8125 L 382.8125 140.625 M 398.4375 132.8125 L 398.4375 140.625 M 85.9375 156.25 L 85.9375 164.0625 M 101.5625 148.4375 L 101.5625 156.25 M 125 148.4375 L 125 148.4375 M 132.8125 156.25 L 132.8125 156.25 M 156.25 148.4375 L 164.0625 148.4375 M 148.4375 156.25 L 148.4375 156.25 M 164.0625 148.4375 L 179.6875 148.4375 L 187.5 148.4375 M 195.3125 156.25 L 195.3125 156.25 M 218.75 148.4375 L 218.75 148.4375 M 234.375 148.4375 L 234.375 148.4375 M 257.8125 148.4375 L 265.625 148.4375 M 296.875 148.4375 L 304.6875 148.4375 M 289.0625 156.25 L 289.0625 156.25 M 304.6875 148.4375 L 312.5 148.4375 M 343.75 148.4375 L 343.75 148.4375 M 335.9375 156.25 L 335.9375 164.0625 M 375 148.4375 L 375 148.4375 M 406.25 148.4375 L 414.0625 148.4375 M 70.3125 171.875 L 70.3125 171.875 M 85.9375 164.0625 L 85.9375 171.875 M 109.375 164.0625 L 117.1875 164.0625 L 125 164.0625 M 156.25 164.0625 L 156.25 164.0625 M 164.0625 171.875 L 164.0625 171.875 M 187.5 164.0625 L 187.5 164.0625 M 179.6875 171.875 L 179.6875 171.875 M 218.75 164.0625 L 226.5625 164.0625 M 210.9375 171.875 L 210.9375 171.875 M 226.5625 164.0625 L 242.1875 164.0625 L 257.8125 164.0625 L 273.4375 164.0625 L 281.25 164.0625 M 312.5 164.0625 L 312.5 164.0625 M 304.6875 171.875 L 304.6875 179.6875 M 320.3125 171.875 L 320.3125 179.6875 M 335.9375 164.0625 L 335.9375 171.875 M 359.375 164.0625 L 367.1875 164.0625 M 351.5625 171.875 L 351.5625 171.875 M 367.1875 164.0625 L 382.8125 164.0625 L 398.4375 164.0625 L 406.25 164.0625 M 414.0625 171.875 L 414.0625 171.875 M 78.125 179.6875 L 78.125 179.6875 M 101.5625 179.6875 L 109.375 179.6875 M 125 179.6875 L 132.8125 179.6875 M 117.1875 187.5 L 117.1875 195.3125 M 132.8125 179.6875 L 148.4375 179.6875 L 156.25 179.6875 M 187.5 179.6875 L 187.5 179.6875 M 195.3125 187.5 L 195.3125 187.5 M 218.75 179.6875 L 226.5625 179.6875 L 234.375 179.6875 M 250 179.6875 L 257.8125 179.6875 M 242.1875 187.5 L 242.1875 195.3125 M 257.8125 179.6875 L 273.4375 179.6875 L 281.25 179.6875 M 289.0625 187.5 L 289.0625 187.5 M 304.6875 179.6875 L 304.6875 195.3125 M 320.3125 179.6875 L 320.3125 187.5 M 343.75 179.6875 L 343.75 179.6875 M 375 179.6875 L 375 179.6875 M 367.1875 187.5 L 367.1875 187.5 M 390.625 179.6875 L 398.4375 179.6875 M 382.8125 187.5 L 382.8125 187.5 M 421.875 179.6875 L 421.875 179.6875 M 429.6875 187.5 L 429.6875 195.3125 M 70.3125 195.3125 L 85.9375 195.3125 L 93.75 195.3125 M 101.5625 203.125 L 101.5625 210.9375 M 117.1875 195.3125 L 117.1875 203.125 M 132.8125 195.3125 L 148.4375 195.3125 L 164.0625 195.3125 L 179.6875 195.3125 L 187.5 195.3125 M 203.125 195.3125 L 210.9375 195.3125 L 218.75 195.3125 M 226.5625 203.125 L 226.5625 210.9375 M 242.1875 195.3125 L 242.1875 210.9375 M 265.625 195.3125 L 273.4375 195.3125 M 257.8125 203.125 L 257.8125 210.9375 M 273.4375 195.3125 L 281.25 195.3125 M 304.6875 195.3125 L 304.6875 203.125 M 328.125 195.3125 L 335.9375 195.3125 L 351.5625 195.3125 L 359.375 195.3125 M 390.625 195.3125 L 398.4375 195.3125 L 406.25 195.3125 M 414.0625 203.125 L 414.0625 203.125 M 429.6875 195.3125 L 429.6875 203.125 M 54.6875 218.75 L 54.6875 226.5625 M 78.125 210.9375 L 78.125 210.9375 M 70.3125 218.75 L 70.3125 226.5625 M 85.9375 218.75 L 85.9375 218.75 M 101.5625 210.9375 L 101.5625 218.75 M 125 210.9375 L 132.8125 210.9375 L 148.4375 210.9375 L 156.25 210.9375 M 171.875 210.9375 L 179.6875 210.9375 M 164.0625 218.75 L 164.0625 226.5625 M 179.6875 210.9375 L 195.3125 210.9375 L 203.125 210.9375 M 210.9375 218.75 L 210.9375 226.5625 M 226.5625 210.9375 L 226.5625 218.75 M 257.8125 210.9375 L 257.8125 226.5625 M 273.4375 210.9375 L 273.4375 226.5625 M 296.875 210.9375 L 296.875 210.9375 M 289.0625 218.75 L 289.0625 218.75 M 320.3125 210.9375 L 335.9375 210.9375 L 343.75 210.9375 M 351.5625 218.75 L 351.5625 226.5625 M 375 210.9375 L 382.8125 210.9375 M 367.1875 218.75 L 367.1875 226.5625 M 382.8125 210.9375 L 390.625 210.9375 M 398.4375 218.75 L 398.4375 218.75 M 421.875 210.9375 L 421.875 210.9375 M 445.3125 210.9375 L 445.3125 218.75 M 54.6875 226.5625 L 54.6875 234.375 M 70.3125 226.5625 L 70.3125 234.375 M 93.75 226.5625 L 93.75 226.5625 M 125 226.5625 L 132.8125 226.5625 M 117.1875 234.375 L 117.1875 234.375 M 132.8125 226.5625 L 140.625 226.5625 M 148.4375 234.375 L 148.4375 242.1875 M 164.0625 226.5625 L 164.0625 234.375 M 187.5 226.5625 L 187.5 226.5625 M 179.6875 234.375 L 179.6875 234.375 M 195.3125 234.375 L 195.3125 242.1875 M 210.9375 226.5625 L 210.9375 242.1875 M 234.375 226.5625 L 234.375 226.5625 M 242.1875 234.375 L 242.1875 234.375 M 257.8125 226.5625 L 257.8125 234.375 M 273.4375 226.5625 L 273.4375 234.375 M 296.875 226.5625 L 304.6875 226.5625 L 320.3125 226.5625 L 328.125 226.5625 M 335.9375 234.375 L 335.9375 234.375 M 351.5625 226.5625 L 351.5625 234.375 M 367.1875 226.5625 L 367.1875 242.1875 M 382.8125 226.5625 L 390.625 226.5625 M 406.25 226.5625 L 414.0625 226.5625 L 429.6875 226.5625 L 437.5 226.5625 M 62.5 242.1875 L 62.5 242.1875 M 85.9375 242.1875 L 93.75 242.1875 M 109.375 242.1875 L 109.375 242.1875 M 101.5625 250 L 101.5625 250 M 132.8125 242.1875 L 132.8125 250 M 148.4375 242.1875 L 148.4375 250 M 171.875 242.1875 L 171.875 242.1875 M 210.9375 242.1875 L 210.9375 250 M 226.5625 242.1875 L 226.5625 250 M 250 242.1875 L 250 242.1875 M 242.1875 250 L 242.1875 250 M 281.25 242.1875 L 289.0625 242.1875 L 296.875 242.1875 M 312.5 242.1875 L 320.3125 242.1875 M 304.6875 250 L 304.6875 250 M 320.3125 242.1875 L 328.125 242.1875 M 343.75 242.1875 L 343.75 242.1875 M 367.1875 242.1875 L 367.1875 257.8125 M 390.625 242.1875 L 398.4375 242.1875 M 382.8125 250 L 382.8125 250 M 398.4375 242.1875 L 406.25 242.1875 M 414.0625 250 L 414.0625 257.8125 M 437.5 242.1875 L 437.5 242.1875 M 429.6875 250 L 429.6875 257.8125 M 445.3125 250 L 445.3125 257.8125 M 62.5 257.8125 L 62.5 257.8125 M 54.6875 265.625 L 54.6875 273.4375 M 78.125 257.8125 L 85.9375 257.8125 M 70.3125 265.625 L 70.3125 265.625 M 85.9375 257.8125 L 93.75 257.8125 M 117.1875 257.8125 L 125 257.8125 M 140.625 257.8125 L 140.625 257.8125 M 156.25 257.8125 L 164.0625 257.8125 L 179.6875 257.8125 L 195.3125 257.8125 L 203.125 257.8125 M 210.9375 265.625 L 210.9375 265.625 M 234.375 257.8125 L 234.375 257.8125 M 257.8125 257.8125 L 257.8125 265.625 M 281.25 257.8125 L 281.25 257.8125 M 273.4375 265.625 L 273.4375 265.625 M 289.0625 265.625 L 289.0625 265.625 M 312.5 257.8125 L 320.3125 257.8125 M 343.75 257.8125 L 343.75 257.8125 M 335.9375 265.625 L 335.9375 265.625 M 351.5625 265.625 L 351.5625 273.4375 M 367.1875 257.8125 L 367.1875 265.625 M 390.625 257.8125 L 390.625 257.8125 M 398.4375 265.625 L 398.4375 265.625 M 414.0625 257.8125 L 414.0625 273.4375 M 429.6875 257.8125 L 429.6875 273.4375 M 445.3125 257.8125 L 445.3125 273.4375 M 78.125 273.4375 L 78.125 273.4375 M 93.75 273.4375 L 101.5625 273.4375 M 85.9375 281.25 L 85.9375 289.0625 M 101.5625 273.4375 L 117.1875 273.4375 L 125 273.4375 M 140.625 273.4375 L 140.625 273.4375 M 132.8125 281.25 L 132.8125 289.0625 M 148.4375 281.25 L 148.4375 289.0625 M 171.875 273.4375 L 171.875 273.4375 M 164.0625 281.25 L 164.0625 289.0625 M 179.6875 281.25 L 179.6875 289.0625 M 195.3125 273.4375 L 203.125 273.4375 M 234.375 273.4375 L 234.375 273.4375 M 226.5625 281.25 L 226.5625 281.25 M 242.1875 281.25 L 242.1875 281.25 M 265.625 273.4375 L 265.625 273.4375 M 296.875 273.4375 L 304.6875 273.4375 L 320.3125 273.4375 L 328.125 273.4375 M 351.5625 273.4375 L 351.5625 281.25 M 375 273.4375 L 375 273.4375 M 390.625 273.4375 L 390.625 273.4375 M 382.8125 281.25 L 382.8125 289.0625 M 414.0625 273.4375 L 414.0625 281.25 M 445.3125 273.4375 L 445.3125 281.25 M 62.5 289.0625 L 62.5 289.0625 M 70.3125 296.875 L 70.3125 304.6875 M 85.9375 289.0625 L 85.9375 304.6875 M 109.375 289.0625 L 109.375 289.0625 M 101.5625 296.875 L 101.5625 304.6875 M 117.1875 296.875 L 117.1875 304.6875 M 132.8125 289.0625 L 132.8125 304.6875 M 148.4375 289.0625 L 148.4375 304.6875 M 164.0625 289.0625 L 164.0625 304.6875 M 179.6875 289.0625 L 179.6875 296.875 M 203.125 289.0625 L 210.9375 289.0625 M 195.3125 296.875 L 195.3125 296.875 M 210.9375 289.0625 L 218.75 289.0625 M 250 289.0625 L 250 289.0625 M 257.8125 296.875 L 257.8125 296.875 M 281.25 289.0625 L 289.0625 289.0625 M 273.4375 296.875 L 273.4375 296.875 M 289.0625 289.0625 L 296.875 289.0625 M 312.5 289.0625 L 320.3125 289.0625 M 304.6875 296.875 L 304.6875 296.875 M 320.3125 289.0625 L 335.9375 289.0625 M 359.375 289.0625 L 359.375 289.0625 M 367.1875 296.875 L 367.1875 296.875 M 382.8125 289.0625 L 382.8125 304.6875 M 406.25 289.0625 L 406.25 289.0625 M 398.4375 296.875 L 398.4375 296.875 M 437.5 289.0625 L 437.5 289.0625 M 429.6875 296.875 L 429.6875 304.6875 M 70.3125 304.6875 L 70.3125 312.5 M 101.5625 304.6875 L 101.5625 320.3125 M 117.1875 304.6875 L 117.1875 320.3125 M 148.4375 304.6875 L 148.4375 312.5 M 164.0625 304.6875 L 164.0625 312.5 M 187.5 304.6875 L 187.5 304.6875 M 218.75 304.6875 L 218.75 304.6875 M 210.9375 312.5 L 210.9375 312.5 M 234.375 304.6875 L 242.1875 304.6875 M 226.5625 312.5 L 226.5625 320.3125 M 265.625 304.6875 L 265.625 304.6875 M 289.0625 304.6875 L 289.0625 312.5 M 312.5 304.6875 L 320.3125 304.6875 L 335.9375 304.6875 L 351.5625 304.6875 L 359.375 304.6875 M 406.25 304.6875 L 406.25 304.6875 M 414.0625 312.5 L 414.0625 312.5 M 429.6875 304.6875 L 429.6875 312.5 M 78.125 320.3125 L 78.125 320.3125 M 85.9375 328.125 L 85.9375 328.125 M 101.5625 320.3125 L 101.5625 328.125 M 117.1875 320.3125 L 117.1875 335.9375 M 140.625 320.3125 L 140.625 320.3125 M 132.8125 328.125 L 132.8125 335.9375 M 148.4375 328.125 L 148.4375 328.125 M 171.875 320.3125 L 171.875 320.3125 M 179.6875 328.125 L 179.6875 335.9375 M 203.125 320.3125 L 203.125 320.3125 M 195.3125 328.125 L 195.3125 335.9375 M 250 320.3125 L 257.8125 320.3125 M 242.1875 328.125 L 242.1875 328.125 M 257.8125 320.3125 L 265.625 320.3125 M 281.25 320.3125 L 281.25 320.3125 M 273.4375 328.125 L 273.4375 335.9375 M 289.0625 328.125 L 289.0625 335.9375 M 312.5 320.3125 L 320.3125 320.3125 M 304.6875 328.125 L 304.6875 328.125 M 320.3125 320.3125 L 335.9375 320.3125 L 343.75 320.3125 M 359.375 320.3125 L 367.1875 320.3125 M 351.5625 328.125 L 351.5625 335.9375 M 367.1875 320.3125 L 382.8125 320.3125 L 398.4375 320.3125 L 406.25 320.3125 M 429.6875 328.125 L 429.6875 335.9375 M 93.75 335.9375 L 93.75 335.9375 M 117.1875 335.9375 L 117.1875 343.75 M 132.8125 335.9375 L 132.8125 343.75 M 156.25 335.9375 L 164.0625 335.9375 M 179.6875 335.9375 L 179.6875 343.75 M 195.3125 335.9375 L 195.3125 343.75 M 218.75 335.9375 L 226.5625 335.9375 M 210.9375 343.75 L 210.9375 343.75 M 226.5625 335.9375 L 234.375 335.9375 M 250 335.9375 L 257.8125 335.9375 M 273.4375 335.9375 L 273.4375 351.5625 M 289.0625 335.9375 L 289.0625 343.75 M 312.5 335.9375 L 320.3125 335.9375 L 328.125 335.9375 M 335.9375 343.75 L 335.9375 343.75 M 375 335.9375 L 375 335.9375 M 367.1875 343.75 L 367.1875 343.75 M 382.8125 343.75 L 382.8125 351.5625 M 406.25 335.9375 L 414.0625 335.9375 M 398.4375 343.75 L 398.4375 343.75 M 109.375 351.5625 L 109.375 351.5625 M 101.5625 359.375 L 101.5625 367.1875 M 125 351.5625 L 125 351.5625 M 156.25 351.5625 L 164.0625 351.5625 M 148.4375 359.375 L 148.4375 359.375 M 164.0625 351.5625 L 171.875 351.5625 M 203.125 351.5625 L 203.125 351.5625 M 195.3125 359.375 L 195.3125 359.375 M 226.5625 351.5625 L 226.5625 359.375 M 250 351.5625 L 250 351.5625 M 242.1875 359.375 L 242.1875 367.1875 M 257.8125 359.375 L 257.8125 359.375 M 273.4375 351.5625 L 273.4375 359.375 M 296.875 351.5625 L 304.6875 351.5625 L 312.5 351.5625 M 320.3125 359.375 L 320.3125 359.375 M 343.75 351.5625 L 351.5625 351.5625 M 335.9375 359.375 L 335.9375 359.375 M 351.5625 351.5625 L 359.375 351.5625 M 382.8125 351.5625 L 382.8125 367.1875 M 406.25 351.5625 L 414.0625 351.5625 M 398.4375 359.375 L 398.4375 359.375 M 101.5625 367.1875 L 101.5625 382.8125 M 125 367.1875 L 132.8125 367.1875 M 117.1875 375 L 117.1875 375 M 132.8125 367.1875 L 140.625 367.1875 M 171.875 367.1875 L 179.6875 367.1875 M 164.0625 375 L 164.0625 375 M 179.6875 367.1875 L 187.5 367.1875 M 218.75 367.1875 L 218.75 367.1875 M 210.9375 375 L 210.9375 375 M 242.1875 367.1875 L 242.1875 375 M 265.625 367.1875 L 265.625 367.1875 M 289.0625 367.1875 L 289.0625 375 M 312.5 367.1875 L 312.5 367.1875 M 304.6875 375 L 304.6875 382.8125 M 343.75 367.1875 L 343.75 367.1875 M 351.5625 375 L 351.5625 375 M 367.1875 367.1875 L 367.1875 375 M 382.8125 367.1875 L 382.8125 382.8125 M 125 382.8125 L 132.8125 382.8125 L 140.625 382.8125 M 148.4375 390.625 L 148.4375 390.625 M 171.875 382.8125 L 179.6875 382.8125 L 195.3125 382.8125 L 203.125 382.8125 M 210.9375 390.625 L 210.9375 398.4375 M 234.375 382.8125 L 234.375 382.8125 M 226.5625 390.625 L 226.5625 390.625 M 265.625 382.8125 L 273.4375 382.8125 M 257.8125 390.625 L 257.8125 390.625 M 273.4375 382.8125 L 281.25 382.8125 M 304.6875 382.8125 L 304.6875 398.4375 M 328.125 382.8125 L 335.9375 382.8125 M 320.3125 390.625 L 320.3125 390.625 M 335.9375 382.8125 L 343.75 382.8125 M 359.375 382.8125 L 359.375 382.8125 M 382.8125 382.8125 L 382.8125 398.4375 M 117.1875 398.4375 L 125 398.4375 M 156.25 398.4375 L 164.0625 398.4375 L 179.6875 398.4375 L 187.5 398.4375 M 195.3125 406.25 L 195.3125 406.25 M 234.375 398.4375 L 234.375 398.4375 M 242.1875 406.25 L 242.1875 414.0625 M 265.625 398.4375 L 273.4375 398.4375 M 257.8125 406.25 L 257.8125 406.25 M 273.4375 398.4375 L 281.25 398.4375 M 289.0625 406.25 L 289.0625 406.25 M 304.6875 398.4375 L 304.6875 406.25 M 328.125 398.4375 L 335.9375 398.4375 M 359.375 398.4375 L 359.375 398.4375 M 351.5625 406.25 L 351.5625 406.25 M 156.25 414.0625 L 164.0625 414.0625 L 171.875 414.0625 M 179.6875 421.875 L 179.6875 421.875 M 203.125 414.0625 L 210.9375 414.0625 L 218.75 414.0625 M 226.5625 421.875 L 226.5625 429.6875 M 242.1875 414.0625 L 242.1875 429.6875 M 265.625 414.0625 L 273.4375 414.0625 M 296.875 414.0625 L 296.875 414.0625 M 312.5 414.0625 L 312.5 414.0625 M 320.3125 421.875 L 320.3125 421.875 M 343.75 414.0625 L 343.75 414.0625 M 335.9375 421.875 L 335.9375 421.875 M 187.5 429.6875 L 195.3125 429.6875 L 210.9375 429.6875 M 226.5625 429.6875 L 226.5625 445.3125 M 242.1875 429.6875 L 242.1875 437.5 M 265.625 429.6875 L 273.4375 429.6875 M 257.8125 437.5 L 257.8125 437.5 M 273.4375 429.6875 L 281.25 429.6875 M 289.0625 437.5 L 289.0625 445.3125 M 328.125 429.6875 L 328.125 429.6875 M 250 445.3125 L 250 445.3125 M 265.625 445.3125 L 265.625 445.3125"
        fill="none"
        stroke="#ffffff"
        stroke-width="2"
        stroke-linecap="round"
        stroke-linejoin="round"
    />
</svg>