<?xml version="1.0" encoding="utf-8"?>
<svg width="900" height="900" xmlns="http://www.w3.org/2000/svg">
  <path d="M 365.625 70.3125 A 14.0625 14.0625 0 0 0 351.5625 84.375 L 351.5625 98.4375 L 351.5625 112.5 A 14.0625 14.0625 0 0 1 337.5 126.5625 A 14.0625 14.0625 0 0 0 323.4375 140.625 A 14.0625 14.0625 0 0 1 309.375 154.6875 A 14.0625 14.0625 0 0 1 295.3125 140.625 L 295.3125 126.5625 M 365.625 70.3125 A 14.0625 14.0625 0 0 0 379.6875 56.25 M 450 70.3125 A 14.0625 14.0625 0 0 0 435.9375 84.375 A 14.0625 14.0625 0 0 0 450 98.4375 L 464.0625 98.4375 M 520.3125 84.375 A 14.0625 14.0625 0 0 0 506.25 70.3125 L 492.1875 70.3125 L 464.0625 70.3125 L 450 70.3125 M 548.4375 56.25 A 14.0625 14.0625 0 0 0 562.5 70.3125 M 309.375 98.4375 A 14.0625 14.0625 0 0 0 323.4375 84.375 M 393.75 98.4375 A 14.0625 14.0625 0 0 0 379.6875 112.5 A 14.0625 14.0625 0 0 0 393.75 126.5625 L 407.8125 126.5625 M 407.8125 84.375 A 14.0625 14.0625 0 0 0 421.875 98.4375 A 14.0625 14.0625 0 0 0 435.9375 84.375 L 435.9375 84.375 M 393.75 98.4375 A 14.0625 14.0625 0 0 0 407.8125 84.375 L 407.8125 70.3125 M 506.25 98.4375 A 14.0625 14.0625 0 0 0 492.1875 112.5 L 492.1875 126.5625 L 492.1875 154.6875 L 492.1875 182.8125 L 492.1875 196.875 A 14.0625 14.0625 0 0 1 478.125 210.9375 A 14.0625 14.0625 0 0 0 464.0625 225 A 14.0625 14.0625 0 0 1 450 239.0625 A 14.0625 14.0625 0 0 1 435.9375 225 A 14.0625 14.0625 0 0 0 421.875 210.9375 A 14.0625 14.0625 0 0 1 407.8125 196.875 A 14.0625 14.0625 0 0 1 421.875 182.8125 L 435.9375 182.8125 L 450 182.8125 A 14.0625 14.0625 0 0 0 464.0625 168.75 L 464.0625 154.6875 L 464.0625 140.625 A 14.0625 14.0625 0 0 0 450 126.5625 A 14.0625 14.0625 0 0 0 435.9375 140.625 A 14.0625 14.0625 0 0 1 421.875 154.6875 L 407.8125 154.6875 L 393.75 154.6875 A 14.0625 14.0625 0 0 0 379.6875 168.75 A 14.0625 14.0625 0 0 0 365.625 154.6875 A 14.0625 14.0625 0 0 0 351.5625 168.75 L 351.5625 182.8125 M 506.25 98.4375 A 14.0625 14.0625 0 0 0 520.3125 84.375 L 520.3125 84.375 M 562.5 98.4375 A 14.0625 14.0625 0 0 0 548.4375 112.5 A 14.0625 14.0625 0 0 0 562.5 126.5625 L 576.5625 126.5625 L 590.625 126.5625 A 14.0625 14.0625 0 0 0 604.6875 112.5 L 604.6875 98.4375 M 562.5 98.4375 A 14.0625 14.0625 0 0 0 576.5625 84.375 M 632.8125 84.375 A 14.0625 14.0625 0 0 0 646.875 98.4375 M 267.1875 140.625 A 14.0625 14.0625 0 0 0 253.125 126.5625 L 239.0625 126.5625 M 534.375 126.5625 A 14.0625 14.0625 0 0 0 548.4375 112.5 L 548.4375 112.5 M 646.875 126.5625 A 14.0625 14.0625 0 0 0 632.8125 140.625 A 14.0625 14.0625 0 0 1 618.75 154.6875 L 604.6875 154.6875 L 576.5625 154.6875 L 548.4375 154.6875 L 534.375 154.6875 A 14.0625 14.0625 0 0 0 520.3125 168.75 A 14.0625 14.0625 0 0 0 534.375 182.8125 L 548.4375 182.8125 L 576.5625 182.8125 L 590.625 182.8125 A 14.0625 14.0625 0 0 1 604.6875 196.875 A 14.0625 14.0625 0 0 1 590.625 210.9375 A 14.0625 14.0625 0 0 0 576.5625 225 A 14.0625 14.0625 0 0 1 562.5 239.0625 A 14.0625 14.0625 0 0 0 548.4375 253.125 A 14.0625 14.0625 0 0 1 534.375 267.1875 A 14.0625 14.0625 0 0 0 520.3125 281.25 L 520.3125 295.3125 L 520.3125 309.375 A 14.0625 14.0625 0 0 0 534.375 323.4375 L 548.4375 323.4375 L 562.5 323.4375 A 14.0625 14.0625 0 0 0 576.5625 309.375 L 576.5625 295.3125 L 576.5625 281.25 A 14.0625 14.0625 0 0 1 590.625 267.1875 A 14.0625 14.0625 0 0 1 604.6875 281.25 L 604.6875 295.3125 L 604.6875 323.4375 L 604.6875 337.5 A 14.0625 14.0625 0 0 1 590.625 351.5625 A 14.0625 14.0625 0 0 0 576.5625 365.625 A 14.0625 14.0625 0 0 0 590.625 379.6875 A 14.0625 14.0625 0 0 0 576.5625 393.75 L 576.5625 407.8125 M 660.9375 140.625 A 14.0625 14.0625 0 0 0 646.875 126.5625 L 646.875 126.5625 M 182.8125 168.75 A 14.0625 14.0625 0 0 0 168.75 154.6875 M 239.0625 168.75 A 14.0625 14.0625 0 0 0 225 154.6875 L 210.9375 154.6875 M 323.4375 168.75 A 14.0625 14.0625 0 0 0 309.375 154.6875 L 309.375 154.6875 M 660.9375 140.625 A 14.0625 14.0625 0 0 0 675 154.6875 L 689.0625 154.6875 L 717.1875 154.6875 M 168.75 182.8125 A 14.0625 14.0625 0 0 0 154.6875 196.875 L 154.6875 210.9375 M 182.8125 168.75 A 14.0625 14.0625 0 0 0 196.875 182.8125 L 210.9375 182.8125 L 225 182.8125 A 14.0625 14.0625 0 0 0 239.0625 168.75 L 239.0625 168.75 M 168.75 182.8125 A 14.0625 14.0625 0 0 0 182.8125 168.75 L 182.8125 168.75 M 267.1875 168.75 A 14.0625 14.0625 0 0 0 281.25 182.8125 A 14.0625 14.0625 0 0 1 295.3125 196.875 A 14.0625 14.0625 0 0 1 281.25 210.9375 L 267.1875 210.9375 L 253.125 210.9375 A 14.0625 14.0625 0 0 0 239.0625 225 A 14.0625 14.0625 0 0 1 225 239.0625 A 14.0625 14.0625 0 0 1 210.9375 225 A 14.0625 14.0625 0 0 0 196.875 210.9375 A 14.0625 14.0625 0 0 0 182.8125 225 A 14.0625 14.0625 0 0 1 168.75 239.0625 L 154.6875 239.0625 L 126.5625 239.0625 M 731.25 182.8125 A 14.0625 14.0625 0 0 0 717.1875 196.875 A 14.0625 14.0625 0 0 0 703.125 182.8125 L 689.0625 182.8125 L 660.9375 182.8125 L 632.8125 182.8125 M 323.4375 196.875 A 14.0625 14.0625 0 0 0 337.5 210.9375 L 351.5625 210.9375 L 365.625 210.9375 A 14.0625 14.0625 0 0 0 379.6875 196.875 L 379.6875 182.8125 L 379.6875 168.75 M 492.1875 225 A 14.0625 14.0625 0 0 0 478.125 210.9375 L 478.125 210.9375 M 534.375 210.9375 A 14.0625 14.0625 0 0 0 520.3125 225 A 14.0625 14.0625 0 0 1 506.25 239.0625 A 14.0625 14.0625 0 0 1 492.1875 225 L 492.1875 225 M 646.875 210.9375 A 14.0625 14.0625 0 0 0 632.8125 225 A 14.0625 14.0625 0 0 1 618.75 239.0625 A 14.0625 14.0625 0 0 1 632.8125 253.125 L 632.8125 267.1875 L 632.8125 295.3125 L 632.8125 323.4375 L 632.8125 351.5625 L 632.8125 379.6875 L 632.8125 393.75 A 14.0625 14.0625 0 0 0 646.875 407.8125 A 14.0625 14.0625 0 0 0 632.8125 421.875 A 14.0625 14.0625 0 0 0 646.875 435.9375 L 660.9375 435.9375 M 689.0625 225 A 14.0625 14.0625 0 0 0 675 210.9375 L 660.9375 210.9375 L 646.875 210.9375 M 717.1875 196.875 A 14.0625 14.0625 0 0 0 731.25 210.9375 A 14.0625 14.0625 0 0 1 745.3125 225 A 14.0625 14.0625 0 0 0 759.375 239.0625 A 14.0625 14.0625 0 0 1 773.4375 253.125 A 14.0625 14.0625 0 0 1 759.375 267.1875 L 745.3125 267.1875 L 731.25 267.1875 A 14.0625 14.0625 0 0 0 717.1875 281.25 A 14.0625 14.0625 0 0 0 731.25 295.3125 A 14.0625 14.0625 0 0 1 745.3125 309.375 A 14.0625 14.0625 0 0 1 759.375 295.3125 L 773.4375 295.3125 L 787.5 295.3125 A 14.0625 14.0625 0 0 0 801.5625 281.25 A 14.0625 14.0625 0 0 1 815.625 267.1875 M 239.0625 253.125 A 14.0625 14.0625 0 0 0 225 239.0625 L 225 239.0625 M 281.25 239.0625 A 14.0625 14.0625 0 0 0 267.1875 253.125 L 267.1875 267.1875 L 267.1875 281.25 A 14.0625 14.0625 0 0 0 281.25 295.3125 A 14.0625 14.0625 0 0 1 295.3125 309.375 A 14.0625 14.0625 0 0 1 281.25 323.4375 A 14.0625 14.0625 0 0 0 267.1875 337.5 L 267.1875 351.5625 L 267.1875 379.6875 L 267.1875 407.8125 L 267.1875 435.9375 L 267.1875 450 A 14.0625 14.0625 0 0 1 253.125 464.0625 A 14.0625 14.0625 0 0 0 239.0625 478.125 A 14.0625 14.0625 0 0 1 225 492.1875 A 14.0625 14.0625 0 0 0 210.9375 506.25 A 14.0625 14.0625 0 0 0 225 520.3125 L 239.0625 520.3125 L 253.125 520.3125 A 14.0625 14.0625 0 0 0 267.1875 506.25 A 14.0625 14.0625 0 0 1 281.25 492.1875 A 14.0625 14.0625 0 0 1 295.3125 506.25 A 14.0625 14.0625 0 0 0 309.375 520.3125 L 323.4375 520.3125 L 337.5 520.3125 A 14.0625 14.0625 0 0 1 351.5625 534.375 A 14.0625 14.0625 0 0 1 337.5 548.4375 L 323.4375 548.4375 L 295.3125 548.4375 L 281.25 548.4375 A 14.0625 14.0625 0 0 0 267.1875 562.5 A 14.0625 14.0625 0 0 1 253.125 576.5625 A 14.0625 14.0625 0 0 0 239.0625 590.625 A 14.0625 14.0625 0 0 0 253.125 604.6875 A 14.0625 14.0625 0 0 1 267.1875 618.75 A 14.0625 14.0625 0 0 0 281.25 632.8125 A 14.0625 14.0625 0 0 0 295.3125 618.75 L 295.3125 604.6875 L 295.3125 590.625 A 14.0625 14.0625 0 0 1 309.375 576.5625 L 323.4375 576.5625 L 337.5 576.5625 A 14.0625 14.0625 0 0 1 351.5625 590.625 A 14.0625 14.0625 0 0 1 337.5 604.6875 A 14.0625 14.0625 0 0 0 323.4375 618.75 L 323.4375 632.8125 L 323.4375 646.875 A 14.0625 14.0625 0 0 0 337.5 660.9375 A 14.0625 14.0625 0 0 0 351.5625 646.875 A 14.0625 14.0625 0 0 1 365.625 632.8125 A 14.0625 14.0625 0 0 0 379.6875 618.75 L 379.6875 604.6875 L 379.6875 576.5625 L 379.6875 548.4375 L 379.6875 534.375 A 14.0625 14.0625 0 0 1 393.75 520.3125 L 407.8125 520.3125 L 421.875 520.3125 A 14.0625 14.0625 0 0 0 435.9375 506.25 A 14.0625 14.0625 0 0 1 450 492.1875 A 14.0625 14.0625 0 0 0 464.0625 478.125 L 464.0625 464.0625 M 295.3125 253.125 A 14.0625 14.0625 0 0 0 281.25 239.0625 L 281.25 239.0625 M 337.5 239.0625 A 14.0625 14.0625 0 0 0 323.4375 253.125 A 14.0625 14.0625 0 0 1 309.375 267.1875 A 14.0625 14.0625 0 0 1 295.3125 253.125 L 295.3125 253.125 M 351.5625 253.125 A 14.0625 14.0625 0 0 0 337.5 239.0625 L 337.5 239.0625 M 393.75 239.0625 A 14.0625 14.0625 0 0 0 379.6875 253.125 A 14.0625 14.0625 0 0 1 365.625 267.1875 A 14.0625 14.0625 0 0 1 351.5625 253.125 L 351.5625 253.125 M 407.8125 253.125 A 14.0625 14.0625 0 0 0 393.75 239.0625 L 393.75 239.0625 M 689.0625 225 A 14.0625 14.0625 0 0 0 703.125 239.0625 L 717.1875 239.0625 L 731.25 239.0625 A 14.0625 14.0625 0 0 0 745.3125 225 L 745.3125 225 M 140.625 267.1875 A 14.0625 14.0625 0 0 0 126.5625 281.25 L 126.5625 295.3125 L 126.5625 309.375 A 14.0625 14.0625 0 0 0 140.625 323.4375 A 14.0625 14.0625 0 0 0 154.6875 309.375 A 14.0625 14.0625 0 0 1 168.75 295.3125 L 182.8125 295.3125 L 196.875 295.3125 A 14.0625 14.0625 0 0 0 210.9375 281.25 A 14.0625 14.0625 0 0 1 225 267.1875 A 14.0625 14.0625 0 0 0 239.0625 253.125 L 239.0625 253.125 M 407.8125 253.125 A 14.0625 14.0625 0 0 0 421.875 267.1875 L 435.9375 267.1875 L 464.0625 267.1875 L 478.125 267.1875 A 14.0625 14.0625 0 0 1 492.1875 281.25 L 492.1875 295.3125 L 492.1875 309.375 A 14.0625 14.0625 0 0 1 478.125 323.4375 A 14.0625 14.0625 0 0 1 464.0625 309.375 A 14.0625 14.0625 0 0 0 450 295.3125 A 14.0625 14.0625 0 0 0 435.9375 309.375 L 435.9375 323.4375 L 435.9375 351.5625 L 435.9375 379.6875 L 435.9375 393.75 A 14.0625 14.0625 0 0 1 421.875 407.8125 A 14.0625 14.0625 0 0 1 407.8125 393.75 A 14.0625 14.0625 0 0 0 393.75 379.6875 A 14.0625 14.0625 0 0 1 379.6875 365.625 A 14.0625 14.0625 0 0 1 393.75 351.5625 A 14.0625 14.0625 0 0 0 407.8125 337.5 L 407.8125 323.4375 L 407.8125 309.375 A 14.0625 14.0625 0 0 0 393.75 295.3125 L 379.6875 295.3125 L 365.625 295.3125 A 14.0625 14.0625 0 0 0 351.5625 309.375 A 14.0625 14.0625 0 0 0 365.625 323.4375 L 379.6875 323.4375 M 548.4375 281.25 A 14.0625 14.0625 0 0 0 534.375 267.1875 L 534.375 267.1875 M 660.9375 253.125 A 14.0625 14.0625 0 0 0 675 267.1875 A 14.0625 14.0625 0 0 0 660.9375 281.25 L 660.9375 295.3125 L 660.9375 309.375 A 14.0625 14.0625 0 0 0 675 323.4375 L 689.0625 323.4375 L 703.125 323.4375 A 14.0625 14.0625 0 0 1 717.1875 337.5 A 14.0625 14.0625 0 0 1 731.25 323.4375 A 14.0625 14.0625 0 0 0 745.3125 309.375 L 745.3125 309.375 M 689.0625 281.25 A 14.0625 14.0625 0 0 0 675 267.1875 L 675 267.1875 M 154.6875 309.375 A 14.0625 14.0625 0 0 0 168.75 323.4375 A 14.0625 14.0625 0 0 1 182.8125 337.5 A 14.0625 14.0625 0 0 0 196.875 351.5625 A 14.0625 14.0625 0 0 0 210.9375 337.5 A 14.0625 14.0625 0 0 1 225 323.4375 A 14.0625 14.0625 0 0 1 239.0625 337.5 L 239.0625 351.5625 L 239.0625 379.6875 L 239.0625 393.75 A 14.0625 14.0625 0 0 1 225 407.8125 A 14.0625 14.0625 0 0 1 210.9375 393.75 L 210.9375 379.6875 M 225 323.4375 A 14.0625 14.0625 0 0 0 239.0625 309.375 L 239.0625 295.3125 M 323.4375 309.375 A 14.0625 14.0625 0 0 0 337.5 323.4375 A 14.0625 14.0625 0 0 0 323.4375 337.5 A 14.0625 14.0625 0 0 1 309.375 351.5625 A 14.0625 14.0625 0 0 0 295.3125 365.625 A 14.0625 14.0625 0 0 0 309.375 379.6875 L 323.4375 379.6875 L 337.5 379.6875 A 14.0625 14.0625 0 0 1 351.5625 393.75 A 14.0625 14.0625 0 0 1 337.5 407.8125 L 323.4375 407.8125 L 309.375 407.8125 A 14.0625 14.0625 0 0 0 295.3125 421.875 L 295.3125 435.9375 L 295.3125 450 A 14.0625 14.0625 0 0 0 309.375 464.0625 L 323.4375 464.0625 L 337.5 464.0625 A 14.0625 14.0625 0 0 0 351.5625 450 A 14.0625 14.0625 0 0 1 365.625 435.9375 A 14.0625 14.0625 0 0 0 379.6875 421.875 A 14.0625 14.0625 0 0 0 393.75 435.9375 L 407.8125 435.9375 L 421.875 435.9375 A 14.0625 14.0625 0 0 1 435.9375 450 A 14.0625 14.0625 0 0 1 450 435.9375 A 14.0625 14.0625 0 0 0 464.0625 421.875 L 464.0625 407.8125 L 464.0625 379.6875 L 464.0625 365.625 A 14.0625 14.0625 0 0 1 478.125 351.5625 L 492.1875 351.5625 L 520.3125 351.5625 L 534.375 351.5625 A 14.0625 14.0625 0 0 1 548.4375 365.625 L 548.4375 379.6875 L 548.4375 407.8125 L 548.4375 435.9375 L 548.4375 450 A 14.0625 14.0625 0 0 1 534.375 464.0625 L 520.3125 464.0625 L 506.25 464.0625 A 14.0625 14.0625 0 0 1 492.1875 450 L 492.1875 435.9375 L 492.1875 421.875 A 14.0625 14.0625 0 0 1 506.25 407.8125 A 14.0625 14.0625 0 0 1 520.3125 421.875 L 520.3125 435.9375 M 337.5 323.4375 A 14.0625 14.0625 0 0 0 351.5625 309.375 L 351.5625 309.375 M 787.5 323.4375 A 14.0625 14.0625 0 0 0 773.4375 337.5 L 773.4375 351.5625 L 773.4375 365.625 A 14.0625 14.0625 0 0 0 787.5 379.6875 A 14.0625 14.0625 0 0 1 801.5625 393.75 A 14.0625 14.0625 0 0 1 787.5 407.8125 A 14.0625 14.0625 0 0 0 773.4375 421.875 A 14.0625 14.0625 0 0 1 759.375 435.9375 L 745.3125 435.9375 L 717.1875 435.9375 L 703.125 435.9375 A 14.0625 14.0625 0 0 1 689.0625 421.875 A 14.0625 14.0625 0 0 1 703.125 407.8125 L 717.1875 407.8125 L 731.25 407.8125 A 14.0625 14.0625 0 0 0 745.3125 393.75 A 14.0625 14.0625 0 0 0 731.25 379.6875 L 717.1875 379.6875 L 703.125 379.6875 A 14.0625 14.0625 0 0 1 689.0625 365.625 A 14.0625 14.0625 0 0 0 675 351.5625 A 14.0625 14.0625 0 0 0 660.9375 365.625 L 660.9375 379.6875 L 660.9375 393.75 A 14.0625 14.0625 0 0 1 646.875 407.8125 L 646.875 407.8125 M 70.3125 365.625 A 14.0625 14.0625 0 0 0 56.25 351.5625 M 98.4375 337.5 A 14.0625 14.0625 0 0 0 112.5 351.5625 L 126.5625 351.5625 L 140.625 351.5625 A 14.0625 14.0625 0 0 1 154.6875 365.625 A 14.0625 14.0625 0 0 0 168.75 379.6875 A 14.0625 14.0625 0 0 1 182.8125 393.75 A 14.0625 14.0625 0 0 1 168.75 407.8125 L 154.6875 407.8125 L 140.625 407.8125 A 14.0625 14.0625 0 0 1 126.5625 393.75 A 14.0625 14.0625 0 0 0 112.5 379.6875 A 14.0625 14.0625 0 0 0 98.4375 393.75 A 14.0625 14.0625 0 0 1 84.375 407.8125 A 14.0625 14.0625 0 0 1 70.3125 393.75 L 70.3125 379.6875 L 70.3125 365.625 M 717.1875 337.5 A 14.0625 14.0625 0 0 0 731.25 351.5625 L 745.3125 351.5625 M 815.625 351.5625 A 14.0625 14.0625 0 0 0 801.5625 365.625 A 14.0625 14.0625 0 0 1 787.5 379.6875 L 787.5 379.6875 M 829.6875 365.625 A 14.0625 14.0625 0 0 0 815.625 351.5625 L 815.625 351.5625 M 337.5 379.6875 A 14.0625 14.0625 0 0 0 351.5625 365.625 L 351.5625 351.5625 M 520.3125 393.75 A 14.0625 14.0625 0 0 0 506.25 379.6875 L 492.1875 379.6875 M 604.6875 393.75 A 14.0625 14.0625 0 0 0 590.625 379.6875 L 590.625 379.6875 M 239.0625 421.875 A 14.0625 14.0625 0 0 0 225 407.8125 L 225 407.8125 M 506.25 407.8125 A 14.0625 14.0625 0 0 0 520.3125 393.75 L 520.3125 393.75 M 843.75 407.8125 A 14.0625 14.0625 0 0 0 829.6875 421.875 A 14.0625 14.0625 0 0 1 815.625 435.9375 A 14.0625 14.0625 0 0 0 801.5625 450 A 14.0625 14.0625 0 0 0 815.625 464.0625 A 14.0625 14.0625 0 0 0 801.5625 478.125 L 801.5625 492.1875 M 140.625 435.9375 A 14.0625 14.0625 0 0 0 126.5625 450 A 14.0625 14.0625 0 0 0 112.5 435.9375 L 98.4375 435.9375 L 70.3125 435.9375 M 210.9375 450 A 14.0625 14.0625 0 0 0 196.875 435.9375 L 182.8125 435.9375 L 154.6875 435.9375 L 140.625 435.9375 M 351.5625 450 A 14.0625 14.0625 0 0 0 337.5 435.9375 L 323.4375 435.9375 M 590.625 435.9375 A 14.0625 14.0625 0 0 0 576.5625 450 A 14.0625 14.0625 0 0 0 590.625 464.0625 A 14.0625 14.0625 0 0 1 604.6875 478.125 A 14.0625 14.0625 0 0 1 618.75 464.0625 A 14.0625 14.0625 0 0 1 632.8125 478.125 A 14.0625 14.0625 0 0 0 646.875 492.1875 A 14.0625 14.0625 0 0 0 660.9375 478.125 A 14.0625 14.0625 0 0 1 675 464.0625 L 689.0625 464.0625 L 703.125 464.0625 A 14.0625 14.0625 0 0 1 717.1875 478.125 A 14.0625 14.0625 0 0 0 731.25 492.1875 A 14.0625 14.0625 0 0 0 745.3125 478.125 A 14.0625 14.0625 0 0 1 759.375 464.0625 A 14.0625 14.0625 0 0 1 773.4375 478.125 L 773.4375 492.1875 L 773.4375 506.25 A 14.0625 14.0625 0 0 1 759.375 520.3125 L 745.3125 520.3125 L 717.1875 520.3125 L 703.125 520.3125 A 14.0625 14.0625 0 0 0 689.0625 534.375 A 14.0625 14.0625 0 0 1 675 548.4375 A 14.0625 14.0625 0 0 1 660.9375 534.375 A 14.0625 14.0625 0 0 0 646.875 520.3125 L 632.8125 520.3125 L 618.75 520.3125 A 14.0625 14.0625 0 0 0 604.6875 534.375 A 14.0625 14.0625 0 0 1 590.625 548.4375 A 14.0625 14.0625 0 0 1 576.5625 534.375 L 576.5625 520.3125 L 576.5625 506.25 A 14.0625 14.0625 0 0 0 562.5 492.1875 A 14.0625 14.0625 0 0 0 548.4375 506.25 A 14.0625 14.0625 0 0 0 534.375 492.1875 A 14.0625 14.0625 0 0 0 520.3125 506.25 L 520.3125 520.3125 M 590.625 435.9375 A 14.0625 14.0625 0 0 0 604.6875 421.875 L 604.6875 407.8125 L 604.6875 393.75 M 98.4375 478.125 A 14.0625 14.0625 0 0 0 84.375 464.0625 L 70.3125 464.0625 M 168.75 464.0625 A 14.0625 14.0625 0 0 0 154.6875 478.125 A 14.0625 14.0625 0 0 1 140.625 492.1875 L 126.5625 492.1875 L 112.5 492.1875 A 14.0625 14.0625 0 0 1 98.4375 478.125 A 14.0625 14.0625 0 0 1 84.375 492.1875 L 70.3125 492.1875 M 196.875 464.0625 A 14.0625 14.0625 0 0 0 182.8125 478.125 A 14.0625 14.0625 0 0 0 168.75 464.0625 L 168.75 464.0625 M 196.875 464.0625 A 14.0625 14.0625 0 0 0 210.9375 450 L 210.9375 450 M 421.875 464.0625 A 14.0625 14.0625 0 0 0 407.8125 478.125 A 14.0625 14.0625 0 0 1 393.75 492.1875 A 14.0625 14.0625 0 0 1 379.6875 478.125 A 14.0625 14.0625 0 0 1 365.625 492.1875 L 351.5625 492.1875 L 323.4375 492.1875 M 421.875 464.0625 A 14.0625 14.0625 0 0 0 435.9375 450 L 435.9375 450 M 506.25 464.0625 A 14.0625 14.0625 0 0 0 492.1875 478.125 L 492.1875 492.1875 L 492.1875 506.25 A 14.0625 14.0625 0 0 1 478.125 520.3125 A 14.0625 14.0625 0 0 0 464.0625 534.375 A 14.0625 14.0625 0 0 0 478.125 548.4375 L 492.1875 548.4375 L 520.3125 548.4375 L 534.375 548.4375 A 14.0625 14.0625 0 0 0 548.4375 534.375 L 548.4375 520.3125 L 548.4375 506.25 M 829.6875 478.125 A 14.0625 14.0625 0 0 0 815.625 464.0625 L 815.625 464.0625 M 660.9375 478.125 A 14.0625 14.0625 0 0 0 675 492.1875 L 689.0625 492.1875 M 70.3125 534.375 A 14.0625 14.0625 0 0 0 56.25 520.3125 M 140.625 520.3125 A 14.0625 14.0625 0 0 0 126.5625 534.375 A 14.0625 14.0625 0 0 0 140.625 548.4375 A 14.0625 14.0625 0 0 1 154.6875 562.5 L 154.6875 576.5625 L 154.6875 604.6875 L 154.6875 618.75 A 14.0625 14.0625 0 0 0 168.75 632.8125 L 182.8125 632.8125 L 196.875 632.8125 A 14.0625 14.0625 0 0 1 210.9375 646.875 A 14.0625 14.0625 0 0 0 225 660.9375 A 14.0625 14.0625 0 0 0 239.0625 646.875 A 14.0625 14.0625 0 0 0 253.125 660.9375 L 267.1875 660.9375 L 281.25 660.9375 A 14.0625 14.0625 0 0 1 295.3125 675 A 14.0625 14.0625 0 0 1 281.25 689.0625 L 267.1875 689.0625 L 239.0625 689.0625 L 225 689.0625 A 14.0625 14.0625 0 0 0 210.9375 703.125 A 14.0625 14.0625 0 0 0 196.875 689.0625 L 182.8125 689.0625 L 154.6875 689.0625 M 168.75 520.3125 A 14.0625 14.0625 0 0 0 182.8125 506.25 L 182.8125 492.1875 L 182.8125 478.125 M 815.625 520.3125 A 14.0625 14.0625 0 0 0 801.5625 534.375 A 14.0625 14.0625 0 0 0 815.625 548.4375 L 829.6875 548.4375 M 815.625 520.3125 A 14.0625 14.0625 0 0 0 829.6875 506.25 L 829.6875 492.1875 L 829.6875 478.125 M 98.4375 534.375 A 14.0625 14.0625 0 0 0 112.5 548.4375 A 14.0625 14.0625 0 0 0 126.5625 534.375 L 126.5625 534.375 M 196.875 548.4375 A 14.0625 14.0625 0 0 0 182.8125 562.5 L 182.8125 576.5625 L 182.8125 590.625 A 14.0625 14.0625 0 0 0 196.875 604.6875 A 14.0625 14.0625 0 0 1 210.9375 618.75 A 14.0625 14.0625 0 0 1 196.875 632.8125 M 225 548.4375 A 14.0625 14.0625 0 0 0 210.9375 562.5 A 14.0625 14.0625 0 0 0 196.875 548.4375 L 196.875 548.4375 M 421.875 548.4375 A 14.0625 14.0625 0 0 0 407.8125 562.5 L 407.8125 576.5625 L 407.8125 590.625 A 14.0625 14.0625 0 0 0 421.875 604.6875 A 14.0625 14.0625 0 0 0 407.8125 618.75 L 407.8125 632.8125 L 407.8125 646.875 A 14.0625 14.0625 0 0 0 421.875 660.9375 A 14.0625 14.0625 0 0 1 435.9375 675 A 14.0625 14.0625 0 0 0 450 689.0625 A 14.0625 14.0625 0 0 0 435.9375 703.125 L 435.9375 717.1875 L 435.9375 731.25 A 14.0625 14.0625 0 0 1 421.875 745.3125 L 407.8125 745.3125 L 379.6875 745.3125 L 365.625 745.3125 A 14.0625 14.0625 0 0 0 351.5625 759.375 A 14.0625 14.0625 0 0 0 365.625 773.4375 L 379.6875 773.4375 L 407.8125 773.4375 L 421.875 773.4375 A 14.0625 14.0625 0 0 1 435.9375 787.5 A 14.0625 14.0625 0 0 0 450 801.5625 A 14.0625 14.0625 0 0 0 435.9375 815.625 A 14.0625 14.0625 0 0 1 421.875 829.6875 L 407.8125 829.6875 L 393.75 829.6875 A 14.0625 14.0625 0 0 0 379.6875 843.75 M 435.9375 562.5 A 14.0625 14.0625 0 0 0 421.875 548.4375 L 421.875 548.4375 M 759.375 548.4375 A 14.0625 14.0625 0 0 0 745.3125 562.5 A 14.0625 14.0625 0 0 0 759.375 576.5625 A 14.0625 14.0625 0 0 1 773.4375 590.625 A 14.0625 14.0625 0 0 1 759.375 604.6875 A 14.0625 14.0625 0 0 0 745.3125 618.75 A 14.0625 14.0625 0 0 1 731.25 632.8125 A 14.0625 14.0625 0 0 0 717.1875 646.875 A 14.0625 14.0625 0 0 0 731.25 660.9375 A 14.0625 14.0625 0 0 1 745.3125 675 A 14.0625 14.0625 0 0 0 759.375 689.0625 M 787.5 548.4375 A 14.0625 14.0625 0 0 0 801.5625 534.375 L 801.5625 534.375 M 98.4375 590.625 A 14.0625 14.0625 0 0 0 84.375 576.5625 M 435.9375 562.5 A 14.0625 14.0625 0 0 0 450 576.5625 L 464.0625 576.5625 L 492.1875 576.5625 L 520.3125 576.5625 L 548.4375 576.5625 L 576.5625 576.5625 L 604.6875 576.5625 L 618.75 576.5625 A 14.0625 14.0625 0 0 0 632.8125 562.5 A 14.0625 14.0625 0 0 0 646.875 576.5625 L 660.9375 576.5625 L 689.0625 576.5625 L 703.125 576.5625 A 14.0625 14.0625 0 0 1 717.1875 590.625 A 14.0625 14.0625 0 0 1 703.125 604.6875 A 14.0625 14.0625 0 0 0 689.0625 618.75 A 14.0625 14.0625 0 0 1 675 632.8125 A 14.0625 14.0625 0 0 1 660.9375 618.75 A 14.0625 14.0625 0 0 0 646.875 604.6875 L 632.8125 604.6875 M 703.125 576.5625 A 14.0625 14.0625 0 0 0 717.1875 562.5 L 717.1875 548.4375 M 815.625 576.5625 A 14.0625 14.0625 0 0 0 801.5625 590.625 L 801.5625 604.6875 L 801.5625 618.75 A 14.0625 14.0625 0 0 1 787.5 632.8125 A 14.0625 14.0625 0 0 0 773.4375 646.875 L 773.4375 660.9375 M 435.9375 618.75 A 14.0625 14.0625 0 0 0 421.875 604.6875 L 421.875 604.6875 M 478.125 604.6875 A 14.0625 14.0625 0 0 0 464.0625 618.75 A 14.0625 14.0625 0 0 1 450 632.8125 A 14.0625 14.0625 0 0 1 435.9375 618.75 L 435.9375 618.75 M 604.6875 618.75 A 14.0625 14.0625 0 0 0 590.625 604.6875 L 576.5625 604.6875 L 548.4375 604.6875 L 520.3125 604.6875 L 492.1875 604.6875 L 478.125 604.6875 M 84.375 632.8125 A 14.0625 14.0625 0 0 0 98.4375 618.75 L 98.4375 604.6875 L 98.4375 590.625 M 506.25 632.8125 A 14.0625 14.0625 0 0 0 492.1875 646.875 A 14.0625 14.0625 0 0 1 478.125 660.9375 A 14.0625 14.0625 0 0 0 464.0625 675 A 14.0625 14.0625 0 0 1 450 689.0625 L 450 689.0625 M 548.4375 646.875 A 14.0625 14.0625 0 0 0 534.375 632.8125 L 520.3125 632.8125 L 506.25 632.8125 M 604.6875 618.75 A 14.0625 14.0625 0 0 0 618.75 632.8125 A 14.0625 14.0625 0 0 1 632.8125 646.875 A 14.0625 14.0625 0 0 1 618.75 660.9375 A 14.0625 14.0625 0 0 0 604.6875 675 L 604.6875 689.0625 L 604.6875 703.125 A 14.0625 14.0625 0 0 1 590.625 717.1875 A 14.0625 14.0625 0 0 1 576.5625 703.125 A 14.0625 14.0625 0 0 0 562.5 689.0625 A 14.0625 14.0625 0 0 0 548.4375 703.125 A 14.0625 14.0625 0 0 1 534.375 717.1875 A 14.0625 14.0625 0 0 0 520.3125 731.25 A 14.0625 14.0625 0 0 1 506.25 745.3125 A 14.0625 14.0625 0 0 1 492.1875 731.25 A 14.0625 14.0625 0 0 0 478.125 717.1875 A 14.0625 14.0625 0 0 0 464.0625 731.25 L 464.0625 745.3125 L 464.0625 759.375 A 14.0625 14.0625 0 0 0 478.125 773.4375 A 14.0625 14.0625 0 0 1 492.1875 787.5 L 492.1875 801.5625 L 492.1875 815.625 A 14.0625 14.0625 0 0 1 478.125 829.6875 A 14.0625 14.0625 0 0 0 464.0625 843.75 M 675 632.8125 A 14.0625 14.0625 0 0 0 660.9375 646.875 A 14.0625 14.0625 0 0 0 675 660.9375 A 14.0625 14.0625 0 0 0 660.9375 675 A 14.0625 14.0625 0 0 1 646.875 689.0625 A 14.0625 14.0625 0 0 0 632.8125 703.125 A 14.0625 14.0625 0 0 0 646.875 717.1875 L 660.9375 717.1875 M 801.5625 646.875 A 14.0625 14.0625 0 0 0 787.5 632.8125 L 787.5 632.8125 M 126.5625 646.875 A 14.0625 14.0625 0 0 0 140.625 660.9375 A 14.0625 14.0625 0 0 0 126.5625 675 M 534.375 660.9375 A 14.0625 14.0625 0 0 0 520.3125 675 A 14.0625 14.0625 0 0 1 506.25 689.0625 L 492.1875 689.0625 M 548.4375 646.875 A 14.0625 14.0625 0 0 0 562.5 660.9375 A 14.0625 14.0625 0 0 0 576.5625 646.875 L 576.5625 632.8125 M 534.375 660.9375 A 14.0625 14.0625 0 0 0 548.4375 646.875 L 548.4375 646.875 M 337.5 689.0625 A 14.0625 14.0625 0 0 0 323.4375 703.125 A 14.0625 14.0625 0 0 1 309.375 717.1875 A 14.0625 14.0625 0 0 0 295.3125 731.25 A 14.0625 14.0625 0 0 0 281.25 717.1875 L 267.1875 717.1875 L 239.0625 717.1875 M 379.6875 703.125 A 14.0625 14.0625 0 0 0 365.625 689.0625 A 14.0625 14.0625 0 0 0 379.6875 675 L 379.6875 660.9375 M 703.125 689.0625 A 14.0625 14.0625 0 0 0 689.0625 703.125 L 689.0625 717.1875 L 689.0625 731.25 A 14.0625 14.0625 0 0 0 703.125 745.3125 L 717.1875 745.3125 M 717.1875 703.125 A 14.0625 14.0625 0 0 0 703.125 689.0625 L 703.125 689.0625 M 168.75 717.1875 A 14.0625 14.0625 0 0 0 154.6875 731.25 M 182.8125 731.25 A 14.0625 14.0625 0 0 0 168.75 717.1875 L 168.75 717.1875 M 379.6875 703.125 A 14.0625 14.0625 0 0 0 393.75 717.1875 A 14.0625 14.0625 0 0 0 407.8125 703.125 L 407.8125 689.0625 M 365.625 717.1875 A 14.0625 14.0625 0 0 0 379.6875 703.125 L 379.6875 703.125 M 604.6875 731.25 A 14.0625 14.0625 0 0 0 590.625 717.1875 L 590.625 717.1875 M 717.1875 703.125 A 14.0625 14.0625 0 0 0 731.25 717.1875 L 745.3125 717.1875 M 210.9375 731.25 A 14.0625 14.0625 0 0 0 225 745.3125 L 239.0625 745.3125 L 253.125 745.3125 A 14.0625 14.0625 0 0 1 267.1875 759.375 A 14.0625 14.0625 0 0 0 281.25 773.4375 A 14.0625 14.0625 0 0 0 267.1875 787.5 A 14.0625 14.0625 0 0 0 253.125 773.4375 A 14.0625 14.0625 0 0 0 267.1875 759.375 L 267.1875 759.375 M 295.3125 731.25 A 14.0625 14.0625 0 0 0 309.375 745.3125 A 14.0625 14.0625 0 0 1 323.4375 759.375 A 14.0625 14.0625 0 0 1 309.375 773.4375 L 295.3125 773.4375 L 281.25 773.4375 M 520.3125 759.375 A 14.0625 14.0625 0 0 0 506.25 745.3125 L 506.25 745.3125 M 590.625 745.3125 A 14.0625 14.0625 0 0 0 604.6875 731.25 L 604.6875 731.25 M 646.875 745.3125 A 14.0625 14.0625 0 0 0 632.8125 759.375 A 14.0625 14.0625 0 0 1 618.75 773.4375 A 14.0625 14.0625 0 0 0 604.6875 787.5 A 14.0625 14.0625 0 0 0 618.75 801.5625 A 14.0625 14.0625 0 0 1 632.8125 815.625 M 675 745.3125 A 14.0625 14.0625 0 0 0 689.0625 731.25 M 562.5 773.4375 A 14.0625 14.0625 0 0 0 548.4375 787.5 A 14.0625 14.0625 0 0 1 534.375 801.5625 A 14.0625 14.0625 0 0 0 520.3125 815.625 A 14.0625 14.0625 0 0 0 534.375 829.6875 A 14.0625 14.0625 0 0 1 548.4375 843.75 M 576.5625 787.5 A 14.0625 14.0625 0 0 0 562.5 773.4375 L 562.5 773.4375 M 675 773.4375 A 14.0625 14.0625 0 0 0 660.9375 787.5 M 309.375 801.5625 A 14.0625 14.0625 0 0 0 295.3125 815.625 M 365.625 801.5625 A 14.0625 14.0625 0 0 0 351.5625 815.625 A 14.0625 14.0625 0 0 0 337.5 801.5625 L 323.4375 801.5625 L 309.375 801.5625 M 337.5 829.6875 A 14.0625 14.0625 0 0 0 351.5625 815.625 L 351.5625 815.625 M 365.625 70.3125 L 365.625 70.3125 M 267.1875 98.4375 L 295.3125 98.4375 L 309.375 98.4375 M 393.75 98.4375 L 393.75 98.4375 M 379.6875 112.5 L 379.6875 112.5 M 421.875 98.4375 L 421.875 98.4375 M 506.25 98.4375 L 506.25 98.4375 M 562.5 98.4375 L 562.5 98.4375 M 267.1875 140.625 L 267.1875 154.6875 L 267.1875 168.75 M 337.5 126.5625 L 337.5 126.5625 M 323.4375 140.625 L 323.4375 140.625 M 450 126.5625 L 450 126.5625 M 435.9375 140.625 L 435.9375 140.625 M 520.3125 126.5625 L 534.375 126.5625 M 632.8125 140.625 L 632.8125 140.625 M 660.9375 140.625 L 660.9375 140.625 M 323.4375 168.75 L 323.4375 182.8125 L 323.4375 196.875 M 365.625 154.6875 L 365.625 154.6875 M 520.3125 168.75 L 520.3125 168.75 M 168.75 182.8125 L 168.75 182.8125 M 281.25 182.8125 L 281.25 182.8125 M 295.3125 196.875 L 295.3125 196.875 M 407.8125 196.875 L 407.8125 196.875 M 604.6875 196.875 L 604.6875 196.875 M 731.25 182.8125 L 745.3125 182.8125 M 717.1875 196.875 L 717.1875 196.875 M 196.875 210.9375 L 196.875 210.9375 M 182.8125 225 L 182.8125 225 M 210.9375 225 L 210.9375 225 M 239.0625 225 L 239.0625 225 M 421.875 210.9375 L 421.875 210.9375 M 435.9375 225 L 435.9375 225 M 464.0625 225 L 464.0625 225 M 534.375 210.9375 L 548.4375 210.9375 M 520.3125 225 L 520.3125 225 M 590.625 210.9375 L 590.625 210.9375 M 576.5625 225 L 576.5625 225 M 632.8125 225 L 632.8125 225 M 689.0625 225 L 689.0625 225 M 731.25 210.9375 L 731.25 210.9375 M 323.4375 253.125 L 323.4375 253.125 M 379.6875 253.125 L 379.6875 253.125 M 407.8125 253.125 L 407.8125 253.125 M 450 239.0625 L 450 239.0625 M 506.25 239.0625 L 506.25 239.0625 M 562.5 239.0625 L 562.5 239.0625 M 548.4375 253.125 L 548.4375 253.125 M 604.6875 239.0625 L 618.75 239.0625 M 660.9375 239.0625 L 660.9375 253.125 M 759.375 239.0625 L 759.375 239.0625 M 773.4375 253.125 L 773.4375 253.125 M 98.4375 267.1875 L 98.4375 295.3125 L 98.4375 323.4375 L 98.4375 337.5 M 140.625 267.1875 L 154.6875 267.1875 L 182.8125 267.1875 M 225 267.1875 L 225 267.1875 M 210.9375 281.25 L 210.9375 281.25 M 309.375 267.1875 L 309.375 267.1875 M 365.625 267.1875 L 365.625 267.1875 M 548.4375 281.25 L 548.4375 295.3125 M 590.625 267.1875 L 590.625 267.1875 M 689.0625 281.25 L 689.0625 295.3125 M 717.1875 281.25 L 717.1875 281.25 M 801.5625 281.25 L 801.5625 281.25 M 154.6875 309.375 L 154.6875 309.375 M 281.25 295.3125 L 281.25 295.3125 M 295.3125 309.375 L 295.3125 309.375 M 323.4375 295.3125 L 323.4375 309.375 M 450 295.3125 L 450 295.3125 M 464.0625 309.375 L 464.0625 309.375 M 731.25 295.3125 L 731.25 295.3125 M 140.625 323.4375 L 140.625 323.4375 M 168.75 323.4375 L 168.75 323.4375 M 182.8125 337.5 L 182.8125 337.5 M 225 323.4375 L 225 323.4375 M 210.9375 337.5 L 210.9375 337.5 M 281.25 323.4375 L 281.25 323.4375 M 337.5 323.4375 L 337.5 323.4375 M 323.4375 337.5 L 323.4375 337.5 M 478.125 323.4375 L 478.125 323.4375 M 731.25 323.4375 L 731.25 323.4375 M 717.1875 337.5 L 717.1875 337.5 M 787.5 323.4375 L 801.5625 323.4375 M 154.6875 365.625 L 154.6875 365.625 M 196.875 351.5625 L 196.875 351.5625 M 309.375 351.5625 L 309.375 351.5625 M 295.3125 365.625 L 295.3125 365.625 M 393.75 351.5625 L 393.75 351.5625 M 379.6875 365.625 L 379.6875 365.625 M 590.625 351.5625 L 590.625 351.5625 M 576.5625 365.625 L 576.5625 365.625 M 675 351.5625 L 675 351.5625 M 689.0625 365.625 L 689.0625 365.625 M 801.5625 365.625 L 801.5625 365.625 M 829.6875 365.625 L 829.6875 379.6875 M 112.5 379.6875 L 112.5 379.6875 M 98.4375 393.75 L 98.4375 393.75 M 126.5625 393.75 L 126.5625 393.75 M 168.75 379.6875 L 168.75 379.6875 M 182.8125 393.75 L 182.8125 393.75 M 351.5625 393.75 L 351.5625 393.75 M 393.75 379.6875 L 393.75 379.6875 M 407.8125 393.75 L 407.8125 393.75 M 745.3125 393.75 L 745.3125 393.75 M 801.5625 393.75 L 801.5625 393.75 M 84.375 407.8125 L 84.375 407.8125 M 239.0625 421.875 L 239.0625 435.9375 M 379.6875 407.8125 L 379.6875 421.875 M 421.875 407.8125 L 421.875 407.8125 M 506.25 407.8125 L 506.25 407.8125 M 632.8125 421.875 L 632.8125 421.875 M 689.0625 421.875 L 689.0625 421.875 M 787.5 407.8125 L 787.5 407.8125 M 773.4375 421.875 L 773.4375 421.875 M 829.6875 421.875 L 829.6875 421.875 M 126.5625 450 L 126.5625 464.0625 M 365.625 435.9375 L 365.625 435.9375 M 351.5625 450 L 351.5625 450 M 450 435.9375 L 450 435.9375 M 590.625 435.9375 L 590.625 435.9375 M 576.5625 450 L 576.5625 450 M 815.625 435.9375 L 815.625 435.9375 M 801.5625 450 L 801.5625 450 M 98.4375 478.125 L 98.4375 478.125 M 154.6875 478.125 L 154.6875 478.125 M 196.875 464.0625 L 196.875 464.0625 M 253.125 464.0625 L 253.125 464.0625 M 239.0625 478.125 L 239.0625 478.125 M 379.6875 464.0625 L 379.6875 478.125 M 421.875 464.0625 L 421.875 464.0625 M 407.8125 478.125 L 407.8125 478.125 M 590.625 464.0625 L 590.625 464.0625 M 618.75 464.0625 L 618.75 464.0625 M 604.6875 478.125 L 604.6875 492.1875 M 632.8125 478.125 L 632.8125 478.125 M 660.9375 478.125 L 660.9375 478.125 M 717.1875 478.125 L 717.1875 478.125 M 759.375 464.0625 L 759.375 464.0625 M 745.3125 478.125 L 745.3125 478.125 M 225 492.1875 L 225 492.1875 M 210.9375 506.25 L 210.9375 506.25 M 281.25 492.1875 L 281.25 492.1875 M 267.1875 506.25 L 267.1875 506.25 M 295.3125 506.25 L 295.3125 506.25 M 393.75 492.1875 L 393.75 492.1875 M 450 492.1875 L 450 492.1875 M 435.9375 506.25 L 435.9375 506.25 M 534.375 492.1875 L 534.375 492.1875 M 562.5 492.1875 L 562.5 492.1875 M 646.875 492.1875 L 646.875 492.1875 M 731.25 492.1875 L 731.25 492.1875 M 70.3125 534.375 L 70.3125 548.4375 M 98.4375 520.3125 L 98.4375 534.375 M 140.625 520.3125 L 154.6875 520.3125 L 168.75 520.3125 M 351.5625 534.375 L 351.5625 534.375 M 478.125 520.3125 L 478.125 520.3125 M 464.0625 534.375 L 464.0625 534.375 M 604.6875 534.375 L 604.6875 534.375 M 660.9375 534.375 L 660.9375 534.375 M 689.0625 534.375 L 689.0625 534.375 M 815.625 520.3125 L 815.625 520.3125 M 112.5 548.4375 L 112.5 548.4375 M 140.625 548.4375 L 140.625 548.4375 M 225 548.4375 L 239.0625 548.4375 M 210.9375 562.5 L 210.9375 576.5625 M 267.1875 562.5 L 267.1875 562.5 M 435.9375 562.5 L 435.9375 562.5 M 590.625 548.4375 L 590.625 548.4375 M 632.8125 548.4375 L 632.8125 562.5 M 675 548.4375 L 675 548.4375 M 759.375 548.4375 L 773.4375 548.4375 L 787.5 548.4375 M 745.3125 562.5 L 745.3125 562.5 M 126.5625 576.5625 L 126.5625 604.6875 L 126.5625 632.8125 L 126.5625 646.875 M 253.125 576.5625 L 253.125 576.5625 M 239.0625 590.625 L 239.0625 590.625 M 351.5625 590.625 L 351.5625 590.625 M 717.1875 590.625 L 717.1875 590.625 M 759.375 576.5625 L 759.375 576.5625 M 773.4375 590.625 L 773.4375 590.625 M 196.875 604.6875 L 196.875 604.6875 M 210.9375 618.75 L 210.9375 618.75 M 253.125 604.6875 L 253.125 604.6875 M 267.1875 618.75 L 267.1875 618.75 M 337.5 604.6875 L 337.5 604.6875 M 464.0625 618.75 L 464.0625 618.75 M 604.6875 618.75 L 604.6875 618.75 M 660.9375 618.75 L 660.9375 618.75 M 703.125 604.6875 L 703.125 604.6875 M 689.0625 618.75 L 689.0625 618.75 M 759.375 604.6875 L 759.375 604.6875 M 745.3125 618.75 L 745.3125 618.75 M 210.9375 646.875 L 210.9375 646.875 M 239.0625 632.8125 L 239.0625 646.875 M 281.25 632.8125 L 281.25 632.8125 M 365.625 632.8125 L 365.625 632.8125 M 351.5625 646.875 L 351.5625 646.875 M 450 632.8125 L 450 632.8125 M 492.1875 646.875 L 492.1875 646.875 M 618.75 632.8125 L 618.75 632.8125 M 632.8125 646.875 L 632.8125 646.875 M 675 632.8125 L 675 632.8125 M 660.9375 646.875 L 660.9375 646.875 M 731.25 632.8125 L 731.25 632.8125 M 717.1875 646.875 L 717.1875 646.875 M 140.625 660.9375 L 154.6875 660.9375 L 182.8125 660.9375 M 225 660.9375 L 225 660.9375 M 295.3125 675 L 295.3125 675 M 337.5 660.9375 L 337.5 660.9375 M 421.875 660.9375 L 421.875 660.9375 M 435.9375 675 L 435.9375 675 M 478.125 660.9375 L 478.125 660.9375 M 464.0625 675 L 464.0625 675 M 534.375 660.9375 L 534.375 660.9375 M 520.3125 675 L 520.3125 675 M 562.5 660.9375 L 562.5 660.9375 M 618.75 660.9375 L 618.75 660.9375 M 675 660.9375 L 689.0625 660.9375 M 660.9375 675 L 660.9375 675 M 731.25 660.9375 L 731.25 660.9375 M 745.3125 675 L 745.3125 675 M 210.9375 703.125 L 210.9375 717.1875 L 210.9375 731.25 M 337.5 689.0625 L 351.5625 689.0625 L 365.625 689.0625 M 323.4375 703.125 L 323.4375 703.125 M 562.5 689.0625 L 562.5 689.0625 M 548.4375 703.125 L 548.4375 703.125 M 576.5625 703.125 L 576.5625 703.125 M 646.875 689.0625 L 646.875 689.0625 M 632.8125 703.125 L 632.8125 703.125 M 717.1875 703.125 L 717.1875 703.125 M 182.8125 731.25 L 182.8125 745.3125 M 309.375 717.1875 L 309.375 717.1875 M 295.3125 731.25 L 295.3125 731.25 M 351.5625 717.1875 L 365.625 717.1875 M 393.75 717.1875 L 393.75 717.1875 M 478.125 717.1875 L 478.125 717.1875 M 492.1875 731.25 L 492.1875 731.25 M 534.375 717.1875 L 534.375 717.1875 M 520.3125 731.25 L 520.3125 731.25 M 309.375 745.3125 L 309.375 745.3125 M 323.4375 759.375 L 323.4375 759.375 M 351.5625 759.375 L 351.5625 759.375 M 520.3125 759.375 L 520.3125 773.4375 M 548.4375 745.3125 L 576.5625 745.3125 L 590.625 745.3125 M 646.875 745.3125 L 660.9375 745.3125 L 675 745.3125 M 632.8125 759.375 L 632.8125 759.375 M 239.0625 773.4375 L 253.125 773.4375 M 267.1875 787.5 L 267.1875 801.5625 M 435.9375 787.5 L 435.9375 787.5 M 478.125 773.4375 L 478.125 773.4375 M 548.4375 787.5 L 548.4375 787.5 M 576.5625 787.5 L 576.5625 801.5625 M 618.75 773.4375 L 618.75 773.4375 M 604.6875 787.5 L 604.6875 787.5 M 365.625 801.5625 L 379.6875 801.5625 L 407.8125 801.5625 M 450 801.5625 L 464.0625 801.5625 M 435.9375 815.625 L 435.9375 815.625 M 534.375 801.5625 L 534.375 801.5625 M 520.3125 815.625 L 520.3125 815.625 M 618.75 801.5625 L 618.75 801.5625 M 478.125 829.6875 L 478.125 829.6875 M 534.375 829.6875 L 534.375 829.6875" fill="none" stroke="#ccff33" stroke-width="4.5" stroke-linecap="round" stroke-linejoin="round"/>
</svg>