<?xml version="1.0" encoding="utf-8"?>
<svg width="765" height="765" viewBox="0 0 900 900" xmlns="http://www.w3.org/2000/svg">
  <defs>
    <clipPath id="circleClip">
      <circle cx="450" cy="450" r="400"/>
    </clipPath>
  </defs>
  <circle cx="450" cy="450" r="400" fill="#000000" stroke="none"/>
  <path clip-path="url(#circleClip)" d="M 309.375 112.5 C 309.375 96.967 296.783 84.375 281.25 84.375 M 534.375 56.25 C 534.375 71.783 546.967 84.375 562.5 84.375 C 578.033 84.375 590.625 96.967 590.625 112.5 L 590.625 140.625 L 590.625 168.75 C 590.625 184.283 578.033 196.875 562.5 196.875 C 546.967 196.875 534.375 209.467 534.375 225 C 534.375 240.533 546.967 253.125 562.5 253.125 L 590.625 253.125 L 618.75 253.125 C 634.283 253.125 646.875 240.533 646.875 225 L 646.875 196.875 L 646.875 140.625 M 365.625 112.5 C 365.625 128.033 378.217 140.625 393.75 140.625 C 409.283 140.625 421.875 128.033 421.875 112.5 L 421.875 84.375 M 478.125 112.5 C 478.125 128.033 490.717 140.625 506.25 140.625 C 490.717 140.625 478.125 153.217 478.125 168.75 C 478.125 184.283 465.533 196.875 450 196.875 C 465.533 196.875 478.125 209.467 478.125 225 C 478.125 240.533 465.533 253.125 450 253.125 C 465.533 253.125 478.125 265.717 478.125 281.25 C 478.125 296.783 490.717 309.375 506.25 309.375 C 521.783 309.375 534.375 321.967 534.375 337.5 C 534.375 353.033 546.967 365.625 562.5 365.625 C 578.033 365.625 590.625 378.217 590.625 393.75 C 590.625 409.283 603.217 421.875 618.75 421.875 C 634.283 421.875 646.875 434.467 646.875 450 C 646.875 465.533 634.283 478.125 618.75 478.125 C 603.217 478.125 590.625 490.717 590.625 506.25 L 590.625 534.375 L 590.625 562.5 C 590.625 578.033 603.217 590.625 618.75 590.625 C 634.283 590.625 646.875 578.033 646.875 562.5 C 646.875 546.967 659.467 534.375 675 534.375 L 703.125 534.375 L 759.375 534.375 L 787.5 534.375 C 803.033 534.375 815.625 521.783 815.625 506.25 L 815.625 478.125 M 196.875 168.75 C 196.875 184.283 209.467 196.875 225 196.875 C 240.533 196.875 253.125 184.283 253.125 168.75 L 253.125 140.625 M 731.25 196.875 C 715.717 196.875 703.125 209.467 703.125 225 L 703.125 253.125 L 703.125 281.25 C 703.125 296.783 690.533 309.375 675 309.375 C 659.467 309.375 646.875 321.967 646.875 337.5 C 646.875 353.033 659.467 365.625 675 365.625 C 690.533 365.625 703.125 378.217 703.125 393.75 L 703.125 421.875 L 703.125 450 C 703.125 465.533 715.717 478.125 731.25 478.125 C 746.783 478.125 759.375 465.533 759.375 450 C 759.375 434.467 771.967 421.875 787.5 421.875 L 815.625 421.875 M 731.25 196.875 C 746.783 196.875 759.375 184.283 759.375 168.75 M 168.75 253.125 C 153.217 253.125 140.625 265.717 140.625 281.25 C 140.625 296.783 128.033 309.375 112.5 309.375 C 96.967 309.375 84.375 321.967 84.375 337.5 L 84.375 365.625 L 84.375 393.75 C 84.375 409.283 71.783 421.875 56.25 421.875 M 281.25 253.125 C 296.783 253.125 309.375 240.533 309.375 225 L 309.375 196.875 L 309.375 140.625 L 309.375 112.5 M 393.75 253.125 C 378.217 253.125 365.625 265.717 365.625 281.25 C 365.625 296.783 378.217 309.375 393.75 309.375 C 378.217 309.375 365.625 321.967 365.625 337.5 C 365.625 353.033 353.033 365.625 337.5 365.625 C 321.967 365.625 309.375 353.033 309.375 337.5 C 309.375 321.967 296.783 309.375 281.25 309.375 L 253.125 309.375 L 225 309.375 C 209.467 309.375 196.875 321.967 196.875 337.5 C 196.875 353.033 209.467 365.625 225 365.625 C 240.533 365.625 253.125 378.217 253.125 393.75 L 253.125 421.875 M 421.875 337.5 C 421.875 321.967 409.283 309.375 393.75 309.375 M 168.75 365.625 C 184.283 365.625 196.875 353.033 196.875 337.5 M 562.5 365.625 C 578.033 365.625 590.625 353.033 590.625 337.5 L 590.625 309.375 M 759.375 337.5 C 759.375 353.033 771.967 365.625 787.5 365.625 L 815.625 365.625 M 168.75 421.875 C 153.217 421.875 140.625 434.467 140.625 450 L 140.625 478.125 L 140.625 506.25 C 140.625 521.783 153.217 534.375 168.75 534.375 C 153.217 534.375 140.625 546.967 140.625 562.5 C 140.625 578.033 128.033 590.625 112.5 590.625 L 84.375 590.625 M 196.875 450 C 196.875 434.467 184.283 421.875 168.75 421.875 M 337.5 421.875 C 321.967 421.875 309.375 434.467 309.375 450 C 309.375 465.533 321.967 478.125 337.5 478.125 C 321.967 478.125 309.375 490.717 309.375 506.25 L 309.375 534.375 M 393.75 421.875 C 409.283 421.875 421.875 409.283 421.875 393.75 L 421.875 365.625 L 421.875 337.5 M 478.125 393.75 C 478.125 409.283 490.717 421.875 506.25 421.875 C 521.783 421.875 534.375 434.467 534.375 450 L 534.375 478.125 L 534.375 506.25 C 534.375 521.783 521.783 534.375 506.25 534.375 C 521.783 534.375 534.375 546.967 534.375 562.5 C 534.375 578.033 546.967 590.625 562.5 590.625 C 578.033 590.625 590.625 578.033 590.625 562.5 M 84.375 506.25 C 84.375 490.717 71.783 478.125 56.25 478.125 M 196.875 450 C 196.875 465.533 209.467 478.125 225 478.125 C 240.533 478.125 253.125 490.717 253.125 506.25 L 253.125 534.375 L 253.125 562.5 C 253.125 578.033 265.717 590.625 281.25 590.625 C 296.783 590.625 309.375 603.217 309.375 618.75 C 309.375 603.217 321.967 590.625 337.5 590.625 C 353.033 590.625 365.625 578.033 365.625 562.5 L 365.625 534.375 L 365.625 506.25 C 365.625 490.717 353.033 478.125 337.5 478.125 M 450 478.125 C 434.467 478.125 421.875 490.717 421.875 506.25 L 421.875 534.375 L 421.875 562.5 C 421.875 578.033 434.467 590.625 450 590.625 C 465.533 590.625 478.125 603.217 478.125 618.75 C 478.125 634.283 490.717 646.875 506.25 646.875 L 534.375 646.875 L 590.625 646.875 L 618.75 646.875 C 634.283 646.875 646.875 659.467 646.875 675 L 646.875 703.125 L 646.875 759.375 M 56.25 534.375 C 71.783 534.375 84.375 521.783 84.375 506.25 M 196.875 562.5 C 196.875 546.967 184.283 534.375 168.75 534.375 M 731.25 590.625 C 715.717 590.625 703.125 603.217 703.125 618.75 L 703.125 646.875 L 703.125 703.125 L 703.125 759.375 M 140.625 675 C 140.625 659.467 128.033 646.875 112.5 646.875 M 196.875 618.75 C 196.875 634.283 209.467 646.875 225 646.875 C 240.533 646.875 253.125 659.467 253.125 675 L 253.125 703.125 L 253.125 731.25 C 253.125 746.783 265.717 759.375 281.25 759.375 C 265.717 759.375 253.125 771.967 253.125 787.5 M 393.75 646.875 C 378.217 646.875 365.625 659.467 365.625 675 C 365.625 690.533 353.033 703.125 337.5 703.125 C 321.967 703.125 309.375 715.717 309.375 731.25 C 309.375 746.783 321.967 759.375 337.5 759.375 L 365.625 759.375 L 421.875 759.375 M 421.875 675 C 421.875 659.467 409.283 646.875 393.75 646.875 M 787.5 646.875 C 771.967 646.875 759.375 659.467 759.375 675 M 140.625 675 C 140.625 690.533 153.217 703.125 168.75 703.125 C 184.283 703.125 196.875 715.717 196.875 731.25 M 421.875 675 C 421.875 690.533 434.467 703.125 450 703.125 L 478.125 703.125 L 534.375 703.125 L 562.5 703.125 C 578.033 703.125 590.625 715.717 590.625 731.25 L 590.625 759.375 L 590.625 815.625 M 281.25 759.375 C 296.783 759.375 309.375 746.783 309.375 731.25 M 506.25 759.375 C 490.717 759.375 478.125 771.967 478.125 787.5 C 478.125 803.033 465.533 815.625 450 815.625 C 434.467 815.625 421.875 828.217 421.875 843.75 M 534.375 787.5 C 534.375 771.967 521.783 759.375 506.25 759.375 M 365.625 843.75 C 365.625 828.217 353.033 815.625 337.5 815.625 M 365.625 84.375 L 365.625 112.5 M 478.125 84.375 L 478.125 112.5 M 196.875 140.625 L 196.875 168.75 M 506.25 140.625 L 534.375 140.625 M 365.625 196.875 L 421.875 196.875 L 450 196.875 M 168.75 253.125 L 196.875 253.125 L 253.125 253.125 L 281.25 253.125 M 393.75 253.125 L 421.875 253.125 L 450 253.125 M 759.375 253.125 L 759.375 309.375 L 759.375 337.5 M 140.625 365.625 L 168.75 365.625 M 478.125 365.625 L 478.125 393.75 M 337.5 421.875 L 365.625 421.875 L 393.75 421.875 M 450 478.125 L 478.125 478.125 M 196.875 562.5 L 196.875 590.625 L 196.875 618.75 M 478.125 534.375 L 506.25 534.375 M 309.375 618.75 L 309.375 646.875 M 731.25 590.625 L 759.375 590.625 L 815.625 590.625 M 534.375 787.5 L 534.375 815.625 M 450 815.625" fill="none" stroke="#dfff80" stroke-width="16" stroke-linecap="round" stroke-linejoin="round"/>
</svg>